<svg xmlns="http://www.w3.org/2000/svg" xmlns:xlink="http://www.w3.org/1999/xlink" version="1.1" x="0px" y="0px" viewBox="0 0 100 125" style="enable-background:new 0 0 100 100;" xml:space="preserve"><g><polygon points="29.5,69.9 31.1,69.9 30.3,68  "/><polygon points="63.7,68 62.9,69.9 64.5,69.9  "/><path d="M70.5,68.7c0.1,0,0.3,0,0.4-0.1c0.1,0,0.2-0.1,0.3-0.2c0.1-0.1,0.1-0.2,0.1-0.4c0-0.2,0-0.3-0.1-0.4   c-0.1-0.1-0.2-0.2-0.3-0.2c-0.1-0.1-0.2-0.1-0.4-0.1c-0.1,0-0.3,0-0.4,0h-0.9v1.4h0.8C70.2,68.7,70.4,68.7,70.5,68.7z"/><path d="M56.7,16H21.5v68h57V37.8H56.7V16z M32.2,72.5l-0.6-1.4h-2.5l-0.5,1.4H27l2.8-6.4H31l2.8,6.4H32.2z M40.7,72.5h-1.9   l-2.9-4.5h0v4.5h-1.4v-6.4h2l2.8,4.4h0v-4.4h1.4V72.5z M47.9,72c-0.4,0.2-0.9,0.4-1.3,0.5c-0.5,0.1-0.9,0.1-1.4,0.1   c-0.5,0-1-0.1-1.4-0.2c-0.4-0.2-0.8-0.4-1.1-0.7c-0.3-0.3-0.6-0.6-0.7-1.1s-0.3-0.9-0.3-1.4c0-0.5,0.1-1,0.3-1.4s0.4-0.8,0.7-1.1   c0.3-0.3,0.7-0.5,1.1-0.7c0.4-0.2,0.9-0.2,1.4-0.2c0.5,0,1,0.1,1.4,0.2c0.4,0.1,0.8,0.3,1.2,0.6l-1,1.1c-0.2-0.2-0.4-0.3-0.7-0.5   c-0.2-0.1-0.6-0.2-0.9-0.2c-0.3,0-0.6,0.1-0.8,0.2c-0.2,0.1-0.5,0.2-0.6,0.4c-0.2,0.2-0.3,0.4-0.4,0.7c-0.1,0.3-0.1,0.5-0.1,0.8   c0,0.3,0,0.6,0.1,0.8c0.1,0.2,0.2,0.5,0.4,0.6c0.2,0.2,0.4,0.3,0.6,0.4c0.2,0.1,0.5,0.2,0.8,0.2c0.3,0,0.6,0,0.8-0.1   c0.2-0.1,0.4-0.1,0.5-0.2v-1h-1.2v-1.3h2.6V72z M54.7,70c0,0.4-0.1,0.7-0.2,1c-0.1,0.3-0.3,0.6-0.5,0.8c-0.2,0.2-0.5,0.4-0.9,0.5   s-0.7,0.2-1.2,0.2c-0.5,0-0.9-0.1-1.2-0.2s-0.6-0.3-0.9-0.5c-0.2-0.2-0.4-0.5-0.5-0.8c-0.1-0.3-0.2-0.7-0.2-1v-3.9h1.4V70   c0,0.2,0,0.4,0.1,0.5c0.1,0.2,0.2,0.3,0.3,0.4c0.1,0.1,0.3,0.2,0.4,0.3c0.2,0.1,0.3,0.1,0.5,0.1c0.2,0,0.4,0,0.5-0.1   c0.2-0.1,0.3-0.2,0.4-0.3c0.1-0.1,0.2-0.3,0.3-0.4c0.1-0.2,0.1-0.4,0.1-0.5v-3.9h1.4V70z M67.8,66.1h2.5c0.3,0,0.6,0,0.9,0.1   c0.3,0.1,0.6,0.2,0.8,0.3c0.2,0.1,0.4,0.3,0.5,0.6c0.1,0.2,0.2,0.6,0.2,0.9c0,0.5-0.1,0.8-0.4,1.1c-0.2,0.3-0.6,0.5-1.1,0.6   l1.7,2.7h-1.7L70,69.9h-0.7v2.5h-1.4V66.1z M63.1,66.1h1.2l2.8,6.4h-1.6L65,71.1h-2.5l-0.5,1.4h-1.6L63.1,66.1z M57.5,66.1v5.1h2.7   v1.3h-4.1v-6.4H57.5z"/><polygon points="58.2,16 58.2,36.3 78.5,36.3  "/></g><text x="0" y="115" fill="#000000" font-size="5px" font-weight="bold" font-family="'Helvetica Neue', Helvetica, Arial-Unicode, Arial, Sans-serif">Created by Jazman Zhens</text><text x="0" y="120" fill="#000000" font-size="5px" font-weight="bold" font-family="'Helvetica Neue', Helvetica, Arial-Unicode, Arial, Sans-serif">from the Noun Project</text></svg>