<svg width="400" height="500" viewBox="0 0 400 500" fill="none" xmlns="http://www.w3.org/2000/svg">
<path d="M268.804 285.966L252.44 269.682L317.192 205.254C319.964 202.494 322.008 196.886 307.832 180.134C307.808 180.106 307.784 180.078 307.76 180.054C305.44 177.306 302.852 174.49 300.06 171.682C296.184 167.79 292.352 164.334 288.672 161.41C288.668 161.406 288.668 161.406 288.664 161.406C277.44 152.462 273 152.462 271.544 152.462C269.052 152.462 267.464 153.526 266.584 154.406L260.36 160.606L201.592 219.082L142.828 160.598L136.6 154.398C132.516 150.334 125.692 152.494 114.504 161.414C110.82 164.346 106.884 167.898 103.116 171.682C100.36 174.454 97.752 177.286 95.368 180.098L95.364 180.102C81.18 196.874 83.22 202.486 85.996 205.246L99.68 218.858L150.744 269.674L134.38 285.958L85.988 334.138L85.98 334.146C85.98 334.146 85.98 334.15 85.976 334.154C85.092 335.034 84.04 336.594 84.032 339.054C84.004 347.67 98.692 363.102 103.192 367.626C106.4 370.846 122.836 386.914 131.684 386.914C134.076 386.914 135.616 385.922 136.516 385.05C136.516 385.046 136.524 385.046 136.524 385.042C136.524 385.038 136.528 385.038 136.528 385.038C136.544 385.018 136.568 385.002 136.584 384.986C136.596 384.974 136.6 384.958 136.616 384.946L177.524 344.234L201.592 320.286L225.656 344.23L266.656 385.038C266.668 385.05 266.688 385.054 266.7 385.066C267.6 385.926 269.128 386.91 271.508 386.91C280.36 386.91 296.796 370.838 300 367.618C306.052 361.538 311.272 355.29 314.712 350.026C316.7 346.974 321.976 338.882 317.208 334.138L268.804 285.966ZM289.56 346.026C289.392 345.886 289.216 345.77 289.052 345.622C287.892 344.642 286.752 343.598 285.64 342.494C284.768 341.626 283.952 340.758 283.184 339.898C282.932 339.614 282.708 339.322 282.46 339.038C281.964 338.454 281.468 337.878 281.016 337.298C280.752 336.958 280.516 336.618 280.264 336.282C279.876 335.758 279.484 335.23 279.124 334.706C278.876 334.342 278.656 333.974 278.42 333.614C278.1 333.114 277.776 332.614 277.484 332.114C277.26 331.738 277.064 331.366 276.86 330.994C276.592 330.502 276.32 330.014 276.076 329.522C275.888 329.142 275.712 328.766 275.536 328.386C275.308 327.898 275.088 327.41 274.884 326.926C274.724 326.542 274.576 326.166 274.432 325.786C274.24 325.298 274.056 324.814 273.888 324.326C273.756 323.942 273.632 323.562 273.508 323.178C273.356 322.694 273.208 322.202 273.072 321.718C272.964 321.338 272.864 320.962 272.768 320.582C272.644 320.086 272.52 319.59 272.412 319.094C272.328 318.718 272.248 318.346 272.172 317.978C272.072 317.47 271.98 316.966 271.892 316.462C271.828 316.094 271.768 315.726 271.712 315.362C271.632 314.842 271.564 314.322 271.496 313.802C271.448 313.446 271.404 313.094 271.364 312.738C271.304 312.198 271.252 311.654 271.204 311.118C271.172 310.782 271.136 310.446 271.112 310.11C271.064 309.526 271.028 308.938 270.992 308.35C270.972 308.062 270.952 307.77 270.936 307.482C270.896 306.794 270.864 306.106 270.84 305.414C270.832 305.23 270.824 305.046 270.816 304.858C270.78 303.906 270.752 302.946 270.732 301.99L303.988 335.082C299.008 337.902 293.676 342.302 289.56 346.026ZM260.38 291.69C260.4 292.082 260.42 292.47 260.44 292.862C260.54 295.134 260.612 297.41 260.668 299.682C261.016 315.058 261.416 332.486 278.592 349.586C279.792 350.782 281.02 351.918 282.28 352.998C278.336 357.078 274.804 361.186 271.968 364.986C271.9 364.934 271.832 364.894 271.768 364.842C270.268 363.63 268.8 362.326 267.344 360.882C263.764 357.318 261.06 353.774 259.008 350.226C252.864 339.586 252.616 328.95 252.368 317.846C252.364 317.614 252.356 317.386 252.352 317.154C252.336 316.514 252.32 315.874 252.304 315.23C252.296 314.982 252.288 314.734 252.28 314.482C252.264 313.85 252.244 313.214 252.22 312.574C252.208 312.238 252.192 311.902 252.18 311.566C252.156 311.018 252.136 310.478 252.108 309.93C252.084 309.526 252.056 309.13 252.032 308.726C252.004 308.246 251.976 307.762 251.944 307.278C251.912 306.83 251.868 306.374 251.836 305.926C251.796 305.49 251.76 305.054 251.72 304.622C251.672 304.146 251.616 303.67 251.56 303.194C251.512 302.778 251.468 302.362 251.412 301.946C251.348 301.45 251.272 300.95 251.192 300.454C251.132 300.058 251.076 299.666 251.008 299.274C250.92 298.75 250.816 298.23 250.716 297.706C250.644 297.33 250.572 296.958 250.488 296.586C250.376 296.046 250.244 295.506 250.116 294.974C250.028 294.61 249.94 294.25 249.844 293.886C249.7 293.338 249.544 292.794 249.38 292.246C249.276 291.886 249.164 291.526 249.052 291.17C248.876 290.618 248.684 290.066 248.484 289.51C248.36 289.15 248.232 288.798 248.092 288.438C247.88 287.882 247.66 287.334 247.424 286.778C247.272 286.414 247.112 286.046 246.948 285.682C246.704 285.138 246.452 284.594 246.184 284.046C246 283.666 245.804 283.29 245.604 282.91C245.328 282.378 245.04 281.846 244.74 281.314C244.512 280.906 244.272 280.506 244.028 280.098C243.776 279.674 243.524 279.246 243.256 278.826L244.976 277.114L245.352 276.742L260.38 291.69ZM179.396 328.274C179.396 328.262 179.396 328.246 179.396 328.234C179.468 326.942 179.572 325.658 179.696 324.374C179.724 324.094 179.752 323.806 179.78 323.526C179.92 322.25 180.088 320.974 180.296 319.706C180.332 319.49 180.376 319.278 180.416 319.066C180.628 317.87 180.88 316.678 181.18 315.486C181.224 315.318 181.256 315.146 181.3 314.978C181.632 313.71 182.036 312.446 182.484 311.182C182.58 310.914 182.684 310.642 182.784 310.37C183.272 309.098 183.808 307.822 184.44 306.546C184.508 306.41 184.592 306.274 184.66 306.134C185.264 304.942 185.952 303.75 186.704 302.562C186.852 302.326 186.984 302.098 187.136 301.866C187.96 300.618 188.88 299.362 189.888 298.11C190.096 297.85 190.32 297.586 190.536 297.33C191.62 296.03 192.776 294.73 194.084 293.426C195.392 292.122 196.7 290.978 198.004 289.898C198.264 289.678 198.528 289.458 198.792 289.246C200.048 288.246 201.308 287.33 202.568 286.514C202.796 286.366 203.024 286.234 203.252 286.09C204.452 285.338 205.652 284.658 206.848 284.054C206.98 283.986 207.112 283.91 207.248 283.842C208.532 283.218 209.816 282.682 211.096 282.202C211.36 282.102 211.624 282.006 211.888 281.914C213.16 281.466 214.44 281.066 215.716 280.734C215.864 280.694 216.016 280.666 216.168 280.634C217.384 280.33 218.6 280.078 219.82 279.87C220.02 279.834 220.22 279.794 220.416 279.766C221.696 279.554 222.984 279.394 224.272 279.262C224.54 279.23 224.812 279.206 225.08 279.182C226.368 279.062 227.66 278.962 228.952 278.898C228.968 278.898 228.984 278.894 229 278.894L179.396 328.274ZM308.884 199.406L305.2 203.074C305.448 199.826 305.548 196.598 305.556 193.562C307.456 196.342 308.46 198.302 308.884 199.406ZM295.12 180.974C295.716 189.098 296.164 206.73 292.824 215.39L279.48 228.666C279.596 228.446 279.68 228.234 279.792 228.018C280.396 226.87 280.952 225.722 281.456 224.574C281.576 224.298 281.712 224.018 281.832 223.738C282.4 222.378 282.9 221.018 283.34 219.658C283.444 219.338 283.536 219.022 283.632 218.706C283.972 217.59 284.276 216.47 284.548 215.362C284.628 215.042 284.712 214.718 284.784 214.394C285.084 213.058 285.344 211.73 285.552 210.406C285.596 210.142 285.628 209.878 285.664 209.614C285.832 208.49 285.972 207.374 286.088 206.262C286.124 205.926 286.164 205.59 286.192 205.254C286.312 203.954 286.42 202.662 286.492 201.374C286.5 201.206 286.504 201.038 286.516 200.87C286.58 199.69 286.628 198.522 286.668 197.362C286.68 197.002 286.692 196.642 286.7 196.282C286.736 195.074 286.768 193.874 286.792 192.694C286.824 191.354 286.86 190.034 286.896 188.714C286.908 188.298 286.924 187.882 286.94 187.466C286.984 186.298 287.036 185.134 287.104 183.978C287.12 183.714 287.132 183.438 287.152 183.174C287.24 181.818 287.364 180.47 287.52 179.13C287.556 178.806 287.604 178.482 287.644 178.158C287.784 177.074 287.952 175.99 288.152 174.91C288.196 174.682 288.236 174.458 288.276 174.23C289.84 175.654 291.408 177.162 292.972 178.73C293.716 179.482 294.408 180.23 295.12 180.974ZM258.344 179.518C258.34 179.658 258.332 179.798 258.328 179.934C258.296 180.67 258.264 181.398 258.224 182.126C258.212 182.394 258.192 182.662 258.172 182.926C258.136 183.534 258.092 184.146 258.048 184.75C258.02 185.07 257.988 185.386 257.964 185.706C257.912 186.266 257.86 186.818 257.796 187.378C257.756 187.722 257.712 188.062 257.668 188.406C257.6 188.938 257.532 189.466 257.448 189.99C257.392 190.354 257.332 190.714 257.268 191.074C257.184 191.582 257.088 192.09 256.988 192.598C256.912 192.97 256.836 193.342 256.748 193.71C256.64 194.21 256.52 194.71 256.392 195.206C256.3 195.582 256.196 195.954 256.092 196.326C255.956 196.822 255.804 197.314 255.648 197.81C255.532 198.186 255.404 198.562 255.276 198.934C255.104 199.43 254.916 199.922 254.724 200.418C254.584 200.79 254.44 201.162 254.284 201.53C254.072 202.03 253.848 202.526 253.612 203.026C253.444 203.39 253.276 203.758 253.092 204.122C252.84 204.63 252.56 205.138 252.28 205.646C252.084 206.002 251.896 206.358 251.688 206.718C251.384 207.238 251.048 207.762 250.712 208.282C250.488 208.626 250.284 208.97 250.048 209.31C249.676 209.862 249.264 210.406 248.856 210.954C248.616 211.27 248.404 211.586 248.152 211.902C247.684 212.502 247.164 213.11 246.648 213.71C246.42 213.974 246.22 214.238 245.984 214.498C245.212 215.366 244.396 216.234 243.524 217.098C242.652 217.962 241.78 218.778 240.916 219.542C240.628 219.798 240.336 220.022 240.048 220.27C239.464 220.758 238.888 221.254 238.308 221.698C237.964 221.962 237.624 222.198 237.284 222.45C236.756 222.842 236.228 223.23 235.704 223.582C235.336 223.83 234.968 224.05 234.608 224.286C234.108 224.602 233.608 224.922 233.108 225.21C232.728 225.434 232.348 225.634 231.968 225.838C231.484 226.102 231 226.366 230.516 226.602C230.124 226.798 229.74 226.97 229.352 227.15C228.872 227.37 228.396 227.586 227.916 227.782C227.524 227.946 227.132 228.098 226.736 228.246C226.264 228.426 225.792 228.602 225.32 228.766C224.924 228.898 224.528 229.026 224.128 229.15C223.656 229.298 223.184 229.438 222.712 229.57C222.316 229.678 221.92 229.782 221.524 229.882C221.048 229.998 220.576 230.11 220.1 230.214C219.7 230.298 219.308 230.382 218.912 230.462C218.432 230.554 217.956 230.642 217.476 230.718C217.08 230.786 216.688 230.85 216.292 230.906C215.812 230.982 215.328 231.042 214.844 231.102C214.448 231.15 214.06 231.198 213.664 231.242C213.172 231.298 212.672 231.338 212.18 231.382C211.796 231.414 211.416 231.454 211.036 231.478C210.512 231.518 209.988 231.55 209.464 231.578C209.108 231.598 208.752 231.622 208.396 231.642C207.82 231.67 207.248 231.694 206.672 231.714C206.364 231.726 206.052 231.742 205.74 231.75C205.084 231.774 204.428 231.79 203.772 231.806C203.536 231.81 203.304 231.818 203.068 231.822C203.028 231.822 202.988 231.822 202.948 231.826L258.436 176.626C258.412 177.594 258.384 178.558 258.344 179.518ZM189.372 231.238C189.032 231.202 188.684 231.158 188.336 231.122C187.776 231.05 187.224 230.99 186.652 230.902C186.024 230.814 185.38 230.686 184.736 230.574C184.216 230.478 183.7 230.394 183.168 230.282C182.352 230.106 181.52 229.882 180.688 229.662C180.308 229.558 179.936 229.474 179.552 229.362C178.548 229.062 177.524 228.694 176.492 228.302C176.256 228.21 176.028 228.146 175.788 228.05C174.652 227.594 173.5 227.054 172.34 226.466C172.188 226.39 172.04 226.334 171.888 226.254C170.692 225.63 169.484 224.906 168.268 224.118C168.136 224.034 168.012 223.97 167.88 223.882C166.68 223.09 165.468 222.178 164.252 221.202C164.1 221.082 163.948 220.99 163.796 220.862C162.428 219.742 161.048 218.498 159.664 217.122C158.796 216.254 157.98 215.39 157.212 214.53C156.94 214.226 156.704 213.922 156.444 213.614C155.968 213.05 155.488 212.498 155.052 211.938C154.768 211.574 154.512 211.21 154.244 210.85C153.876 210.35 153.496 209.85 153.156 209.35C152.896 208.962 152.656 208.578 152.408 208.194C152.104 207.718 151.796 207.242 151.516 206.766C151.28 206.366 151.072 205.97 150.852 205.574C150.596 205.11 150.34 204.642 150.108 204.174C149.904 203.77 149.72 203.37 149.536 202.966C149.32 202.506 149.112 202.046 148.916 201.582C148.744 201.174 148.584 200.77 148.428 200.362C148.252 199.902 148.08 199.446 147.92 198.986C147.776 198.578 147.644 198.166 147.516 197.758C147.368 197.298 147.232 196.842 147.1 196.378C146.984 195.97 146.876 195.566 146.772 195.158C146.656 194.694 146.544 194.23 146.44 193.762C146.352 193.358 146.264 192.958 146.184 192.554C146.092 192.082 146.004 191.606 145.924 191.13C145.856 190.734 145.788 190.342 145.728 189.946C145.652 189.458 145.588 188.966 145.524 188.474C145.476 188.094 145.424 187.718 145.38 187.334C145.32 186.818 145.272 186.298 145.224 185.778C145.192 185.426 145.156 185.074 145.128 184.718C145.084 184.138 145.044 183.558 145.008 182.978C144.988 182.686 144.968 182.394 144.952 182.098C144.916 181.422 144.884 180.742 144.86 180.066C144.852 179.866 144.84 179.666 144.832 179.47C144.796 178.518 144.768 177.562 144.744 176.61L194.496 226.122L189.372 231.238ZM130.796 162.73L134.404 166.318C134.428 166.742 134.448 167.166 134.468 167.59C134.568 169.834 134.64 172.078 134.692 174.318C135.044 189.69 135.444 207.114 152.612 224.206C153.448 225.042 154.284 225.83 155.12 226.582C155.208 226.666 155.296 226.734 155.384 226.814C156.136 227.486 156.884 228.13 157.632 228.738C157.672 228.77 157.712 228.802 157.752 228.83C163.588 233.562 169.3 236.458 174.632 238.282C174.656 238.29 174.684 238.298 174.708 238.31C175.432 238.558 176.148 238.782 176.86 238.994C176.972 239.026 177.084 239.058 177.192 239.086C177.8 239.262 178.408 239.43 179.004 239.578C179.224 239.634 179.436 239.682 179.656 239.734C179.968 239.814 180.288 239.894 180.596 239.962L170.912 249.602C170.596 249.566 170.28 249.53 169.96 249.494C169.52 249.438 169.084 249.394 168.632 249.33C167.816 249.214 166.98 249.062 166.14 248.906C165.796 248.838 165.46 248.79 165.116 248.718C164.08 248.498 163.024 248.234 161.956 247.934C161.788 247.886 161.624 247.85 161.456 247.802C160.232 247.442 158.988 247.022 157.732 246.526C157.7 246.514 157.672 246.506 157.64 246.49C155.044 245.458 152.38 244.106 149.672 242.326C149.66 242.318 149.648 242.31 149.636 242.302C148.38 241.474 147.108 240.53 145.832 239.502C145.724 239.418 145.62 239.35 145.512 239.262C144.136 238.138 142.752 236.886 141.36 235.506C127.04 221.258 126.72 207.278 126.384 192.478C126.344 190.682 126.296 188.866 126.228 187.046C126.216 186.722 126.208 186.398 126.192 186.07C126.116 184.258 126.004 182.434 125.844 180.602C125.816 180.25 125.784 179.898 125.748 179.546C125.572 177.702 125.332 175.846 125.016 173.978C124.964 173.682 124.9 173.386 124.848 173.086C124.488 171.134 124.06 169.17 123.484 167.198C123.48 167.174 123.476 167.154 123.472 167.134C127.108 164.474 129.516 163.226 130.796 162.73ZM114.9 174.234C114.948 174.466 114.984 174.694 115.028 174.926C115.224 176.002 115.396 177.078 115.532 178.162C115.576 178.49 115.624 178.814 115.66 179.142C115.816 180.482 115.936 181.826 116.028 183.182C116.044 183.45 116.056 183.726 116.072 183.994C116.144 185.15 116.196 186.31 116.24 187.478C116.256 187.894 116.272 188.31 116.284 188.726C116.324 190.046 116.356 191.366 116.388 192.706C116.644 203.934 116.956 216.258 123.78 228.742L111.236 216.262C111.224 216.23 111.228 216.198 111.216 216.174C107.444 207.614 108.036 188.366 108.668 180.342C109.184 179.81 109.676 179.27 110.204 178.742C111.756 177.182 113.332 175.666 114.9 174.234ZM98.18 192.754C98.176 196.198 98.288 199.95 98.592 203.678L94.296 199.406C94.764 198.194 95.908 195.974 98.18 192.754ZM148.296 253.138C153.16 255.77 157.836 257.35 162.164 258.318L157.832 262.63L148.296 253.138ZM142.516 299.694C142.568 297.45 142.64 295.21 142.74 292.966C142.76 292.542 142.78 292.11 142.804 291.686L192.596 242.134C193.016 242.11 193.436 242.094 193.856 242.074C196.104 241.986 198.352 241.926 200.6 241.886C215.976 241.61 233.408 241.302 250.58 224.194C267.748 207.114 268.148 189.69 268.5 174.318C268.548 172.106 268.62 169.898 268.72 167.686C268.74 167.23 268.764 166.77 268.788 166.318L272.396 162.726C273.676 163.222 276.08 164.47 279.708 167.13C279.7 167.154 279.696 167.182 279.692 167.206C279.116 169.178 278.688 171.134 278.328 173.09C278.276 173.378 278.216 173.67 278.164 173.962C277.844 175.842 277.608 177.71 277.428 179.562C277.396 179.894 277.364 180.222 277.34 180.55C277.18 182.406 277.068 184.25 276.988 186.082C276.976 186.374 276.968 186.666 276.956 186.958C276.888 188.806 276.844 190.646 276.8 192.47C276.464 207.274 276.148 221.254 261.824 235.51C247.5 249.758 233.52 250.01 218.72 250.274C203.344 250.55 185.916 250.866 168.74 267.958C151.572 285.046 151.172 302.47 150.824 317.846C150.488 332.642 150.168 346.618 135.844 360.878C134.4 362.318 132.932 363.626 131.432 364.834C131.384 364.874 131.328 364.906 131.276 364.946C129.34 362.378 127.148 359.79 124.852 357.262C123.588 355.846 122.284 354.422 120.908 352.998C122.156 351.926 123.392 350.786 124.604 349.582C141.772 332.494 142.168 315.07 142.516 299.694ZM132.42 303.402C132.408 303.842 132.396 304.286 132.38 304.726C132.364 305.114 132.344 305.502 132.328 305.89C132.308 306.394 132.284 306.902 132.256 307.406C132.236 307.79 132.208 308.174 132.184 308.558C132.152 309.058 132.12 309.558 132.08 310.058C132.052 310.45 132.012 310.834 131.976 311.222C131.928 311.714 131.884 312.206 131.828 312.694C131.784 313.09 131.732 313.486 131.68 313.878C131.62 314.362 131.556 314.838 131.48 315.322C131.42 315.722 131.352 316.114 131.284 316.514C131.2 316.986 131.116 317.462 131.024 317.93C130.944 318.338 130.856 318.734 130.768 319.138C130.664 319.602 130.552 320.07 130.436 320.538C130.332 320.946 130.224 321.35 130.108 321.758C129.98 322.218 129.84 322.674 129.692 323.138C129.564 323.55 129.432 323.958 129.288 324.366C129.128 324.818 128.956 325.278 128.784 325.73C128.624 326.146 128.464 326.554 128.292 326.97C128.1 327.422 127.892 327.878 127.684 328.33C127.496 328.738 127.308 329.15 127.1 329.562C126.872 330.018 126.62 330.474 126.372 330.926C126.148 331.338 125.932 331.746 125.692 332.154C125.424 332.614 125.124 333.07 124.832 333.53C124.576 333.938 124.328 334.338 124.052 334.742C123.732 335.21 123.376 335.678 123.032 336.15C122.74 336.55 122.464 336.942 122.152 337.338C121.764 337.83 121.336 338.326 120.916 338.822C120.604 339.19 120.316 339.558 119.988 339.926C119.408 340.574 118.78 341.226 118.144 341.874C117.94 342.086 117.76 342.294 117.548 342.502C117.456 342.59 117.36 342.67 117.268 342.758C116.224 343.782 115.164 344.762 114.096 345.67C113.94 345.802 113.784 345.91 113.628 346.038C109.512 342.31 104.18 337.918 99.208 335.094L132.46 301.994C132.448 302.458 132.432 302.93 132.42 303.402ZM97.924 346.138C101.696 348.81 106.656 352.894 112.288 358.558C116.504 362.794 119.836 366.642 122.36 369.902C122.364 369.91 122.372 369.918 122.38 369.926C123.052 370.794 123.624 371.582 124.18 372.362C124.316 372.554 124.444 372.742 124.576 372.934C120.812 370.262 115.88 366.19 110.276 360.566C104.64 354.902 100.58 349.922 97.924 346.138ZM169.116 336.198L169.052 338.558L153.484 354.054C153.608 353.826 153.692 353.606 153.812 353.378C154.408 352.246 154.956 351.114 155.452 349.982C155.58 349.69 155.72 349.398 155.844 349.106C156.412 347.742 156.912 346.386 157.352 345.03C157.456 344.718 157.544 344.406 157.64 344.094C157.984 342.97 158.292 341.85 158.56 340.734C158.64 340.414 158.724 340.09 158.796 339.77C159.096 338.43 159.356 337.098 159.568 335.774C159.608 335.518 159.64 335.258 159.68 335.002C159.848 333.878 159.992 332.754 160.108 331.638C160.144 331.298 160.18 330.962 160.212 330.626C160.336 329.326 160.44 328.034 160.512 326.75C160.52 326.574 160.528 326.402 160.536 326.226C160.6 325.054 160.648 323.89 160.688 322.738C160.7 322.37 160.712 322.006 160.724 321.65C160.76 320.446 160.788 319.246 160.816 318.066C161.152 303.27 161.472 289.294 175.792 275.038C190.116 260.79 204.096 260.534 218.896 260.27C220.092 260.25 221.308 260.222 222.528 260.194C222.86 260.182 223.192 260.174 223.528 260.162C224.72 260.13 225.924 260.082 227.132 260.026C227.276 260.018 227.416 260.014 227.56 260.006C228.852 259.934 230.16 259.838 231.476 259.722C231.792 259.694 232.112 259.658 232.428 259.63C233.564 259.518 234.708 259.378 235.856 259.21C236.1 259.174 236.34 259.146 236.588 259.11C237.92 258.902 239.26 258.654 240.608 258.358C240.92 258.286 241.232 258.21 241.544 258.134C242.664 257.87 243.792 257.562 244.928 257.222C245.24 257.13 245.548 257.042 245.856 256.946C247.22 256.51 248.584 256.018 249.948 255.45C250.228 255.338 250.512 255.202 250.792 255.078C251.932 254.586 253.076 254.038 254.224 253.442C254.448 253.326 254.664 253.246 254.888 253.126L239.328 268.606L236.98 268.658C221.612 268.942 204.196 269.262 187.02 286.342C169.876 303.422 169.472 320.834 169.116 336.198ZM217.584 304.37C217.584 304.374 217.588 304.378 217.592 304.378C217.828 304.798 218.032 305.214 218.256 305.634C218.756 306.586 219.224 307.55 219.64 308.506C219.836 308.95 220.028 309.398 220.204 309.842C220.612 310.878 220.968 311.914 221.292 312.95C221.388 313.266 221.508 313.586 221.6 313.902C221.988 315.25 222.312 316.606 222.58 317.966C222.644 318.274 222.684 318.586 222.74 318.898C222.936 319.978 223.104 321.054 223.24 322.134C223.296 322.574 223.344 323.018 223.392 323.458C223.5 324.478 223.596 325.502 223.668 326.526C223.696 326.906 223.728 327.282 223.752 327.662C223.764 327.862 223.768 328.058 223.78 328.254L208.68 313.226L217.584 304.37ZM234.128 338.554L234.068 336.214C233.78 323.57 233.476 310.514 224.896 297.09L235.948 286.098C235.956 286.114 235.968 286.134 235.98 286.154C236.708 287.442 237.344 288.734 237.908 290.022C238.008 290.262 238.116 290.498 238.212 290.738C238.744 292.022 239.208 293.306 239.612 294.594C239.688 294.834 239.752 295.07 239.824 295.31C240.204 296.602 240.528 297.898 240.796 299.206C240.844 299.43 240.88 299.654 240.924 299.878C241.176 301.202 241.392 302.526 241.56 303.858C241.584 304.054 241.604 304.25 241.624 304.442C241.784 305.81 241.912 307.186 242.008 308.562C242.016 308.706 242.024 308.854 242.036 309.002C242.124 310.43 242.192 311.862 242.244 313.306C242.244 313.398 242.248 313.498 242.252 313.594C242.3 315.078 242.336 316.574 242.368 318.078C242.396 319.278 242.428 320.494 242.46 321.718C242.472 322.046 242.484 322.374 242.492 322.706C242.536 323.926 242.584 325.15 242.652 326.39C242.66 326.502 242.664 326.618 242.672 326.726C242.748 328.03 242.852 329.342 242.976 330.666C243.004 330.978 243.04 331.29 243.072 331.602C243.192 332.746 243.336 333.898 243.512 335.058C243.548 335.294 243.576 335.522 243.608 335.762C243.824 337.098 244.084 338.442 244.384 339.794C244.456 340.098 244.536 340.402 244.612 340.71C244.88 341.834 245.192 342.962 245.536 344.098C245.632 344.41 245.72 344.722 245.82 345.034C246.26 346.386 246.76 347.746 247.328 349.11C247.448 349.398 247.592 349.694 247.72 349.982C248.212 351.106 248.76 352.23 249.348 353.358C249.468 353.59 249.56 353.818 249.684 354.05L234.128 338.554ZM292.912 360.562C287.308 366.198 282.376 370.262 278.608 372.934C278.784 372.682 278.956 372.43 279.14 372.174C279.624 371.506 280.104 370.834 280.668 370.102C280.828 369.894 281.008 369.678 281.172 369.466C283.656 366.298 286.856 362.614 290.896 358.554C296.544 352.878 301.512 348.79 305.28 346.118C302.624 349.91 298.556 354.894 292.912 360.562Z" fill="#111111"/>
</svg>
