<svg width="652" height="652" viewBox="0 0 652 652" fill="none" xmlns="http://www.w3.org/2000/svg">
<path d="M321.3 286.9C297.9 286.9 281 302.2 281 325.1C281 348 300 363.3 323.4 363.3C337.6 363.3 350 357.7 357.8 348.3L341.6 338.9C337.3 343.6 330.8 346.3 323.5 346.3C313.3 346.3 304.7 341 301.5 332.5H361C361.5 330.1 361.7 327.7 361.7 325.1C361.6 302.1 344.8 286.9 321.3 286.9ZM301.2 317.6C303.9 309.1 311.1 303.8 321.3 303.8C331.5 303.8 338.7 309.1 341.4 317.6H301.2ZM549.8 286.9C526.4 286.9 509.5 302.2 509.5 325.1C509.5 348 528.5 363.3 551.9 363.3C566.1 363.3 578.5 357.7 586.3 348.3L570.1 338.9C565.8 343.6 559.3 346.3 552 346.3C541.8 346.3 533.2 341 530 332.5H589.5C590 330.1 590.2 327.7 590.2 325.1C590.2 302.1 573.3 286.9 549.8 286.9ZM529.8 317.6C532.5 309.1 539.7 303.8 549.9 303.8C560.1 303.8 567.3 309.1 570 317.6H529.8ZM447 325.1C447 337.8 455.3 346.3 468.2 346.3C476.9 346.3 483.5 342.3 486.9 335.9L503.2 345.3C496.5 356.5 483.8 363.3 468.2 363.3C444.7 363.3 427.9 348 427.9 325.1C427.9 302.2 444.8 286.9 468.2 286.9C483.8 286.9 496.4 293.7 503.2 304.9L486.9 314.3C483.5 307.8 477 303.9 468.2 303.9C455.3 303.8 447 312.3 447 325.1ZM622 263.5V361.1H602.9V263.5H622V263.5ZM100.4 252.9L178.8 388.7H22L100.4 252.9ZM296.5 263.5L237.7 365.4L178.9 263.5H201L237.8 327.2L274.6 263.5H296.5ZM421.5 289V309.6C419.4 309 417.1 308.6 414.7 308.6C402.4 308.6 393.5 317.1 393.5 329.8V361.2H374.4V289H393.5V308.5C393.5 297.7 406 289 421.5 289Z" fill="#F1F1F1"/>
</svg>
