<svg id="SvgjsSvg1075" width="288" height="288" xmlns="http://www.w3.org/2000/svg" version="1.1" xmlns:xlink="http://www.w3.org/1999/xlink" xmlns:svgjs="http://svgjs.com/svgjs"><defs id="SvgjsDefs1076"></defs><g id="SvgjsG1077"><!--?xml version="1.0" encoding="UTF-8"?--><svg xmlns="http://www.w3.org/2000/svg" xmlns:xlink="http://www.w3.org/1999/xlink" width="288" height="288" viewBox="0 0 64 64" version="1.1"><title>pencil</title><defs><path id="path-1" d="M.06 64V.04H64V64z" fill="#ffffff" class="color000 svgShape"></path></defs><g id="Page-1" stroke="none" stroke-width="1" fill="none" fill-rule="evenodd"><g id="pencil" fill="#ffffff" class="color000 svgShape"><path d="M37 12H27a3 3 0 0 0-3 3v5h16v-5a3 3 0 0 0-3-3" id="Fill-1" fill="#fffffe" class="colorFFFFFE svgShape"></path><g id="Group-5" fill="#ffffff" class="color000 svgShape"><mask id="mask-2" fill="#fff"><use xlink:href="#path-1"></use></mask><path id="Fill-2" fill="#fffffe" mask="url(#mask-2)" d="M28 22h-4v22l8 12 8-12V22H28" class="colorFFFFFE svgShape"></path><path d="M40 20H24v-5a3 3 0 0 1 3-3h10a3 3 0 0 1 3 3v5zm0 24l-8 12-8-12V22h16v22zM32 0C14.327 0 0 14.327 0 32c0 17.673 14.327 32 32 32 17.673 0 32-14.327 32-32C64 14.327 49.673 0 32 0z" id="Fill-4" fill="#ffde57" mask="url(#mask-2)" class="color4C5665 svgShape"></path></g></g></g><metadata><rdf:rdf xmlns:rdf="http://www.w3.org/1999/02/22-rdf-syntax-ns#" xmlns:rdfs="http://www.w3.org/2000/01/rdf-schema#" xmlns:dc="http://purl.org/dc/elements/1.1/"><rdf:description about="https://iconscout.com/legal#licenses" dc:title="pencil" dc:description="pencil" dc:publisher="Iconscout" dc:date="2017-09-25" dc:format="image/svg+xml" dc:language="en"><dc:creator><rdf:bag><rdf:li>Elegant Themes</rdf:li></rdf:bag></dc:creator></rdf:description></rdf:rdf></metadata></svg></g></svg>