<svg xmlns="http://www.w3.org/2000/svg" width="32" height="32" viewBox="0 0 32 32"><g transform="translate(0 -1020.362)"><path fill="#2b4255" style="line-height:normal;text-indent:0;text-align:start;text-decoration-line:none;text-decoration-style:solid;text-decoration-color:#000;text-transform:none;block-progression:tb;isolation:auto;mix-blend-mode:normal" d="m 15.980469,1028.8613 c -4.143168,0 -7.480469,3.3693 -7.480469,7.5 0,4.132 3.337301,7.5 7.480469,7.5 4.072834,0 7.369999,-3.2643 7.480469,-7.3047 A 0.50004994,0.50004994 0 0 0 23.5,1036.3613 c 0,-1.0336 -0.210523,-2.0204 -0.591797,-2.9179 -0.13181,-0.3103 -0.284349,-0.6113 -0.455078,-0.8985 a 0.50009056,0.50009056 0 1 0 -0.859375,0.5117 c 0.148011,0.249 0.280421,0.5088 0.394531,0.7774 0.330086,0.777 0.511719,1.6296 0.511719,2.5273 0,3.5924 -2.917425,6.5 -6.519531,6.5 -3.603273,0 -6.480469,-2.904 -6.480469,-6.5 0,-3.5945 2.877196,-6.5 6.480469,-6.5 0.900539,0 1.755544,0.1826 2.535156,0.5117 0.779638,0.3291 1.483602,0.8059 2.074219,1.3946 a 0.50004994,0.50004994 0 1 0 0.705078,-0.709 c -0.680544,-0.6783 -1.490863,-1.2277 -2.390625,-1.6074 -0.899788,-0.3799 -1.888307,-0.5899 -2.923828,-0.5899 z" color="#000" font-family="sans-serif" font-weight="400" overflow="visible" white-space="normal"/><path fill="#2b4255" style="line-height:normal;text-indent:0;text-align:start;text-decoration-line:none;text-decoration-style:solid;text-decoration-color:#000;text-transform:none;block-progression:tb;isolation:auto;mix-blend-mode:normal" d="m 16,1028.8613 c -8.8329729,0 -15.85546875,7.1485 -15.85546875,7.1485 a 0.50004994,0.50004994 0 0 0 0,0.705 c 0,0 7.02249585,7.1465 15.85546875,7.1465 8.832973,0 15.855469,-7.1465 15.855469,-7.1465 a 0.50004994,0.50004994 0 0 0 0,-0.705 c 0,0 -7.022496,-7.1485 -15.855469,-7.1485 z m 0,1 c 7.862106,0 14.030858,5.8685 14.685547,6.502 -0.655934,0.6346 -6.824316,6.498 -14.685547,6.498 -7.8612307,0 -14.0296132,-5.8634 -14.6855469,-6.498 0.6546884,-0.6335 6.8234408,-6.502 14.6855469,-6.502 z" color="#000" font-family="sans-serif" font-weight="400" overflow="visible" white-space="normal"/><path fill="#f05542" style="line-height:normal;text-indent:0;text-align:start;text-decoration-line:none;text-decoration-style:solid;text-decoration-color:#000;text-transform:none;block-progression:tb;isolation:auto;mix-blend-mode:normal" d="m 15.181641,1031.3613 a 0.50004997,0.50004997 0 0 0 -0.5,0.5 l 0,0.5879 c -0.177483,0.059 -0.349628,0.1304 -0.517579,0.2129 L 13.75,1032.248 a 0.50004997,0.50004997 0 0 0 -0.707031,0 l -1.15625,1.1582 a 0.50004997,0.50004997 0 0 0 0,0.7071 l 0.414062,0.414 c -0.08297,0.1678 -0.1531,0.3403 -0.21289,0.5176 l -0.587891,0 a 0.50004997,0.50004997 0 0 0 -0.5,0.5 l 0,1.6348 a 0.50004997,0.50004997 0 0 0 0.5,0.5 l 0.587891,0 c 0.05938,0.1778 0.130215,0.3493 0.21289,0.5176 l -0.414062,0.414 a 0.50004997,0.50004997 0 0 0 0,0.7071 l 1.15625,1.1582 a 0.50004997,0.50004997 0 0 0 0.707031,0 l 0.416016,-0.4161 c 0.167719,0.083 0.338313,0.1551 0.515625,0.2149 l 0,0.5859 a 0.50004997,0.50004997 0 0 0 0.5,0.5 l 1.636718,0 a 0.50004997,0.50004997 0 0 0 0.5,-0.5 l 0,-0.5879 c 0.177337,-0.059 0.349756,-0.1285 0.517579,-0.2109 l 0.414062,0.4141 a 0.50004997,0.50004997 0 0 0 0.707031,0 l 1.15625,-1.1582 a 0.50004997,0.50004997 0 0 0 0,-0.7071 l -0.414062,-0.414 c 0.08297,-0.1678 0.153102,-0.3403 0.21289,-0.5176 l 0.587891,0 a 0.50004997,0.50004997 0 0 0 0.5,-0.5 l 0,-1.6348 a 0.50004997,0.50004997 0 0 0 -0.5,-0.5 l -0.587891,0 c -0.05957,-0.1784 -0.129875,-0.3508 -0.21289,-0.5195 l 0.414062,-0.4121 a 0.50004997,0.50004997 0 0 0 0,-0.7071 l -1.15625,-1.1582 a 0.50004997,0.50004997 0 0 0 -0.707031,0 l -0.416016,0.4161 c -0.16772,-0.083 -0.338312,-0.1551 -0.515625,-0.2149 l 0,-0.5879 a 0.50004997,0.50004997 0 0 0 -0.5,-0.5 l -1.636718,0 z m 0.5,1 0.636718,0 0,0.4141 a 0.50004997,0.50004997 0 0 0 0.388672,0.4883 c 0.34879,0.079 0.681388,0.218 0.984375,0.4082 a 0.50004997,0.50004997 0 0 0 0.619141,-0.07 l 0.292969,-0.293 0.449218,0.4512 -0.291015,0.289 a 0.50004997,0.50004997 0 0 0 -0.07031,0.6192 c 0.189353,0.3035 0.325812,0.6372 0.404297,0.9863 a 0.50004997,0.50004997 0 0 0 0.488281,0.3906 l 0.416016,0 0,0.6348 -0.414062,0 a 0.50004997,0.50004997 0 0 0 -0.488282,0.3887 c -0.07949,0.3487 -0.216075,0.6833 -0.40625,0.9863 a 0.50004997,0.50004997 0 0 0 0.07031,0.6191 l 0.291015,0.291 -0.449218,0.4512 -0.291016,-0.291 a 0.50004997,0.50004997 0 0 0 -0.617188,-0.07 c -0.303592,0.1893 -0.637234,0.3258 -0.986328,0.4043 a 0.50004997,0.50004997 0 0 0 -0.390625,0.4883 l 0,0.414 -0.636718,0 0,-0.414 a 0.50004997,0.50004997 0 0 0 -0.388672,-0.4864 c -0.348788,-0.079 -0.681389,-0.218 -0.984375,-0.4082 a 0.50004997,0.50004997 0 0 0 -0.619141,0.07 l -0.292969,0.293 -0.449218,-0.4512 0.291015,-0.289 a 0.50004997,0.50004997 0 0 0 0.07031,-0.6192 c -0.189355,-0.3035 -0.325811,-0.6372 -0.404297,-0.9863 a 0.50004997,0.50004997 0 0 0 -0.488281,-0.3906 l -0.416016,0 0,-0.6348 0.414062,0 a 0.50004997,0.50004997 0 0 0 0.488282,-0.3906 c 0.07949,-0.3488 0.216071,-0.6814 0.40625,-0.9844 a 0.50004997,0.50004997 0 0 0 -0.07031,-0.6191 l -0.291015,-0.291 0.449218,-0.4512 0.291016,0.291 a 0.50004997,0.50004997 0 0 0 0.617188,0.07 c 0.303587,-0.1894 0.637229,-0.3258 0.986328,-0.4043 a 0.50004997,0.50004997 0 0 0 0.390625,-0.4883 l 0,-0.416 z" color="#000" font-family="sans-serif" font-weight="400" overflow="visible" white-space="normal"/><path fill="#f05542" style="line-height:normal;text-indent:0;text-align:start;text-decoration-line:none;text-decoration-style:solid;text-decoration-color:#000;text-transform:none;block-progression:tb;isolation:auto;mix-blend-mode:normal" d="m 16.238281,1034.5566 c -0.388084,-0.051 -0.792469,0.023 -1.148437,0.2286 a 0.50004991,0.50004991 0 1 0 0.5,0.8652 c 0.324159,-0.1872 0.725549,-0.1338 0.990234,0.1308 0.264676,0.2647 0.318013,0.6681 0.13086,0.9922 -0.187158,0.3242 -0.562271,0.4797 -0.923829,0.3828 -0.361548,-0.097 -0.609362,-0.4206 -0.609375,-0.7949 a 0.50004991,0.50004991 0 1 0 -1,0 c 2.8e-5,0.8221 0.55751,1.547 1.351563,1.7598 0.794073,0.2128 1.637783,-0.1357 2.048828,-0.8477 0.411037,-0.7119 0.292235,-1.6179 -0.289063,-2.1992 -0.290658,-0.2906 -0.662697,-0.4665 -1.050781,-0.5176 z" color="#000" font-family="sans-serif" font-weight="400" overflow="visible" white-space="normal"/></g></svg>