<svg id="SvgjsSvg1001" width="288" height="288" xmlns="http://www.w3.org/2000/svg" version="1.1" xmlns:xlink="http://www.w3.org/1999/xlink" xmlns:svgjs="http://svgjs.com/svgjs"><defs id="SvgjsDefs1002"></defs><g id="SvgjsG1008" transform="matrix(0.916700005531311,0,0,0.916700005531311,11.99449634552002,11.995413780212402)"><svg xmlns="http://www.w3.org/2000/svg" data-name="Layer 1" viewBox="0 0 512 512" width="288" height="288"><path fill="#fedba6" d="M496,267.85H16A8.49,8.49,0,0,1,10.4,253L29.68,236h0L203.4,83.35l31.72-27.88a31.6,31.6,0,0,1,41.76,0L308.6,83.35,482.31,236h0L501.6,253A8.49,8.49,0,0,1,496,267.85Z" class="colorfedba6 svgShape"></path><path fill="#fccd7f" d="M501.6,253,482.32,236h0L308.6,83.35,276.88,55.47A31.6,31.6,0,0,0,241,51.38a31.81,31.81,0,0,1,5.88,4.09L278.6,83.35,452.31,236h0L471.6,253A8.49,8.49,0,0,1,466,267.85h30A8.49,8.49,0,0,0,501.6,253Z" class="colorfccd7f svgShape"></path><path fill="#5a5a5a" d="M496,267.85H16A8.49,8.49,0,0,1,10.4,253L29.68,236H482.32L501.6,253A8.49,8.49,0,0,1,496,267.85Z" class="color5a5a5a svgShape"></path><path fill="#444444" d="M501.6,253,482.32,236h-30L471.6,253A8.49,8.49,0,0,1,466,267.85h30A8.49,8.49,0,0,0,501.6,253Z" class="color444 svgShape"></path><path fill="#5a5a5a" d="M308.6,83.35H203.4l31.72-27.88a31.6,31.6,0,0,1,41.76,0Z" class="color5a5a5a svgShape"></path><path fill="#444444" d="M276.88,55.47A31.6,31.6,0,0,0,241,51.38a31.81,31.81,0,0,1,5.88,4.09L278.6,83.35h30Z" class="color444 svgShape"></path><circle cx="256" cy="441.35" r="23.06" fill="#5a5a5a" class="color5a5a5a svgShape"></circle><path fill="#444444" d="M263,419.37a23.06,23.06,0,0,1-29,29,23.06,23.06,0,1,0,29-29Z" class="color444 svgShape"></path><path d="M506.55,247.35,281.83,49.84a39.2,39.2,0,0,0-51.66,0L5.45,247.35a16,16,0,0,0,10.52,28H62.49a543.8,543.8,0,0,0,77.25,90.77,557.05,557.05,0,0,0,86.78,67.22,30.55,30.55,0,1,0,58.62-1.2,682.24,682.24,0,0,0,71.66-55.78,666,666,0,0,0,92.43-101H496a16,16,0,0,0,10.52-28ZM305.77,90.85,462.42,228.54H386.89L299.63,90.85Zm63.36,137.69H263.5V90.85h18.37ZM240.07,61.1a24.21,24.21,0,0,1,31.86,0l16.78,14.75H223.29Zm8.43,29.75V228.54H142.87L230.13,90.85Zm-42.27,0h6.14L125.11,228.54H49.58ZM256,456.91a15.56,15.56,0,1,1,15.56-15.56A15.58,15.58,0,0,1,256,456.91Zm90.81-91.74a666.3,666.3,0,0,1-69.59,54.22,30.5,30.5,0,0,0-43.31.88,541.5,541.5,0,0,1-83.86-65,530.07,530.07,0,0,1-69.33-79.88H430.44A652,652,0,0,1,346.81,365.17ZM496.92,259.72a.84.84,0,0,1-.89.63H16a.84.84,0,0,1-.89-.63.88.88,0,0,1,.27-1.1l17.16-15.08h447l17.16,15.08A.88.88,0,0,1,496.92,259.72Z" fill="#f1664e" class="color000 svgShape"></path></svg></g></svg>