<?xml version="1.0" encoding="UTF-8"?><svg xmlns="http://www.w3.org/2000/svg" xmlns:xlink="http://www.w3.org/1999/xlink" version="1.1" id="Layer_1" x="0px" y="0px" viewBox="0 0 24 24" xml:space="preserve"><path fill="#F0F0F0" d="M22 3H2C.897 3 0 3.897 0 5v14c0 1.103.897 2 2 2h20c1.103 0 2-.897 2-2V5c0-1.103-.897-2-2-2z"/><path opacity="0.2" fill="#FFF" d="M22 3H2C.897 3 0 3.897 0 5v.25c0-1.103.897-2 2-2h20c1.103 0 2 .897 2 2V5c0-1.103-.897-2-2-2z"/><path opacity="0.1" d="M22 20.75H2c-1.103 0-2-.897-2-2V19c0 1.103.897 2 2 2h20c1.103 0 2-.897 2-2v-.25c0 1.103-.897 2-2 2z"/><path fill="#FFF" d="M16 6h5v6h-5z"/><path fill="#FFDF00" d="M17 7h3v4h-3z"/><path fill="#039BE5" d="M3 17h9v1H3z"/><path fill="#039BE5" d="M3 14h5v1H3z"/><linearGradient id="SVGID_1_" gradientUnits="userSpaceOnUse" x1="18.25" y1="8.75" x2="26.5697632" y2="17.0697632"><stop offset="0" stop-color="#000" stop-opacity="0.05"/><stop offset="1" stop-color="#000" stop-opacity="0"/></linearGradient><path fill="url(#SVGID_1_)" d="M24 19V9l-3-3v6h-5l7.82 7.82c.113-.251.18-.527.18-.82z"/><linearGradient id="SVGID_2_" gradientUnits="userSpaceOnUse" x1="-0.7076151" y1="6.0743418" x2="24.7076149" y2="17.9256592"><stop offset="0" stop-color="#FFF" stop-opacity="0.2"/><stop offset="1" stop-color="#FFF" stop-opacity="0"/></linearGradient><path fill="url(#SVGID_2_)" d="M22 3H2C.897 3 0 3.897 0 5v14c0 1.103.897 2 2 2h20c1.103 0 2-.897 2-2V5c0-1.103-.897-2-2-2z"/><metadata><rdf:RDF xmlns:rdf="http://www.w3.org/1999/02/22-rdf-syntax-ns#" xmlns:rdfs="http://www.w3.org/2000/01/rdf-schema#" xmlns:dc="http://purl.org/dc/elements/1.1/"><rdf:Description about="https://iconscout.com/legal#licenses" dc:title="newsletter,message,mail,envelope,email" dc:description="newsletter,message,mail,envelope,email" dc:publisher="Iconscout" dc:date="2017-10-04" dc:format="image/svg+xml" dc:language="en"><dc:creator><rdf:Bag><rdf:li>Those Icons</rdf:li></rdf:Bag></dc:creator></rdf:Description></rdf:RDF></metadata></svg>