<?xml version="1.0" encoding="UTF-8"?><svg xmlns="http://www.w3.org/2000/svg" xmlns:xlink="http://www.w3.org/1999/xlink" version="1.1" id="Layer_1" x="0px" y="0px" viewBox="0 0 24 24" xml:space="preserve"><path fill="#0377BD" d="M12 24c-7-2.94-9-7-9-13V3l9-3 9 3v8c0 6-2 10.06-9 13z"/><path fill="#2D98D4" d="M20.978 12c.013-.328.022-.66.022-1V3l-9-3v12h8.978z"/><path fill="#0377BE" d="M12 12v12c6.603-2.773 8.755-6.539 8.978-12H12z"/><path fill="#0377BE" d="M12 0L3 3v8c0 .34.009.672.022 1H12V0z"/><path fill="#2D98D4" d="M3.022 12c.223 5.461 2.375 9.227 8.978 12V12H3.022z"/><path opacity="0.1" fill="#010101" d="M12 23.75c-3.936-1.653-6.33-3.612-7.698-6.107C5.587 20.265 7.955 22.3 12 24c4.045-1.699 6.413-3.735 7.698-6.357-1.369 2.495-3.762 4.454-7.698 6.107z"/><path opacity="0.2" fill="#FFF" d="M12 0L3 3v.25l9-3 9 3V3l-9-3z"/><path fill="#FFF" d="M14 10V7h-4v3H7v4h3v3h4v-3h3v-4z"/><linearGradient id="SVGID_1_" gradientUnits="userSpaceOnUse" x1="7.75" y1="13.25" x2="10.75" y2="16.25"><stop offset="0" stop-color="#010101" stop-opacity="0.1"/><stop offset="1" stop-color="#010101" stop-opacity="0"/></linearGradient><path fill="url(#SVGID_1_)" d="M7 14l3 3v-3z"/><linearGradient id="SVGID_2_" gradientUnits="userSpaceOnUse" x1="13.5" y1="13.5" x2="19.0497551" y2="19.0497551"><stop offset="0" stop-color="#010101" stop-opacity="0.1"/><stop offset="1" stop-color="#010101" stop-opacity="0"/></linearGradient><path fill="url(#SVGID_2_)" d="M17 10v4h-3v3h-4l5.3 5.3c3.472-2.206 5.029-4.96 5.516-8.484L17 10z"/><linearGradient id="SVGID_3_" gradientUnits="userSpaceOnUse" x1="13.25" y1="7.75" x2="16.25" y2="10.75"><stop offset="0" stop-color="#010101" stop-opacity="0.1"/><stop offset="1" stop-color="#010101" stop-opacity="0"/></linearGradient><path fill="url(#SVGID_3_)" d="M14 10h3l-3-3z"/><linearGradient id="SVGID_4_" gradientUnits="userSpaceOnUse" x1="1.3850647" y1="6.4632401" x2="20.7097588" y2="15.474493"><stop offset="0" stop-color="#FFF" stop-opacity="0.2"/><stop offset="1" stop-color="#FFF" stop-opacity="0"/></linearGradient><path fill="url(#SVGID_4_)" d="M12 24c-7-2.94-9-7-9-13V3l9-3 9 3v8c0 6-2 10.06-9 13z"/><metadata><rdf:RDF xmlns:rdf="http://www.w3.org/1999/02/22-rdf-syntax-ns#" xmlns:rdfs="http://www.w3.org/2000/01/rdf-schema#" xmlns:dc="http://purl.org/dc/elements/1.1/"><rdf:Description about="https://iconscout.com/legal#licenses" dc:title="protect,medical,shield" dc:description="protect,medical,shield" dc:publisher="Iconscout" dc:date="2017-10-20" dc:format="image/svg+xml" dc:language="en"><dc:creator><rdf:Bag><rdf:li>Those Icons</rdf:li></rdf:Bag></dc:creator></rdf:Description></rdf:RDF></metadata></svg>