<svg xmlns="http://www.w3.org/2000/svg" data-name="Layer 1" viewBox="0 0 512 512"><polygon fill="#ed4769" points="7.5 301.53 106.5 241.11 106.5 272.99 25.85 322.21 7.56 333.38 7.5 333.29 7.5 301.53"/><polygon fill="#ed4769" points="394.34 301.53 394.34 333.29 394.28 333.38 375.99 322.21 200.92 215.36 136.5 254.68 136.5 222.8 200.92 183.48 394.34 301.53"/><polygon fill="#e4eef9" points="25.85 322.21 200.92 215.36 375.99 322.21 375.99 504.5 25.85 504.5 25.85 322.21 25.85 322.21"/><polyline fill="#ed4769" points="117.5 203.5 117.5 171.53 117.5 171.54 311 53.45 504.5 171.54 504.5 171.53 504.5 203.32 504.44 203.41 486.14 192.23 311 85.34 135.86 192.23 117.56 203.41"/><path fill="#eb304a" d="M311,85.35a30.19,30.19,0,0,0-32.11-.41l-143,87.29-18.3,11.18-.06.09v20l.06-.09,18.3-11.18L311,85.35Z"/><polygon fill="#ed4769" points="297.81 61.5 117.5 171.54 117.5 171.53 117.5 175.24 297.81 61.5"/><path fill="#eb304a" d="M504.5,171.54,311,53.45l-13.19,8L483.76,175a22.41,22.41,0,0,1,10.74,19.13v3.22l9.94,6.07.06-.09V171.53Z"/><polygon fill="#eb304a" points="136.5 222.8 136.5 254.68 106.5 272.99 106.5 241.11 136.5 222.8"/><polygon fill="#d5e0f2" points="456.5 192.21 456.5 504.5 106.5 504.5 106.5 272.99 136.5 254.68 136.5 192.21 296.5 94.52 456.5 192.21"/><polygon fill="#e4eef9" points="486.5 192.21 486.5 504.5 136.5 504.5 136.5 192.21 296.5 94.52 311.5 85.36 486.5 192.21"/><path fill="#d5e0f2" d="M311.5,85.36l-41.38,25.27,72.4,44.2a196.25,196.25,0,0,1,94,167.49V504.5h50V192.21Z"/><path fill="#f9b15e" d="M136.5,504.5h-71v-159a5,5,0,0,1,5-5h61a5,5,0,0,1,5,5Z"/><path fill="#f9a242" d="M131.5,340.5h-30a5,5,0,0,1,5,5v159h30v-159A5,5,0,0,0,131.5,340.5Z"/><path fill="#52bbe9" d="M268.5,310.5v95h-75v-95a5,5,0,0,1,5-5h65A5,5,0,0,1,268.5,310.5Z"/><path fill="#fff" d="M238.5,305.5v100a7.5,7.5,0,0,1-15,0v-100Z"/><path fill="#52bbe9" d="M429.5,310.5v95h-75v-95a5,5,0,0,1,5-5h65A5,5,0,0,1,429.5,310.5Z"/><rect width="15" height="100" x="384.5" y="305.5" fill="#fff"/><rect width="105" height="25" x="178.5" y="405.5" fill="#8b8893" rx="5"/><path fill="#787681" d="M278.5,405.5h-30a5,5,0,0,1,5,5v15a5,5,0,0,1-5,5h30a5,5,0,0,0,5-5v-15A5,5,0,0,0,278.5,405.5Z"/><rect width="105" height="25" x="339.5" y="405.5" fill="#8b8893" rx="5"/><path fill="#787681" d="M439.5,405.5h-30a5,5,0,0,1,5,5v15a5,5,0,0,1-5,5h30a5,5,0,0,0,5-5v-15A5,5,0,0,0,439.5,405.5Z"/><path fill="#8b8893" d="M429.5,199h-236a7.5,7.5,0,0,1,0-15h236a7.5,7.5,0,0,1,0,15Z"/><path fill="#8b8893" d="M412.79 259a7.5 7.5 0 0 1-7.5-7.5v-60a7.5 7.5 0 1 1 15 0v60A7.5 7.5 0 0 1 412.79 259zM372.47 259a7.5 7.5 0 0 1-7.5-7.5v-60a7.5 7.5 0 0 1 15 0v60A7.5 7.5 0 0 1 372.47 259zM332.16 259a7.5 7.5 0 0 1-7.5-7.5v-60a7.5 7.5 0 0 1 15 0v60A7.5 7.5 0 0 1 332.16 259zM291.84 259a7.5 7.5 0 0 1-7.5-7.5v-60a7.5 7.5 0 0 1 15 0v60A7.5 7.5 0 0 1 291.84 259zM251.53 259a7.5 7.5 0 0 1-7.5-7.5v-60a7.5 7.5 0 1 1 15 0v60A7.5 7.5 0 0 1 251.53 259zM211.21 259a7.5 7.5 0 0 1-7.5-7.5v-60a7.5 7.5 0 0 1 15 0v60A7.5 7.5 0 0 1 211.21 259z"/><rect width="236" height="25" x="193.5" y="251.5" fill="#ed4769" rx="5"/><path fill="#eb304a" d="M424.5,251.5h-30a5,5,0,0,1,5,5v15a5,5,0,0,1-5,5h30a5,5,0,0,0,5-5v-15A5,5,0,0,0,424.5,251.5Z"/><path fill="#787681" d="M504.5,512H7.5a7.5,7.5,0,0,1,0-15h497a7.5,7.5,0,0,1,0,15Z"/></svg>