<svg id="SvgjsSvg1001" width="288" height="288" xmlns="http://www.w3.org/2000/svg" version="1.1" xmlns:xlink="http://www.w3.org/1999/xlink" xmlns:svgjs="http://svgjs.com/svgjs"><defs id="SvgjsDefs1002"></defs><g id="SvgjsG1008" transform="matrix(0.916700005531311,0,0,0.916700005531311,11.995207786560059,11.995199203491211)"><svg xmlns="http://www.w3.org/2000/svg" enable-background="new 0 0 66 66" viewBox="0 0 66 66" width="288" height="288"><path d="M10.5701 10.4565h44.94c-.01-.26-.01-.53 0-.82.11-4.21-1.4-6.63-5.68-6.63-38.95 0-32.77-.02-34.13.01-2.96.07-4.87 1.87-5.09 4.81-.08 1.02-.06 1.74-.05 2.31C10.5701 10.2465 10.5701 10.3565 10.5701 10.4565zM9.3401 16.5065c.14.09.28.18.44.28l.09.05h46.38l.5-.34c.64-.45 1.02-1.15 1.01-1.88-.01-1.2599-.89-1.4-1.56-2.16h-46.23c-.15.16-.33.31-.57.44-.65.39-1.03 1.01-1.06 1.72C8.3201 15.3565 8.6901 16.0665 9.3401 16.5065zM62.4001 20.8265c-.11-.33-.19-.49-.23-.58-.23.02-.53.09-.64.12-2.33.55-4 .05-5.25-1.53h-46.14c-1.86 2.56-4.57 1.54-6.58 1.46-.56 2.28.55 4.59 2.6801 5.46.37.15.64.34.85.54 5.46-1.38 5.81-1.62 6.32-1.9901 3.36-2.3799 5.62-1.85 8.01.1801 3.55 3 5.42 1.68 7.58.16 1.79-1.26 4.02-2.82 6.89-.73 3.93 2.83 4.44 3.51 9.22.11 2.3-1.61 4.12-.7 6.05.26 3.32 1.65 3.66 1.36 5.8 2.01.1-.01 1.55-.06 2.01-.05.27-.3199.64-.62 1.2-.88C62.1001 24.4565 63 22.6265 62.4001 20.8265z" fill="#0f4c81" class="color000 svgShape"></path><path d="M56.3501,28.2065c-2.18-0.66-2.54-0.37-6.08-2.13c-2-0.99-2.75-1.29-4.01-0.41c-6.2,4.4-7.34,2.63-11.54-0.13
		c-1.65-1.2-2.65-0.6-4.57,0.75c-2.23,1.57-5.29,3.72-10.02-0.28c-1.65-1.39-2.91-1.94-5.56-0.06c-0.78,0.55-1.17,0.82-6.86,2.25
		c-0.02,0.43-0.08,0.88-0.16,1.39c-0.3,2.01-0.8701,5.77-0.28,13.05c0.74,9.19,3.9,20.19,14.74,20.31c7.39,0.09,14.78,0.05,22.17,0
		c3.71-0.02,6.78-1.38,9.13-4.04c7.5-8.52,5.38-25.68,5.09-30.66C57.2901,28.2765,56.7401,28.3365,56.3501,28.2065z
		 M52.8917,45.7582c-1.0762,4.3809-2.75,7.5518-5.2686,9.9785c-2.1895,2.1084-4.7139,3.2217-7.5029,3.3096
		c-3.9734,0.1243-8.0045,0.0366-11.832,0.0332c-0.593,0.1724-1.2627-0.2443-1.2627-0.9248v-0.0752c0-0.5527,0.4473-1,1-1
		c3.9777,0,8.0677,0.0924,12.0322-0.0332c2.2783-0.0703,4.3564-0.9961,6.1777-2.749c2.2344-2.1543,3.7324-5.0186,4.7148-9.0156
		c0.1309-0.5361,0.6768-0.8662,1.209-0.7324C52.6964,44.681,53.0235,45.2221,52.8917,45.7582z" fill="#0f4c81" class="color000 svgShape"></path></svg></g></svg>