<svg id="SvgjsSvg1012" width="288" height="288" xmlns="http://www.w3.org/2000/svg" version="1.1" xmlns:xlink="http://www.w3.org/1999/xlink" xmlns:svgjs="http://svgjs.com/svgjs"><defs id="SvgjsDefs1013"></defs><g id="SvgjsG1014" transform="matrix(0.916700005531311,0,0,0.916700005531311,11.995199203491211,11.995199203491211)"><svg xmlns="http://www.w3.org/2000/svg" viewBox="0 0 32 32" width="288" height="288"><path fill="#0f4c81" d="M4.6,10a1,1,0,0,1,1-1H12a1,1,0,0,1,0,2H5.6A1,1,0,0,1,4.6,10Zm23.23,7H21a1,1,0,0,0,0,2h6.83a1,1,0,0,0,0-2ZM16,13H4.17a1,1,0,1,0,0,2H16a1,1,0,0,0,0-2Zm10.4,8H19a1,1,0,0,0,0,2h7.4a1,1,0,1,0,0-2ZM8.4,21H5.6a1,1,0,0,0,0,2H8.4a1,1,0,1,0,0-2ZM11,17H4.17a1,1,0,1,0,0,2H11a1,1,0,0,0,0-2Z" class="color13e8ab svgShape"></path><path fill="#353535" d="M16,3A13,13,0,1,0,29,16,13.0144,13.0144,0,0,0,16,3Zm0,24A11,11,0,1,1,27,16,11.0125,11.0125,0,0,1,16,27Z" class="color353535 svgShape"></path></svg></g></svg>