<svg xmlns="http://www.w3.org/2000/svg" width="32" height="32" viewBox="0 0 32 32"><g transform="translate(-25 -1353.362)"><path fill="#2b4255" fill-rule="evenodd" style="line-height:normal;text-indent:0;text-align:start;text-decoration-line:none;text-decoration-style:solid;text-decoration-color:#000;text-transform:none;block-progression:tb;isolation:auto;mix-blend-mode:normal" d="M36.673828 1359.9824l-7 6 .652344.7598 7-6-.652344-.7598zM30.429688 1370.1055l-.857422.5136 6 10 .857422-.5136-6-10zM49.841797 1377.8887l-10.5 3.5.316406.9472 10.5-3.5-.316406-.9472zM43.572266 1357.2676l-.144532.9902 7.5 1.0996.144532-.9902-7.5-1.0996zM53.951172 1362.2539a.50005.50005 0 0 0-.480469.4688l-.21875 2.8515a.50005.50005 0 1 0 .996094.076l.220703-2.8516a.50005.50005 0 0 0-.517578-.5449zm-.470703 6.1016a.50005.50005 0 0 0-.478516.4687l-.25 3.25-.25 3.25a.50005.50005 0 1 0 .996094.076l.25-3.25.25-3.25a.50005.50005 0 0 0-.517578-.5449z" color="#000" font-family="sans-serif" font-weight="400" overflow="visible" white-space="normal"/><path fill="#f05542" style="line-height:normal;text-indent:0;text-align:start;text-decoration-line:none;text-decoration-style:solid;text-decoration-color:#000;text-transform:none;block-progression:tb;isolation:auto;mix-blend-mode:normal" d="m 51.5,1374.3613 c -1.37479,0 -2.5,1.1252 -2.5,2.5 0,1.3748 1.12521,2.5 2.5,2.5 1.37479,0 2.5,-1.1252 2.5,-2.5 0,-1.3748 -1.12521,-2.5 -2.5,-2.5 z m 0,1 c 0.834349,0 1.5,0.6657 1.5,1.5 0,0.8344 -0.665651,1.5 -1.5,1.5 -0.834349,0 -1.5,-0.6656 -1.5,-1.5 0,-0.8343 0.665651,-1.5 1.5,-1.5 z" color="#000" font-family="sans-serif" font-weight="400" overflow="visible" white-space="normal"/><path fill="#2b4255" fill-rule="evenodd" style="line-height:normal;text-indent:0;text-align:start;text-decoration-line:none;text-decoration-style:solid;text-decoration-color:#000;text-transform:none;block-progression:tb;isolation:auto;mix-blend-mode:normal" d="M51.646484 1362.0078l-7 7 .707032.707 7-7-.707032-.707zM45.257812 1371.9336l-.515624.8574 5 3 .515624-.8574-5-3zM31.044922 1368.8633l-.08984.9961 11 1 .08984-.9961-11-1z" color="#000" font-family="sans-serif" font-weight="400" overflow="visible" white-space="normal"/><path fill="#f05542" style="line-height:normal;text-indent:0;text-align:start;text-decoration-line:none;text-decoration-style:solid;text-decoration-color:#000;text-transform:none;block-progression:tb;isolation:auto;mix-blend-mode:normal" d="M43.5 1368.3613c-1.37479 0-2.5 1.1252-2.5 2.5 0 1.3748 1.12521 2.5 2.5 2.5 1.37479 0 2.5-1.1252 2.5-2.5 0-1.3748-1.12521-2.5-2.5-2.5zm0 1c.834349 0 1.5.6657 1.5 1.5 0 .8344-.665651 1.5-1.5 1.5-.834349 0-1.5-.6656-1.5-1.5 0-.8343.665651-1.5 1.5-1.5zM40 1354.3613c-2.203217 0-4 1.7968-4 4 0 2.2032 1.796783 4 4 4 2.203217 0 4-1.7968 4-4 0-2.2032-1.796783-4-4-4zm0 1c1.662777 0 3 1.3373 3 3 0 1.6628-1.337223 3-3 3-1.662777 0-3-1.3372-3-3 0-1.6627 1.337223-3 3-3zM37.5 1379.3613c-1.37479 0-2.5 1.1252-2.5 2.5 0 1.3748 1.12521 2.5 2.5 2.5 1.37479 0 2.5-1.1252 2.5-2.5 0-1.3748-1.12521-2.5-2.5-2.5zm0 1c.834349 0 1.5.6657 1.5 1.5 0 .8344-.665651 1.5-1.5 1.5-.834349 0-1.5-.6656-1.5-1.5 0-.8343.665651-1.5 1.5-1.5zM53 1357.3613c-1.650932 0-3 1.3491-3 3 0 1.651 1.349068 3 3 3 1.650932 0 3-1.349 3-3 0-1.6509-1.349068-3-3-3zm0 1c1.110492 0 2 .8895 2 2 0 1.1105-.889508 2-2 2-1.110492 0-2-.8895-2-2 0-1.1105.889508-2 2-2zM29 1365.3613c-1.650932 0-3 1.3491-3 3 0 1.651 1.349068 3 3 3 1.650932 0 3-1.349 3-3 0-1.6509-1.349068-3-3-3zm0 1c1.110492 0 2 .8895 2 2 0 1.1105-.889508 2-2 2-1.110492 0-2-.8895-2-2 0-1.1105.889508-2 2-2z" color="#000" font-family="sans-serif" font-weight="400" overflow="visible" white-space="normal"/></g></svg>