<svg xmlns="http://www.w3.org/2000/svg" width="32" height="32" viewBox="0 0 32 32"><g transform="translate(0 -1020.362)"><path fill="#f05542" fill-rule="evenodd" d="M5.7896546 1044.204l-2.3685345 2.3686.4737069.4737 2.3685345-2.3686-.4737069-.4737zM2.9474132 1047.0463l-.4737069.4737.4737069.4737.4737069-.4737-.4737069-.4737zM6.7370684 1045.1514l-3.7896552 3.7897.4737069.4737 3.7896551-3.7897-.4737068-.4737zM2.4737063 1049.4148l-.4737068.4737.4737068.4737.4737069-.4737-.4737069-.4737zM7.684482 1046.0989l-2.8422412 2.8422.4737069.4737 2.8422413-2.8422-.473707-.4737zM4.3685339 1049.4148l-.4737069.4737.4737069.4737.4737069-.4737-.4737069-.4737z" color="#000" font-family="sans-serif" font-weight="400" overflow="visible" white-space="normal" style="line-height:normal;text-indent:0;text-align:start;text-decoration-line:none;text-decoration-style:solid;text-decoration-color:#000;text-transform:none;block-progression:tb;isolation:auto;mix-blend-mode:normal"/><path fill="#f05542" d="m 21.671798,1033.2839 a 1.7114817,1.7114818 0 0 1 -2.420399,0 1.7114817,1.7114818 0 0 1 0,-2.4204 1.7114817,1.7114818 0 0 1 2.420399,0 1.7114817,1.7114818 0 0 1 0,2.4204 z"/><path fill="#f05542" d="m 22.79931,1029.48 -0.36873,-0.3025 -0.0843,-0.054 -0.46266,-0.2444 -0.4419,-0.232 -0.46547,0.8852 0.44197,0.2321 0.42124,0.2223 0.32871,0.268 0.38532,0.3163 0.63385,-0.7749 z m 0.0732,1.6586 0.0483,0.4986 0.0414,0.4364 -0.0442,0.4641 -0.0469,0.4972 0.99431,0.097 0.0484,-0.4985 0.0484,-0.5124 -6e-5,-0.094 -0.0456,-0.4847 -0.0483,-0.4986 z m -3.31735,-2.4362 -0.36596,0.1091 -0.0912,0.036 -0.52202,0.2763 -0.0829,0.055 -0.0235,0.018 -0.38671,0.3148 0.63253,0.7762 0.36739,-0.301 0.43362,-0.2293 0.32183,-0.095 0.47917,-0.1423 -0.28311,-0.9598 z m 1.9791,5.6196 -0.12983,0.069 -0.45989,0.1368 -0.17679,0.016 -0.49852,0.048 0.0953,0.9958 0.49853,-0.048 0.21957,-0.021 0.0953,-0.018 0.55519,-0.1657 0.0912,-0.036 0.17539,-0.092 0.4433,-0.2334 -0.46544,-0.8853 z m -4.25645,-3.7869 -0.14223,0.4793 -0.1008,0.3439 -0.0194,0.094 -0.0552,0.5745 -10e-6,0.094 0.007,0.065 0.0483,0.4986 0.99574,-0.095 -0.0497,-0.4972 -0.001,-0.015 0.0469,-0.4778 0.087,-0.2997 0.14225,-0.4793 z m 1.85476,3.6529 -0.0442,-0.025 -0.39364,-0.3218 -0.15186,-0.185 -0.31768,-0.3868 -0.77339,0.6326 0.31488,0.3867 0.18371,0.2251 0.0704,0.07 0.47228,0.3839 0.0829,0.055 0.0897,0.048 0.44339,0.2335 0.4654,-0.8853 z" color="#000" font-family="sans-serif" font-weight="400" overflow="visible" white-space="normal" style="line-height:normal;text-indent:0;text-align:start;text-decoration-line:none;text-decoration-style:solid;text-decoration-color:#000;text-transform:none;block-progression:tb;isolation:auto;mix-blend-mode:normal"/><path fill="#2b4255" fill-rule="evenodd" style="line-height:normal;text-indent:0;text-align:start;text-decoration-line:none;text-decoration-style:solid;text-decoration-color:#000;text-transform:none;block-progression:tb;isolation:auto;mix-blend-mode:normal" d="M11.722656 1030.2148c-1.708943-.2106-3.5698896.4051-5.2988279 1.6153-2.305251 1.6135-4.4382788 4.2931-5.88281248 7.6738a.50005.50005 0 0 0 .76562498.5918c2.0923861-1.623 3.7286779-2.4854 4.8808594-2.6816 1.1521815-.1963 1.7984855.1301 2.3632812 1.1132a.50005.50005 0 0 0 .8925782-.049c1.1567166-2.6693 2.5551936-5.0031 4.0996096-7.0176a.50005.50005 0 0 0-.171875-.7519c-.525612-.2628-1.07879-.4239-1.648438-.4942zm-1.601562 1.0411c.781018-.1412 1.485193.05 2.175781.2695-1.28307 1.7606-2.4540098 3.7355-3.4628906 5.9453-.7247338-.7726-1.65552-1.2404-2.8144532-1.043-1.0022906.1707-2.1930048.8025-3.4960937 1.6446 1.2868486-2.2948 2.8109565-4.2575 4.4746094-5.4219 1.0574657-.7402 2.1169569-1.2126 3.1230471-1.3945zM21.210938 1038.7168a.50005.50005 0 0 0-.308594.1035c-2.014417 1.5445-4.346313 2.9448-7.015625 4.1016a.50005.50005 0 0 0-.05078.8906c.983159.5648 1.31148 1.2111 1.115234 2.3633-.196246 1.1522-1.060638 2.7884-2.683594 4.8808a.50005.50005 0 0 0 .591797.7676c3.380663-1.4445 6.06032-3.5795 7.673828-5.8847 1.613508-2.3053 2.172317-4.8448 1.121094-6.9473a.50005.50005 0 0 0-.443359-.2754zm-.373047 1.3496c.502349 1.5802.189719 3.4205-1.125 5.2988-1.164834 1.6643-3.125986 3.1895-5.421875 4.4766.842546-1.3036 1.473759-2.4954 1.644531-3.498.19743-1.1592-.27003-2.0897-1.042969-2.8145 2.209374-1.0087 4.184929-2.1801 5.945313-3.4629zM7.4257812 1039.8223l-.3183593.5859-1.0917969 2.002 4.011719 3.9746 2.498047-1.4649-5.0996098-5.0976zm.2382813 1.6523l3.2382815 3.2383-.716797.4199-2.9316408-2.9043.4101563-.7539zM22.470703 1023.3359a.50005.50005 0 0 0-.349609.8594l6.175781 6.1914a.50005.50005 0 1 0 .708984-.7051l-6.177734-6.1933a.50005.50005 0 0 0-.357422-.1524z" color="#000" font-family="sans-serif" font-weight="400" overflow="visible" white-space="normal"/><path fill="#2b4255" fill-rule="evenodd" style="line-height:normal;text-indent:0;text-align:start;text-decoration-line:none;text-decoration-style:solid;text-decoration-color:#000;text-transform:none;block-progression:tb;isolation:auto;mix-blend-mode:normal" d="m 30.5,1021.3613 c -2.879654,0 -5.523751,0.6022 -7.919922,1.6192 a 0.50005,0.50005 0 0 0 -0.04883,0.025 l -0.722656,0.4062 c -6.576627,3.3348 -11.152695,9.4991 -13.5351565,15.2852 a 0.50005,0.50005 0 0 0 0.109375,0.5429 l 4.7363285,4.7383 a 0.50005,0.50005 0 0 0 0.544921,0.1074 c 3.57892,-1.4737 7.335872,-3.7852 10.476563,-6.8925 a 0.50005,0.50005 0 1 0 -0.703125,-0.711 c -2.950874,2.9196 -6.488107,5.0994 -9.869141,6.5313 l -4.2226559,-4.2246 c 2.3384829,-5.5154 6.7232369,-11.3453 12.9140629,-14.4844 a 0.50005,0.50005 0 0 0 0.01953,-0.01 l 0.705078,-0.3965 c 2.119166,-0.8977 4.449362,-1.4067 6.960937,-1.4804 -0.07013,2.5241 -0.553691,4.8971 -1.451171,7.0136 -7.89e-4,0 -0.0012,0 -0.002,0.01 l -0.335938,0.6641 c -0.875988,1.7273 -1.968891,3.3153 -3.208984,4.7597 a 0.50071664,0.50071664 0 1 0 0.759765,0.6524 c 1.287599,-1.4998 2.425988,-3.1548 3.341797,-4.961 l 0.34961,-0.6933 a 0.50005,0.50005 0 0 0 0.01367,-0.031 c 1.019411,-2.4018 1.587881,-5.0908 1.587891,-7.9668 a 0.50005,0.50005 0 0 0 -0.5,-0.5 z" color="#000" font-family="sans-serif" font-weight="400" overflow="visible" white-space="normal"/></g></svg>