<svg xmlns="http://www.w3.org/2000/svg" width="32" height="32" viewBox="0 0 32 32"><g transform="translate(0 -1020.362)"><path fill="#2b4255" style="line-height:normal;text-indent:0;text-align:start;text-decoration-line:none;text-decoration-style:solid;text-decoration-color:#000;text-transform:none;block-progression:tb;isolation:auto;mix-blend-mode:normal" d="m 16,1028.7129 c -8.2809892,0 -15,6.7898 -15,15.1445 a 0.49833366,0.49833366 0 1 0 0.9960938,0 c 0,-7.8214 6.2668102,-14.1465 14.0039062,-14.1465 0.967151,0 1.911161,0.099 2.822266,0.2871 0.911137,0.1884 1.789616,0.4647 2.626953,0.8223 a 0.49833366,0.49833366 0 1 0 0.390625,-0.916 c -0.89763,-0.3834 -1.839498,-0.6809 -2.816406,-0.8828 -0.976942,-0.2019 -1.988331,-0.3086 -3.023438,-0.3086 z m 8.109375,2.498 a 0.49833366,0.49833366 0 0 0 -0.28125,0.9141 c 0.745024,0.5082 1.438517,1.0864 2.072266,1.7266 0.633737,0.6398 1.207409,1.341 1.710937,2.0937 0.50355,0.7528 0.936607,1.5581 1.291016,2.4043 0.354414,0.8462 0.629786,1.7334 0.816406,2.6543 0.186625,0.9212 0.285156,1.8759 0.285156,2.8535 a 0.49833366,0.49833366 0 1 0 0.996094,0 c 0,-1.0443 -0.104971,-2.065 -0.304688,-3.0508 -0.199724,-0.9855 -0.493639,-1.9359 -0.873046,-2.8418 -0.379409,-0.9059 -0.843929,-1.7666 -1.382813,-2.5722 -0.538886,-0.8055 -1.153625,-1.5573 -1.832031,-2.2422 -0.678396,-0.6853 -1.420785,-1.3053 -2.21875,-1.8496 a 0.49833366,0.49833366 0 0 0 -0.279297,-0.09 z" color="#000" font-family="sans-serif" font-weight="400" overflow="visible" white-space="normal"/><path fill="#f05542" style="line-height:normal;text-indent:0;text-align:start;text-decoration-line:none;text-decoration-style:solid;text-decoration-color:#000;text-transform:none;block-progression:tb;isolation:auto;mix-blend-mode:normal" d="m 16.011719,1042.3555 c -1.104665,0 -2.011739,0.9051 -2.011719,2.0097 l 1,0 c -10e-6,-0.5642 0.447501,-1.0097 1.011719,-1.0097 0.564217,0 1.009776,0.4455 1.009765,1.0097 l 1,0 c 2e-5,-1.1046 -0.9051,-2.0097 -2.009765,-2.0097 z" color="#000" font-family="sans-serif" font-weight="400" overflow="visible" white-space="normal"/><path fill="#f05542" fill-rule="evenodd" style="line-height:normal;text-indent:0;text-align:start;text-decoration-line:none;text-decoration-style:solid;text-decoration-color:#000;text-transform:none;block-progression:tb;isolation:auto;mix-blend-mode:normal" d="m 16.029297,1035.3047 a 0.50005,0.50005 0 0 0 -0.458985,0.4277 l -1.005859,7.0508 a 0.50022498,0.50022498 0 0 0 0.990235,0.1426 l 0.511718,-3.584 0.0078,0.059 0.251953,1.7617 0.251953,1.7637 a 0.50005,0.50005 0 0 0 0.388672,0.416 0.50005,0.50005 0 0 0 0.05078,0.01 0.50005,0.50005 0 0 0 0.04102,0 0.50005,0.50005 0 0 0 0.0078,0 0.50005,0.50005 0 0 0 0.0078,0 0.50005,0.50005 0 0 0 0.482422,-0.6563 0.50005,0.50005 0 0 0 0,-0 l -0.240235,-1.6758 -0.251953,-1.7637 -0.251953,-1.7617 -0.251953,-1.7637 a 0.50005,0.50005 0 0 0 -0.53125,-0.4277 z" color="#000" font-family="sans-serif" font-weight="400" overflow="visible" white-space="normal"/><path fill="#2b4255" fill-rule="evenodd" style="line-height:normal;text-indent:0;text-align:start;text-decoration-line:none;text-decoration-style:solid;text-decoration-color:#000;text-transform:none;block-progression:tb;isolation:auto;mix-blend-mode:normal" d="M2.9765625 1043.3613l0 1 2.015625 0 0-1-2.015625 0zM3.5527344 1040.5801l-.2597656.9668 1.9472656.5215.2578125-.9668-1.9453125-.5215zM4.9804688 1037.4707l-.5.8672 1.7460937 1.0078.5-.8672-1.7460937-1.0078zM7.1660156 1034.832l-.7070312.7071 1.4238281 1.4238.7070313-.707-1.4238282-1.4239zM9.9570312 1032.8418l-.8652343.5 1.0058591 1.7461.867188-.5-1.0078128-1.7461zM13.166016 1031.5879l-.966797.2598.521484 1.9453.966797-.2598-.521484-1.9453zM15.572266 1031.2715l0 2.0137 1 0 0-2.0137-1 0zM18.978516 1031.5879l-.521485 1.9453.964844.2598.521484-1.9453-.964843-.2598zM22.185547 1032.8066l-1.007813 1.7442.867188.5 1.007812-1.7442-.867187-.5zM24.976562 1034.7676l-1.423828 1.4258.707032.707 1.423828-1.4238-.707032-.709zM27.162109 1037.3652l-1.74414 1.0078.5.8653 1.74414-1.0059-.5-.8672zM28.589844 1040.3477l-1.945313.5214.259766.9668 1.945312-.5214-.259765-.9668zM27.152344 1043.3613l0 1 2.013672 0 0-1-2.013672 0z" color="#000" font-family="sans-serif" font-weight="400" overflow="visible" white-space="normal"/></g></svg>