<?xml version="1.0" encoding="UTF-8" standalone="no"?>
<svg xmlns="http://www.w3.org/2000/svg" viewBox="0 0 24 24"><title>Contact Book</title><g id="Contact_Book" data-name="Contact Book"><path d="M20,0H5A2,2,0,0,0,3,2V4H2.5a.5.5,0,0,0,0,1h2a.5.5,0,0,1,0,1H3V9H2.5a.5.5,0,0,0,0,1h2a.5.5,0,0,1,0,1H3v3H2.5a.5.5,0,0,0,0,1h2a.5.5,0,0,1,0,1H3v3H2.5a.5.5,0,0,0,0,1h2a.5.5,0,0,1,0,1H3v1a2,2,0,0,0,2,2H20a2,2,0,0,0,2-2V2A2,2,0,0,0,20,0ZM13,7a2.5,2.5,0,1,1-2.5,2.5A2.5,2.5,0,0,1,13,7Zm4.5,8.84A1.12,1.12,0,0,1,16.43,17H9.57A1.12,1.12,0,0,1,8.5,15.84v-.32a2.3,2.3,0,0,1,1.08-2,6.94,6.94,0,0,1,3.42-1,6.94,6.94,0,0,1,3.42,1,2.3,2.3,0,0,1,1.08,2Z" style="fill:#303c42"/></g>
	<metadata>
		<rdf:RDF xmlns:rdf="http://www.w3.org/1999/02/22-rdf-syntax-ns#" xmlns:rdfs="http://www.w3.org/2000/01/rdf-schema#" xmlns:dc="http://purl.org/dc/elements/1.1/">
			<rdf:Description about="https://iconscout.com/legal#licenses" dc:title="phone; office; notebook; book; contact; address; 2" dc:description="phone; office; notebook; book; contact; address; 2" dc:publisher="Iconscout" dc:date="2017-02-21" dc:format="image/svg+xml" dc:language="en">
				<dc:creator>
					<rdf:Bag>
						<rdf:li>Alpár - Etele Méder</rdf:li>
					</rdf:Bag>
				</dc:creator>
			</rdf:Description>
		</rdf:RDF>
    </metadata></svg>
