<svg id="SvgjsSvg1029" width="288" height="288" xmlns="http://www.w3.org/2000/svg" version="1.1" xmlns:xlink="http://www.w3.org/1999/xlink" xmlns:svgjs="http://svgjs.com/svgjs"><defs id="SvgjsDefs1030"></defs><g id="SvgjsG1031" transform="matrix(0.916700005531311,0,0,0.916700005531311,11.993769645690918,11.66368579864502)"><svg xmlns="http://www.w3.org/2000/svg" width="288" height="288" viewBox="0 0 32 32"><g transform="translate(0 -1020.362)" fill="#ffffff" class="color000 svgShape"><path fill="#f05542" style="line-height:normal;text-indent:0;text-align:start;text-decoration-line:none;text-decoration-style:solid;text-decoration-color:#000;text-transform:none;block-progression:tb;isolation:auto;mix-blend-mode:normal" d="m 15.994141,1025.3613 c -3.307876,0 -6.0000004,2.692 -6.0000004,6 0,3.3081 2.6921464,6.002 6.0000004,6.002 3.307789,0 6,-2.6939 6,-6.002 0,-3.308 -2.692189,-6 -6,-6 z m -0.5,1.1016 0,1.6484 -3.232422,0 c 0.807971,-0.9283 1.937669,-1.514 3.232422,-1.6484 z m 1,0 c 1.294515,0.1345 2.42261,0.7203 3.230468,1.6484 l -3.230468,0 0,-1.6484 z m -4.90625,2.6484 3.90625,0 0,1.75 -4.400391,0 c 0.06525,-0.6282 0.219138,-1.2134 0.494141,-1.75 z m 4.90625,0 3.904297,0 c 0.274957,0.5365 0.428868,1.1219 0.49414,1.75 l -4.398437,0 0,-1.75 z m -5.400391,2.75 4.400391,0 0,1.75 -3.90625,0 c -0.274654,-0.5363 -0.428998,-1.1221 -0.494141,-1.75 z m 5.400391,0 4.398437,0 c -0.06517,0.6278 -0.219531,1.2138 -0.49414,1.75 l -3.904297,0 0,-1.75 z m -4.234375,2.75 3.234375,0 0,1.6504 c -1.295713,-0.1345 -2.426311,-0.721 -3.234375,-1.6504 z m 4.234375,0 3.232421,0 c -0.807952,0.9293 -1.936946,1.5158 -3.232421,1.6504 l 0,-1.6504 z" color="#000" font-family="sans-serif" font-weight="400" overflow="visible" white-space="normal" class="colorf05542 svgShape"></path><path fill="#f05542" fill-rule="evenodd" style="line-height:normal;text-indent:0;text-align:start;text-decoration-line:none;text-decoration-style:solid;text-decoration-color:#000;text-transform:none;block-progression:tb;isolation:auto;mix-blend-mode:normal" d="M13.638672 1026.0547c-1.430471 3.5225-1.670333 6.9137-.107422 10.5781l.919922-.3926c-1.463489-3.4313-1.249828-6.4539.113281-9.8105l-.925781-.375zM18.306641 1026.0547l-.925782.375c1.363119 3.3566 1.576771 6.3792.113282 9.8105l.919921.3926c1.562911-3.6644 1.32306-7.0556-.107421-10.5781z" color="#000" font-family="sans-serif" font-weight="400" overflow="visible" white-space="normal" class="colorf05542 svgShape"></path><path fill="#f05542" style="line-height:normal;text-indent:0;text-align:start;text-decoration-line:none;text-decoration-style:solid;text-decoration-color:#000;text-transform:none;block-progression:tb;isolation:auto;mix-blend-mode:normal" d="m 15.033203,1020.4961 -0.04297,0 -0.708984,0.094 0.130859,0.9921 0.6875,-0.092 0.263672,-0.012 -0.04492,-1 z m 2.238281,1.0469 0.427735,0.055 0.0039,0 0.509766,0.1113 0.21289,-0.9766 -0.513672,-0.1133 -0.04102,-0.01 -0.470703,-0.062 z m -5.861328,-0.088 -0.03711,0.018 -0.109375,0.057 0.457031,0.8887 0.0957,-0.049 0.785156,-0.3222 -0.378906,-0.9258 z m 8.617188,0.8496 0.125,0.051 0.734375,0.373 0.453125,-0.8926 -0.751953,-0.3808 -0.03906,-0.018 -0.144531,-0.061 z m -10.9628909,0.6094 -0.03125,0.025 -0.359375,0.3183 0.6621094,0.7481 0.328125,-0.2911 0.00195,0 0.4140625,-0.3106 -0.5976562,-0.8007 z m 13.3593749,0.8808 0.501953,0.4414 0.0078,0.01 0.193359,0.2032 0.720703,-0.6934 -0.222656,-0.2324 -0.03125,-0.027 -0.509766,-0.4492 z m -15.2695311,1.1133 -0.025391,0.035 -0.4667968,0.6933 0.828125,0.5586 0.4433594,-0.6582 0.00977,-0.014 0.09375,-0.1152 -0.7792969,-0.627 z m 17.1777341,1.0234 0.169922,0.252 0.320313,0.5684 0.873046,-0.4903 -0.328124,-0.584 -0.02344,-0.035 -0.185547,-0.2735 z m -18.8613279,2.3243 -0.011719,0.041 -0.060547,0.2363 0.96875,0.2461 0.056641,-0.2227 0.2402344,-0.6855 -0.9433594,-0.3301 z m 20.1777349,0.2265 -0.08789,0.024 0.002,0.01 0.222656,0.8574 0.0039,0.025 0.002,0 0.002,0 0.04883,-0.014 0.933594,-0.1543 -0.0059,-0.039 -0.0098,-0.043 -0.230469,-0.8945 -0.01172,-0.041 -0.01367,-0.035 z M 5,1031.0977 l -0.00195,0.043 0.00586,0.4864 1,-0.012 -0.00586,-0.4687 0.037109,-0.4863 -0.9960937,-0.076 z m 20.994141,0.8711 -0.02734,0.2832 0.996094,0.094 0.02734,-0.3027 0.002,-0.043 0.0059,-0.6953 -1,-0.01 z m -20.7636722,1.7265 0.035156,0.1934 0.00977,0.041 0.2109375,0.7754 0.9648438,-0.2637 -0.2050781,-0.7519 -0.033203,-0.1758 z m 20.3203122,0.7461 -0.0039,0.014 -0.212891,0.5879 0.939454,0.3398 0.21875,-0.6016 0.01172,-0.041 0.09375,-0.3457 -0.964844,-0.2617 z m -19.2421872,2.2207 0.3554687,0.625 0.023437,0.035 0.1582031,0.2304 0.8242188,-0.5664 -0.1503907,-0.2187 -0.00781,-0.012 -0.3339844,-0.5899 z m 17.7304682,0.7539 -0.0098,0.012 -0.06641,0.082 0.77539,0.6308 0.07617,-0.094 0.02539,-0.033 0.496094,-0.7285 -0.828126,-0.5625 z m -15.8808589,1.752 0.2578125,0.2656 0.03125,0.029 0.4746094,0.4121 0.65625,-0.7539 -0.4433594,-0.3848 -0.00195,0 L 8.875,1038.4707 Z m 14.1289059,0.074 -0.01172,0.01 -0.355469,0.2617 0.591797,0.8047 0.367187,-0.2696 0.0332,-0.027 0.410157,-0.3574 -0.660157,-0.752 z m -11.654297,1.8203 0.06641,0.039 0.03711,0.021 0.830078,0.4063 0.439453,-0.8984 -0.814453,-0.3985 -0.04101,-0.027 z m 9.396485,-0.4473 0.443359,0.8965 0.251953,-0.125 -0.445312,-0.8945 z" color="#000" font-family="sans-serif" font-weight="400" overflow="visible" white-space="normal" class="colorf05542 svgShape"></path><path fill="#ffffff" fill-rule="evenodd" style="line-height:normal;text-indent:0;text-align:start;text-decoration-line:none;text-decoration-style:solid;text-decoration-color:#000;text-transform:none;block-progression:tb;isolation:auto;mix-blend-mode:normal" d="M13.494141 1050.3613a.50005.50005 0 1 0 0 1l5 0a.50005.50005 0 1 0 0-1l-5 0zM12.994141 1046.3613l0 1 5 0 0-1-5 0z" color="#000" font-family="sans-serif" font-weight="400" overflow="visible" white-space="normal" class="color2b4255 svgShape"></path><path style="line-height:normal;text-indent:0;text-align:start;text-decoration-line:none;text-decoration-style:solid;text-decoration-color:#000;text-transform:none;block-progression:tb;isolation:auto;mix-blend-mode:normal" d="m 12.59375,1044.2988 a 0.50005006,0.50005006 0 0 0 -0.09961,0.01 0.50005006,0.50005006 0 0 0 -0.400391,0.5742 l 0,3.9785 a 0.50005006,0.50005006 0 0 0 0.5,0.5 l 6.798828,0 a 0.50005006,0.50005006 0 0 0 0.5,-0.5 l 0,-3.9707 a 0.50005006,0.50005006 0 0 0 -0.464844,-0.5898 0.50005006,0.50005006 0 0 0 -0.03516,0 l -6.798828,0 z m 0.5,1 5.798828,0 0,3.0625 -5.798828,0 0,-3.0625 z" color="#000" font-family="sans-serif" font-weight="400" overflow="visible" white-space="normal" fill="#ffffff" class="color000 svgShape"></path><path fill="#ffffff" style="line-height:normal;text-indent:0;text-align:start;text-decoration-line:none;text-decoration-style:solid;text-decoration-color:#000;text-transform:none;block-progression:tb;isolation:auto;mix-blend-mode:normal" d="m 15.994141,1022.3613 c -4.962661,0 -9.0000004,4.0056 -9.0000004,8.9375 0,2.6992 1.3693219,4.5123 2.6347656,6.3965 1.2654438,1.8842 2.4648438,3.8545 2.4648438,7.1035 l 0,4.0625 a 0.50005006,0.50005006 0 0 0 0.5,0.5 l 6.798828,0 a 0.50005006,0.50005006 0 0 0 0.5,-0.5 l 0,-4.0273 a 0.50005006,0.50005006 0 0 0 0,-0.035 c 0,-1.6245 0.3047,-2.9243 0.761719,-4.0586 0.457004,-1.1341 1.072335,-2.1027 1.705078,-3.0449 0.24382,-0.3631 0.488724,-0.7214 0.728516,-1.084 a 0.500252,0.500252 0 0 0 -0.833985,-0.5527 c -0.23336,0.3528 -0.477029,0.7114 -0.724609,1.0801 -0.642257,0.9564 -1.303488,1.9895 -1.802735,3.2285 -0.442912,1.0992 -0.675305,2.4391 -0.740234,3.9316 l -2.492187,0 0,-5.4648 a 0.50005006,0.50005006 0 1 0 -1,0 l 0,5.4648 -2.494141,0 c -0.139644,-3.1724 -1.329002,-5.3555 -2.541016,-7.1601 -1.2845559,-1.9127 -2.4648434,-3.4765 -2.4648434,-5.8399 0,-4.3874 3.5738204,-7.9375 8.0000004,-7.9375 4.426186,0 8,3.55 8,7.9375 0,1.1818 -0.291992,2.1496 -0.746094,3.0762 a 0.5005055,0.5005055 0 0 0 0.898437,0.4414 c 0.502148,-1.0246 0.847657,-2.1679 0.847657,-3.5176 0,-4.932 -4.037347,-8.9375 -9,-8.9375 z m -2.900391,22.9375 2.808594,0 a 0.50005006,0.50005006 0 0 0 0.171875,0 l 2.818359,0 0,3.0625 -5.798828,0 0,-3.0625 z" color="#000" font-family="sans-serif" font-weight="400" overflow="visible" white-space="normal" class="color2b4255 svgShape"></path></g></svg></g></svg>