<svg xmlns="http://www.w3.org/2000/svg" width="32" height="32" viewBox="0 0 32 32"><g transform="translate(0 -1020.362)"><path style="line-height:normal;text-indent:0;text-align:start;text-decoration-line:none;text-decoration-style:solid;text-decoration-color:#000;text-transform:none;block-progression:tb;isolation:auto;mix-blend-mode:normal" fill="#2b4255" d="m 23.40625,1041.3613 -22.90625,0 c -0.27613094,0 -0.499972391047,0.2239 -0.5,0.5 0,1.4086 1.2596669,2.5 2.7402344,2.5 l 20.6972656,0 m 0,-1 -20.6972656,0 c -0.7636281,0 -1.2588539,-0.4507 -1.5058594,-1 l 22.265625,0" color="#000" font-family="sans-serif" font-weight="400" overflow="visible" white-space="normal"/><path style="line-height:normal;text-indent:0;text-align:start;text-decoration-line:none;text-decoration-style:solid;text-decoration-color:#000;text-transform:none;block-progression:tb;isolation:auto;mix-blend-mode:normal" fill="#2b4255" d="m 23.5625,1041.3613 -20.5625,0 0,-3.25 0,-0.75 c 0.00956,-0.6762 -1.0095626,-0.6762 -1,0 l 0,0.75 0,3.75 c 2.76e-5,0.2761 0.2238691,0.5 0.5,0.5 l 21.0625,0 m 3.4375,-9.9307 0,-5.5693 c -2.8e-5,-0.2761 -0.223869,-0.5 -0.5,-0.5 l -7.404297,0 -9.126953,0 -7.46875,0 c -0.2761309,0 -0.4999724,0.2239 -0.5,0.5 l 0,3.75 0,1.75 c -0.00956,0.6762 1.0095626,0.6762 1,0 l 0,-1.75 0,-3.25 6.96875,0 9.126953,0 6.904297,0 0,5.0693 m -23.50781,1.4249 c -0.2753496,0 -0.4953903,0.2304 -0.49219,0.5058 l 0,1 c -0.00956,0.6762 1.0095626,0.6762 1,0 l 0,-1 c 0.00327,-0.2815 -0.2263476,-0.5102 -0.50781,-0.5058 z" color="#000" font-family="sans-serif" font-weight="400" overflow="visible" white-space="normal"/><path style="line-height:normal;text-indent:0;text-align:start;text-decoration-line:none;text-decoration-style:solid;text-decoration-color:#000;text-transform:none;block-progression:tb;isolation:auto;mix-blend-mode:normal" fill="#f05542" d="m 23.5,1032.3613 a 0.50005,0.50005 0 0 0 -0.5,0.5 l 0,3.8262 a 0.50005,0.50005 0 1 0 1,0 l 0,-3.3262 7,0 0,12 -7,0 0,-6.373 a 0.50005,0.50005 0 1 0 -1,0 l 0,6.873 a 0.50005,0.50005 0 0 0 0.5,0.5 l 8,0 a 0.50005,0.50005 0 0 0 0.5,-0.5 l 0,-13 a 0.50005,0.50005 0 0 0 -0.5,-0.5 l -8,0 z" color="#000" font-family="sans-serif" font-weight="400" overflow="visible" white-space="normal"/><path style="line-height:normal;text-indent:0;text-align:start;text-decoration-line:none;text-decoration-style:solid;text-decoration-color:#000;text-transform:none;block-progression:tb;isolation:auto;mix-blend-mode:normal" fill="#f05542" fill-rule="evenodd" d="M24 1043.3613l0 1 7 0 0-1-7 0zM24 1034.3613l0 1 7 0 0-1-7 0z" color="#000" font-family="sans-serif" font-weight="400" overflow="visible" white-space="normal"/><path style="line-height:normal;text-indent:0;text-align:start;text-decoration-line:none;text-decoration-style:solid;text-decoration-color:#000;text-transform:none;block-progression:tb;isolation:auto;mix-blend-mode:normal" fill="#2b4255" fill-rule="evenodd" d="M18.507812 1036.3613a.50005.50005 0 1 0 0 1l7 0a.50005.50005 0 1 0 0-1l-7 0zM20.492188 1038.3613a.50005.50005 0 1 0 0 1l7 0a.50005.50005 0 1 0 0-1l-7 0z" color="#000" font-family="sans-serif" font-weight="400" overflow="visible" white-space="normal"/><path style="line-height:normal;text-indent:0;text-align:start;text-decoration-line:none;text-decoration-style:solid;text-decoration-color:#000;text-transform:none;block-progression:tb;isolation:auto;mix-blend-mode:normal" fill="#2b4255" fill-rule="evenodd" d="M20.484375 1034.3516a.50005.50005 0 0 0-.34375.1523l-2 2a.50005.50005 0 1 0 .707031.707l2-2a.50005.50005 0 0 0-.363281-.8593zM27.484375 1038.3633a.50005.50005 0 0 0-.34375.1504l-2 2a.50005.50005 0 1 0 .707031.707l2-2a.50005.50005 0 0 0-.363281-.8574z" color="#000" font-family="sans-serif" font-weight="400" overflow="visible" white-space="normal"/></g></svg>