<svg id="SvgjsSvg1013" width="288" height="288" xmlns="http://www.w3.org/2000/svg" version="1.1" xmlns:xlink="http://www.w3.org/1999/xlink" xmlns:svgjs="http://svgjs.com/svgjs"><defs id="SvgjsDefs1014"></defs><g id="SvgjsG1015" transform="matrix(0.916700005531311,0,0,0.916700005531311,11.993815422058105,11.995199203491211)"><svg xmlns="http://www.w3.org/2000/svg" viewBox="0 0 32 32" width="288" height="288"><g data-name="6" fill="#000000" class="color000 svgShape"><path fill="#ffde57" d="M26.46,18a1,1,0,1,0-2,.3A1.92,1.92,0,0,1,24,19.86,7.94,7.94,0,0,1,19,22c-1,0-1.33-2.1-1.34-2.12a1,1,0,0,0-2,.22c.13,1.21.77,3.13,2.32,3.72V29a1,1,0,0,0,2,0V23.9a9.76,9.76,0,0,0,5.47-2.74A3.87,3.87,0,0,0,26.46,18Z" class="colorred svgShape"></path><path d="M16,2C4.33,2,2.05,11.69,2,11.78A1.64,1.64,0,0,0,2,12c0,4.17,3.54,5.65,6,5.94a2.72,2.72,0,0,0,.42.88C9.52,20.29,12,21,16,21c8,0,14-3,14-7C30,9.85,27.07,2,16,2Zm0,17c-4,0-5.37-.78-5.79-1.21,2.18-.45,7.22-1.8,10.5-5.08a1,1,0,0,0-1.42-1.42C15.77,14.81,9.62,15.89,8.93,16S4.09,15.77,4,12.12C4.25,11.19,6.52,4,16,4c11.86,0,12,9.59,12,10C28,16.1,23.83,19,16,19Z" fill="#000000" class="color000 svgShape"></path></g></svg></g></svg>