<svg id="SvgjsSvg1040" width="288" height="288" xmlns="http://www.w3.org/2000/svg" version="1.1" xmlns:xlink="http://www.w3.org/1999/xlink" xmlns:svgjs="http://svgjs.com/svgjs"><defs id="SvgjsDefs1041"></defs><g id="SvgjsG1042" transform="matrix(0.916700005531311,0,0,0.916700005531311,12.370758056640625,12.40388298034668)"><svg xmlns="http://www.w3.org/2000/svg" width="288" height="288" viewBox="0 0 32 32"><g transform="translate(0 -1020.362)" fill="#ffffff" class="color000 svgShape"><path fill="#ffffff" style="line-height:normal;text-indent:0;text-align:start;text-decoration-line:none;text-decoration-style:solid;text-decoration-color:#000;text-transform:none;block-progression:tb;isolation:auto;mix-blend-mode:normal" d="M 4.484375,1038.3027 A 0.50005,0.50005 0 0 0 4,1038.8008 l 0,1.5254 a 0.50005,0.50005 0 1 0 1,0 l 0,-0.709 5,2.541 0,4.9785 -5,-2.541 0,-0.076 0,-0.3808 0,-0.3809 a 0.50005,0.50005 0 1 0 -1,0 l 0,0.3809 0,0.3808 0,0.3828 a 0.50005,0.50005 0 0 0 0.2734375,0.4454 l 6.0000005,3.0507 A 0.50005,0.50005 0 0 0 11,1047.9512 l 0,-6.0996 a 0.50005,0.50005 0 0 0 -0.273438,-0.4454 l -5.9999995,-3.0507 a 0.50005,0.50005 0 0 0 -0.2421875,-0.053 z m 0.00781,3.0411 A 0.50005,0.50005 0 0 0 4,1041.8516 l 0,0.3808 a 0.50005,0.50005 0 1 0 1,0 l 0,-0.3808 a 0.50005,0.50005 0 0 0 -0.5078125,-0.5078 z" color="#000" font-family="sans-serif" font-weight="400" overflow="visible" white-space="normal" class="color2b4255 svgShape"></path><path fill="#ffffff" style="line-height:normal;text-indent:0;text-align:start;text-decoration-line:none;text-decoration-style:solid;text-decoration-color:#000;text-transform:none;block-progression:tb;isolation:auto;mix-blend-mode:normal" d="M 16.492188,1038.2949 A 0.50005,0.50005 0 0 0 16,1038.8008 l 0,3.0508 0,2.7441 -5,2.541 0,-5.2851 a 0.50005,0.50005 0 1 0 -1,0 l 0,6.0996 a 0.50005,0.50005 0 0 0 0.726562,0.4472 l 6,-3.0507 A 0.50005,0.50005 0 0 0 17,1044.9023 l 0,-3.0507 0,-3.0508 a 0.50005,0.50005 0 0 0 -0.507812,-0.5059 z" color="#000" font-family="sans-serif" font-weight="400" overflow="visible" white-space="normal" class="color2b4255 svgShape"></path><path fill="#ffffff" fill-rule="evenodd" style="line-height:normal;text-indent:0;text-align:start;text-decoration-line:none;text-decoration-style:solid;text-decoration-color:#000;text-transform:none;block-progression:tb;isolation:auto;mix-blend-mode:normal" d="m 10.380859,1034.8535 a 0.50005,0.50005 0 0 0 -0.220703,0.07 l -5.9082029,3.4141 a 0.50005,0.50005 0 0 0 0.025391,0.8789 l 6.0878902,3.0801 a 0.50005,0.50005 0 0 0 0.476563,-0.014 l 5.90625,-3.4141 a 0.50005,0.50005 0 1 0 -0.5,-0.8652 l -5.673828,3.2773 -5.0214846,-2.541 5.1074216,-2.9511 a 0.50005,0.50005 0 0 0 -0.279297,-0.9356 z" color="#000" font-family="sans-serif" font-weight="400" overflow="visible" white-space="normal" class="color2b4255 svgShape"></path><path fill="#ffffff" style="line-height:normal;text-indent:0;text-align:start;text-decoration-line:none;text-decoration-style:solid;text-decoration-color:#000;text-transform:none;block-progression:tb;isolation:auto;mix-blend-mode:normal" d="m 28.486328,1038.3027 a 0.50005,0.50005 0 0 0 -0.210937,0.053 l -6.001953,3.0507 A 0.50005,0.50005 0 0 0 22,1041.8516 l 0,6.0996 a 0.50005,0.50005 0 0 0 0.726562,0.4472 l 6.001954,-3.0507 a 0.50005,0.50005 0 0 0 0.273437,-0.4454 l 0,-3.0507 0,-3.0508 a 0.50005,0.50005 0 0 0 -0.515625,-0.4981 z m -0.484375,1.3145 0,2.2344 0,2.7441 -5.001953,2.541 0,-4.9785 5.001953,-2.541 z" color="#000" font-family="sans-serif" font-weight="400" overflow="visible" white-space="normal" class="color2b4255 svgShape"></path><path fill="#ffffff" fill-rule="evenodd" style="line-height:normal;text-indent:0;text-align:start;text-decoration-line:none;text-decoration-style:solid;text-decoration-color:#000;text-transform:none;block-progression:tb;isolation:auto;mix-blend-mode:normal" d="m 22.535156,1034.8535 a 0.50005,0.50005 0 0 0 -0.208984,0.9375 l 5.123047,2.9258 -5.009766,2.5664 -5.689453,-3.25 a 0.50036089,0.50036089 0 1 0 -0.496094,0.8691 l 5.925782,3.3829 a 0.50005,0.50005 0 0 0 0.474609,0.012 l 6.074219,-3.1114 a 0.50005,0.50005 0 0 0 0.01953,-0.8808 l -5.925781,-3.3828 a 0.50005,0.50005 0 0 0 -0.28711,-0.068 z" color="#000" font-family="sans-serif" font-weight="400" overflow="visible" white-space="normal" class="color2b4255 svgShape"></path><path fill="#ffffff" style="line-height:normal;text-indent:0;text-align:start;text-decoration-line:none;text-decoration-style:solid;text-decoration-color:#000;text-transform:none;block-progression:tb;isolation:auto;mix-blend-mode:normal" d="M 16.492188,1038.2949 A 0.50005,0.50005 0 0 0 16,1038.8008 l 0,3.0508 0,3.0507 a 0.50005,0.50005 0 0 0 0.273438,0.4454 l 6,3.0507 A 0.50005,0.50005 0 0 0 23,1047.9512 l 0,-6.0996 a 0.50005,0.50005 0 1 0 -1,0 l 0,5.2851 -5,-2.541 0,-2.7441 0,-3.0508 a 0.50005,0.50005 0 0 0 -0.507812,-0.5059 z" color="#000" font-family="sans-serif" font-weight="400" overflow="visible" white-space="normal" class="color2b4255 svgShape"></path><path fill="#f05542" style="line-height:normal;text-indent:0;text-align:start;text-decoration-line:none;text-decoration-style:solid;text-decoration-color:#000;text-transform:none;block-progression:tb;isolation:auto;mix-blend-mode:normal" d="m 22.486328,1028.8086 a 0.50005,0.50005 0 0 0 -0.21289,0.055 l -6,3.0488 A 0.50005,0.50005 0 0 0 16,1032.3594 l 0,6.0996 a 0.50005,0.50005 0 0 0 0.726562,0.4453 l 6,-3.0508 A 0.50005,0.50005 0 0 0 23,1035.4082 l 0,-3.0488 0,-3.0508 a 0.50005,0.50005 0 0 0 -0.513672,-0.5 z M 22,1030.123 l 0,2.2364 0,2.7422 -5,2.5429 0,-4.9785 5,-2.543 z" color="#000" font-family="sans-serif" font-weight="400" overflow="visible" white-space="normal" class="colorf05542 svgShape"></path><path fill="#f05542" fill-rule="evenodd" style="line-height:normal;text-indent:0;text-align:start;text-decoration-line:none;text-decoration-style:solid;text-decoration-color:#000;text-transform:none;block-progression:tb;isolation:auto;mix-blend-mode:normal" d="m 16.498047,1025.3613 a 0.50005,0.50005 0 0 0 -0.236328,0.061 l -6,3.248 a 0.50005,0.50005 0 0 0 0,0.8809 l 6,3.248 a 0.50005,0.50005 0 0 0 0.476562,0 l 6,-3.248 a 0.50005,0.50005 0 0 0 0,-0.8809 l -0.75,-0.4043 -0.75,-0.4062 a 0.50005,0.50005 0 1 0 -0.474609,0.8789 l 0.6875,0.3711 -4.951172,2.6816 -4.949219,-2.6797 4.949219,-2.6797 0.511719,0.2754 0.75,0.4063 a 0.50005,0.50005 0 1 0 0.476562,-0.8789 l -0.75,-0.4063 -0.75,-0.4062 a 0.50005,0.50005 0 0 0 -0.240234,-0.061 z M 19.5,1026.9824 a 0.50005,0.50005 0 0 0 -0.238281,0.9434 l 0.375,0.2031 a 0.50005,0.50005 0 1 0 0.476562,-0.8789 l -0.375,-0.2031 A 0.50005,0.50005 0 0 0 19.5,1026.9824 Z" color="#000" font-family="sans-serif" font-weight="400" overflow="visible" white-space="normal" class="colorf05542 svgShape"></path><path fill="#f05542" style="line-height:normal;text-indent:0;text-align:start;text-decoration-line:none;text-decoration-style:solid;text-decoration-color:#000;text-transform:none;block-progression:tb;isolation:auto;mix-blend-mode:normal" d="M 10.486328,1028.8086 A 0.50005,0.50005 0 0 0 10,1029.3086 l 0,3.0508 0,3.0488 a 0.50005,0.50005 0 0 0 0.273438,0.4453 l 6,3.0508 A 0.50005,0.50005 0 0 0 17,1038.459 l 0,-6.0996 a 0.50005,0.50005 0 0 0 -0.273438,-0.4473 l -6,-3.0488 a 0.50005,0.50005 0 0 0 -0.240234,-0.055 z M 11,1030.123 l 5,2.543 0,4.9785 -5,-2.5429 0,-2.7422 0,-2.2364 z" color="#000" font-family="sans-serif" font-weight="400" overflow="visible" white-space="normal" class="colorf05542 svgShape"></path></g></svg></g></svg>