<svg xmlns="http://www.w3.org/2000/svg" width="32" height="32" viewBox="0 0 32 32"><g transform="translate(-25 -1353.362)"><path fill="#f05542" fill-rule="evenodd" style="line-height:normal;text-indent:0;text-align:start;text-decoration-line:none;text-decoration-style:solid;text-decoration-color:#000;text-transform:none;block-progression:tb;isolation:auto;mix-blend-mode:normal" d="m 46.259528,1369.9823 c 0.127472,0.2535 0.299991,0.4888 0.515863,0.6935 0.853876,0.8097 2.147395,0.9165 3.121093,0.2558 0.973715,-0.6606 1.354345,-1.903 0.917969,-2.9961 -0.436365,-1.093 -1.567795,-1.731 -2.728515,-1.539 -0.676282,0.1347 -0.845919,-0.8974 -0.16211,-0.9863 1.618574,-0.2677 3.211976,0.6304 3.820313,2.1543 0.608351,1.5238 0.07253,3.2722 -1.285157,4.1933 -1.357659,0.9212 -3.182529,0.7735 -4.373046,-0.3555 -0.305362,-0.2895 -0.548542,-0.6242 -0.727068,-0.9854" color="#000" font-family="sans-serif" font-weight="400" overflow="visible" white-space="normal"/><path fill="#2b4255" fill-rule="evenodd" style="line-height:normal;text-indent:0;text-align:start;text-decoration-line:none;text-decoration-style:solid;text-decoration-color:#000;text-transform:none;block-progression:tb;isolation:auto;mix-blend-mode:normal" d="m 25.5,1361.3613 a 0.50005,0.50005 0 0 0 -0.5,0.5 l 0,7 0,7 a 0.50005,0.50005 0 0 0 0.5,0.5 l 11.996094,0 7.996094,0 a 0.50005,0.50005 0 0 0 0.435546,-0.2519 l 4,-7 a 0.50005,0.50005 0 0 0 0,-0.4961 l -4,-7 a 0.50005,0.50005 0 0 0 -0.435546,-0.252 l -2.40625,0 a 0.50005,0.50005 0 1 0 0,1 l 2.117187,0 3.714844,6.5 -3.714844,6.5 -7.707031,0 -11.496094,0 0,-6.5 0,-6.5 11.496094,0 a 0.50005,0.50005 0 1 0 0,-1 l -11.996094,0 z m 14.335938,0 a 0.50005,0.50005 0 1 0 0,1 l 0.455078,0 0.466796,0 a 0.50005,0.50005 0 1 0 0,-1 l -0.466796,0 -0.455078,0 z" color="#000" font-family="sans-serif" font-weight="400" overflow="visible" white-space="normal"/><path fill="#2b4255" fill-rule="evenodd" style="line-height:normal;text-indent:0;text-align:start;text-decoration-line:none;text-decoration-style:solid;text-decoration-color:#000;text-transform:none;block-progression:tb;isolation:auto;mix-blend-mode:normal" d="m 46.992188,1368.3594 c -4.1e-5,-1.3728 -1.123288,-2.4981 -2.496094,-2.4981 -1.372806,0 -2.496053,1.1253 -2.496094,2.4981 -2.8e-5,1.3728 1.12324,2.4961 2.496094,2.4961 1.372853,0 2.496121,-1.1233 2.496094,-2.4961 z m -1,0 c 1.6e-5,0.8324 -0.663688,1.4961 -1.496094,1.4961 -0.832406,0 -1.496111,-0.6637 -1.496094,-1.4961 2.5e-5,-0.8324 0.663718,-1.4981 1.496094,-1.4981 0.832376,0 1.496069,0.6657 1.496094,1.4981 z" color="#000" font-family="sans-serif" font-weight="400" overflow="visible" white-space="normal"/><path fill="#f05542" fill-rule="evenodd" style="line-height:normal;text-indent:0;text-align:start;text-decoration-line:none;text-decoration-style:solid;text-decoration-color:#000;text-transform:none;block-progression:tb;isolation:auto;mix-blend-mode:normal" d="m 50.992188,1368.3613 0,1 2.5,0 0,-1 -2.5,0 z" color="#000" font-family="sans-serif" font-weight="400" overflow="visible" white-space="normal"/><path fill="#f05542" fill-rule="evenodd" style="line-height:normal;text-indent:0;text-align:start;text-decoration-line:none;text-decoration-style:solid;text-decoration-color:#000;text-transform:none;block-progression:tb;isolation:auto;mix-blend-mode:normal" d="M 52.992188,1368.8555 A 0.50005,0.50005 0 0 1 53.5,1368.3613 c 0.928069,0 1.818372,0.3692 2.474609,1.0254 0.656236,0.6563 1.025385,1.5466 1.025391,2.4746 a 0.50005,0.50005 0 1 1 -1,0 c -4e-6,-0.6632 -0.263449,-1.2986 -0.732422,-1.7675 -0.468974,-0.469 -1.104342,-0.7325 -1.767578,-0.7325 a 0.50005,0.50005 0 0 1 -0.507812,-0.5058 z" color="#000" font-family="sans-serif" font-weight="400" overflow="visible" white-space="normal"/><path fill="#2b4255" style="line-height:125%;-inkscape-font-specification:'Bebas Neue Bold'" d="M28.036045 1366.6759c0 2.4025 2.58262 2.7268 2.58262 4.4565 0 .6007-.264268.8169-.684695.8169-.420426 0-.684694-.2162-.684694-.8169l0-.6006-1.249268 0 0 .5166c0 1.3453.672683 2.1141 1.969999 2.1141 1.297316 0 1.969998-.7688 1.969998-2.1141 0-2.4025-2.58262-2.7268-2.58262-4.4566 0-.6006.240244-.8288.660671-.8288.420426 0 .66067.2282.66067.8288l0 .3484 1.249267 0 0-.2643c0-1.3453-.66067-2.1141-1.945974-2.1141-1.285304 0-1.945974.7688-1.945974 2.1141zM34.006664 1365.8591l2.282315 0 0-1.2012-3.603655 0 0 8.4085 3.603655 0 0-1.2012-2.282315 0 0-2.4625 1.81384 0 0-1.2012-1.81384 0 0-2.3424zM38.309279 1366.5918c0-.6006.264268-.8288.684694-.8288.420427 0 .684695.2282.684695.8288l0 4.5406c0 .6007-.264268.8289-.684695.8289-.420426 0-.684694-.2282-.684694-.8289l0-4.5406zm-1.321341 4.4566c0 1.3453.708719 2.1141 2.006035 2.1141 1.297316 0 2.006035-.7688 2.006035-2.1141l0-4.3725c0-1.3453-.708719-2.1141-2.006035-2.1141-1.297316 0-2.006035.7688-2.006035 2.1141l0 4.3725z" font-family="Bebas Neue" font-weight="700" letter-spacing="0" word-spacing="0"/></g></svg>