<?xml version="1.0" encoding="utf-8"?>
<!-- Generator: Adobe Illustrator 18.1.1, SVG Export Plug-In . SVG Version: 6.00 Build 0)  -->
<svg version="1.1" id="Layer_1" xmlns="http://www.w3.org/2000/svg" xmlns:xlink="http://www.w3.org/1999/xlink" x="0px" y="0px"
	 viewBox="0 0 720 720" enable-background="new 0 0 720 720" xml:space="preserve">
<g>
	<g>
		<g>
			<polygon fill="#2AA6DE" points="231.3,513.6 265.9,500.2 278,488.6 265.9,475.1 			"/>
			<polygon fill="#2AA6DE" points="251.4,305.5 251.4,217.8 226.2,203.7 226.2,331.2 			"/>
			<polygon fill="#2AA6DE" points="305.5,307.8 288.2,295.7 270.8,295.7 305.5,331.2 			"/>
			<polygon fill="#2AA6DE" points="489.5,495 489.5,227.4 459.1,204.9 458.9,515.5 			"/>
		</g>
		<polygon fill="#FDC90F" points="448.9,203 310.6,203 310.6,304.9 310.6,311.3 310.6,343.7 265.9,297.9 263.3,300.6 256.4,307.5 
			221.1,343.7 221.1,203 216,203 77.7,203 77.7,517.4 214.4,517.4 221.1,517.4 265.9,467.4 285.1,488.9 310.6,517.4 448.9,517.4 
			454,517.4 454,203 		"/>
		<g>
			<polygon fill="none" points="305.5,307.8 288.2,295.7 270.8,295.7 305.5,331.2 			"/>
			<polygon fill="none" points="226.2,205.5 226.2,331.2 251.4,305.5 251.4,217.8 226.2,203.7 			"/>
			<polygon fill="none" points="231.3,513.6 231.3,513.6 265.9,500.2 278,488.6 265.9,475.1 			"/>
			<polygon fill="none" points="459.1,206.5 459.1,514.2 459.1,515.4 489.5,495 489.5,227.4 459.1,204.9 			"/>
			<polygon fill="none" points="448.9,203 310.6,203 310.6,304.9 310.6,311.3 310.6,343.7 265.9,297.9 263.3,300.6 256.4,307.5 
				221.1,343.7 221.1,203 216,203 77.7,203 77.7,517.4 214.4,517.4 221.1,517.4 265.9,467.4 285.1,488.9 310.6,517.4 448.9,517.4 
				454,517.4 454,203 			"/>
			<path d="M492.3,223.2l-33.2-25.3h-3.5H454h-5.1H310.6h-5.1v5.1v98.4l-14.3-10l-1.3-0.9h-1.6l-22.4-0.1l-0.1,0.1l-3.5,3.8
				l-2.4,2.5l-3.3,3.4v-7v-2.8v-72.7v-3.2l-2.8-1.4l-27.4-15.3h-3.9h-1.2H216H77.7h-5.1v5.1v314.4v5.1h5.1h132.2h11.2h1.4h0.8
				l44.3-17.6l0.9-0.4l0.7-0.7l12-11.5l25.5,28.4l1.5,1.7h2.3h138.3h5.1h1.5h3.6l33.1-23.2l2.4-1.5V495V227.4v-2.7L492.3,223.2z
				 M288.2,295.7l17.3,12v23.5l-34.7-35.5H288.2z M251.4,217.8v87.6l-25.2,25.7V205.5v-1.8L251.4,217.8z M265.9,500.2l-34.5,13.4
				l0,0l34.5-38.6l12.1,13.5L265.9,500.2z M448.9,517.4H310.6l-25.6-28.6l-19.2-21.5l-44.8,50h-6.7H77.7V203H216h5.1v140.7
				l35.4-36.1l6.8-7l2.6-2.7l44.8,45.8v-32.4v-6.3V203h138.3h5.1v314.4H448.9z M489.5,495l-30.4,20.4v-1.1V206.5v-1.6l30.4,22.5V495
				z"/>
		</g>
	</g>
	<g>
		<path fill="#ED1C24" stroke="#000000" stroke-width="5.5399" stroke-miterlimit="10" d="M418.3,474.2c0.1,1.1,0.2,2,0.2,2.7
			c0,5.1-1.5,9-4.5,11.9c-3.8,3.5-8.2,5.3-13.2,5.3c-5.1,0-9.4-1.7-13-5.2c-3.6-3.4-5.5-8.5-5.7-15.3c-0.3-2.9-0.5-6.2-0.5-9.8
			c0-4.3,0.2-9,0.5-14c0.4-9.3,1-19.3,1.8-29.7c0.8-10.5,1.1-26.6,1.1-48.3c0-7.1-0.6-11.9-1.8-14.5c-1.4-2.3-3.2-3.4-5.5-3.4
			c-2.7,0.3-6,1.8-10,4.4l-13.1,9.3l-18.4,14c-4.8,3.3-9.7,5.1-14.7,5.2c-0.2,0.1-0.4,0.2-0.5,0.2c-4.8,0-8.9-2.5-12.1-7.4
			c-0.3-0.3-0.8-1.2-1.5-2.7c-0.7-1.5-1-3-1-4.6v-1.6c0-2.9,2.1-6.1,6.4-9.5c2.8-1.4,6.2-2.6,10.2-3.5c4-1,9.2-3.4,15.8-7.4
			l34.2-20.1c2.8-1.4,4.3-3.2,4.4-5.3c0.2-2.1,0.2-4.2,0.2-6.3c0-4.5,1.7-7.8,5-9.8c2.6-1.7,5.5-2.6,8.9-2.6h1
			c3.4,0.3,6.1,0.8,8.1,1.4l3.9,1.6c2-1.1,9-5.2,21-12.4c4-2.8,7.4-5.8,10.4-9.1c3-3.3,6.6-5.1,10.9-5.4h1.5c3.7,0,7,1.2,10.2,3.5
			c2.3,1.6,3.7,3.1,4.4,4.6c0.7,1.5,1,3,1,4.8c-0.5,3.7-2.8,7-6.8,10c-4,3-7.6,5.3-10.8,6.9c-9.2,5.7-16,9.8-20.3,12.2
			c-4.3,2.5-8.2,4.7-11.6,6.6c0.3,1.7,0.5,3.7,0.5,6v17.9c0,7.7,0.5,16.9,1.5,27.4c1,10.5,1.5,19.8,1.5,27.7l-0.5,44.3
			C417.4,461.3,417.7,467.9,418.3,474.2z"/>
		<path fill="#ED1C24" stroke="#000000" stroke-width="5.5399" stroke-miterlimit="10" d="M473.7,323.1c-0.8-3-1.5-5.6-2.2-7.7
			c-0.2-0.3-0.5-1.3-0.8-2.9c-0.1-0.6-0.2-1.2-0.2-1.8c0-1,0.2-1.9,0.5-2.9l0.3-1.6c0.9-2.8,3.8-5.3,8.9-7.4c2.4-0.4,5-0.6,8.1-0.6
			h2.7c0.3,0.1,0.6,0.2,1,0.2c4,0,9.4-1,16.3-2.9l97.8-27.6c4.6-1.6,8.8-3.6,12.6-6c2.8-1.6,5.6-2.4,8.5-2.4c1.1,0,2.2,0.1,3.4,0.3
			l1.3,0.3c3.5,1.1,6.5,3.2,8.9,6.3c1.7,2.2,2.7,6.7,3.1,13.5v1.9c0,1-0.1,2-0.3,3.1c-1.5,3.3-4.6,5.9-9.3,7.7
			c-4.7,1.8-8.8,3.1-12.3,3.7c-10.4,2.9-18.1,4.9-22.9,6.1c-4.5,1.1-34.4,10-89.8,26.8c1.1,4.2,1.6,7,1.6,8.4v14.7
			c0,3.3,0.1,7,0.3,11c4-0.2,8.3-0.3,12.9-0.3h29.8c1.1,0.1,2.1,0.2,3.2,0.2c9.3,0,18.9-0.6,28.7-1.9c3.2-0.4,6.1-0.6,8.5-0.6
			c5.7,0,9.3,1.1,10.8,3.4c1.9,2.5,3,5.4,3.2,8.7v2.1c0,5.9-4.9,10-14.8,12.4c-10.4,2.5-19.6,3.9-27.6,4.4l-44.2,2.3
			c-2.8,0.1-5.5,0.3-8.1,0.5c0.1,3,0.2,5.8,0.2,8.4l-0.5,44.3c0,7.1,0.3,13.8,1,20c0.1,1.1,0.2,2,0.2,2.7c0,5.1-1.5,9-4.5,11.9
			c-3.8,3.5-8.2,5.3-13.2,5.3c-5.1,0-9.4-1.7-13-5.2c-3.6-3.4-5.5-8.5-5.7-15.3c-0.3-2.9-0.5-6.2-0.5-9.8c0-4.3,0.2-9,0.5-14
			c0.4-9.3,1-19.3,1.8-29.8c0.5-7.7,0.9-23.8,1.1-48.2c0-7.1-1.3-16.2-3.9-27.2C475.6,330.9,474.5,326.2,473.7,323.1z"/>
	</g>
</g>
</svg>
