<svg id="SvgjsSvg1001" width="288" height="288" xmlns="http://www.w3.org/2000/svg" version="1.1" xmlns:xlink="http://www.w3.org/1999/xlink" xmlns:svgjs="http://svgjs.com/svgjs"><defs id="SvgjsDefs1002"></defs><g id="SvgjsG1008" transform="matrix(0.916700005531311,0,0,0.916700005531311,11.9951753616333,11.995199203491211)"><!--?xml version="1.0" encoding="UTF-8"?--><svg xmlns="http://www.w3.org/2000/svg" xmlns:xlink="http://www.w3.org/1999/xlink" version="1.1" id="Astronaut" x="0px" y="0px" width="288" height="288" viewBox="0 0 512 512" xml:space="preserve"><path fill="#ffffff" d="M84.255 36.87v167.87s39.33 8.05 40.67 35.08c1.33 27.03 1.55 54.72 28.44 54.72s29.22-28.81 29.22-28.81.89-22.551 19.45-22.551h28.78l-14.23-33.14 9.35-8.15-7.439-20.77 22.68-10.27s14.69-28.64 56.03-27l25.4-10.34 10.76 19.58 11.47-4.71 34.09 69.16 47.66 7.97V36.87H84.255zm5.23 72.79h62.88v-10h-24.561c-11.149 0-20.229-9.07-20.229-20.22 0-11.15 9.08-20.23 20.229-20.23h125.36c11.15 0 20.229 9.08 20.229 20.23s-9.079 20.22-20.229 20.22h-53.48v10h12.351c7.75 0 14.05 6.43 14.05 14.34s-6.3 14.34-14.05 14.34H89.485v-28.68z" class="colorB8D2FF svgShape"></path><path fill="#ffffff" d="M396.255 474.072h32.5v-16.827s-8.446-.379-20.065-17.433c-5.825-8.551-25.935-54.133-25.935-54.133s-9.195-5.146-10.375 4.375l22.625 56.065c0 .001 7.75 15.061 1.25 27.953z" class="colorB8D2FF svgShape"></path><path fill="#ffffff" d="M84.255 399.536s47.5-52.017 128.5-63.937c0 0-25.79 38.217 5.74 46.91 32.93 9.08 50.26-51.379 50.26-51.379l65.098 142.941H84.255v-74.535z" class="colorB8D2FF svgShape"></path><path transform="matrix(0.4179 0.9085 -0.9085 0.4179 375.2781 -177.4827)" fill="#0f4c81" d="M321.956 199.937h8.384v8.382h-8.384z" class="color1F4697 svgShape"></path><path transform="matrix(0.4179 0.9085 -0.9085 0.4179 373.3369 -163.2931)" fill="#0f4c81" d="M309.897 205.483h8.383v8.382h-8.383z" class="color1F4697 svgShape"></path><path transform="matrix(0.4178 0.9085 -0.9085 0.4178 476.481 -143.257)" fill="#0f4c81" d="M345.781 295.924h8.484v8.484h-8.484z" class="color1F4697 svgShape"></path><path transform="matrix(-0.4178 -0.9085 0.9085 -0.4178 203.6984 740.811)" fill="#0f4c81" d="M334.969 300.897h8.485v8.483h-8.485z" class="color1F4697 svgShape"></path><path transform="matrix(0.4177 0.9086 -0.9086 0.4177 472.9437 -117.603)" fill="#0f4c81" d="M323.984 305.948h8.484v8.485h-8.484z" class="color1F4697 svgShape"></path><path fill="#0f4c81" d="M370.975 301.7l-19.8-43.069c-1.569-3.4-5.61-4.891-9.01-3.33l-43.06 19.81c-3.4 1.56-4.9 5.601-3.33 9l19.799 43.069a6.818 6.818 0 0 0 6.181 3.951c.95 0 1.909-.201 2.83-.621l43.06-19.81c1.65-.76 2.9-2.11 3.53-3.81.63-1.7.559-3.55-.2-5.19zm-47.661 18.38l-17.119-37.23 37.229-17.119 17.12 37.23-37.23 17.119z" class="color1F4697 svgShape"></path><path fill="#0f4c81" d="M342.845 282.33c-2.19-4.76-6.92-7.58-11.851-7.58-1.819 0-3.659.381-5.42 1.19-6.52 3-9.39 10.75-6.39 17.271 2.19 4.77 6.921 7.579 11.851 7.579 1.82 0 3.66-.38 5.42-1.19 6.52-3 9.39-10.74 6.39-17.27zm-10.57 8.191a3.038 3.038 0 0 1-4.011-1.48c-.69-1.52-.03-3.319 1.49-4.01.399-.19.83-.28 1.25-.28 1.149 0 2.25.66 2.75 1.76a3.02 3.02 0 0 1-1.479 4.01z" class="color1F4697 svgShape"></path><path fill="#0f4c81" d="M79.485 32.4v447.2h353.029V32.4H79.485zm173.76 316.28l-3.42 5.931-31.33-18.899.42-.711 3.03-5.199 6.83 4.109 3.739 2.26 1.63-2.699 3.53-5.86-10.68-6.44 18.17-31.09c1.51-2.57 3.2-5.09 5.04-7.52l31.209.26c.23 1.27.601 2.54 1.16 3.76l22.541 49.01a15.226 15.226 0 0 0 2.709 4.03l-18.08 27.97-15.879-34.529-5.141-11.17-6.21 10.76-4.26 7.37-10.16-6.13-5.17 8.56 10.322 6.227zm83.31-141.05l-70 32.19-12.58-27.37 2.681-1.23c3.729 4.77 9.47 7.49 15.409 7.49 2.73 0 5.51-.57 8.15-1.78l30.08-13.84c4.74-2.18 8.35-6.08 10.17-10.98 1.27-3.45 1.529-7.1.82-10.61l2.68-1.24 12.59 27.37zm-4.231-34.6l1.82-.83 7.82 17.01-1.82.83-7.82-17.01zm6.611 44.51c-.04.1-.06.2-.1.3a7.432 7.432 0 0 1-3.89 4.2l-56.4 25.94c-1.811.83-3.85.91-5.721.22-.1-.04-.189-.08-.289-.12l66.4-30.54zm-103.28-25.479l-6.011 2.77-3.92-8.52a4.229 4.229 0 0 1-.119-3.24 4.187 4.187 0 0 1 2.199-2.38l8.48-3.9a43.63 43.63 0 0 0-.629 15.27zm-6.42 13.96l8.979-4.13c.33.86.68 1.72 1.07 2.56l.29.63-2.41 1.11a9.416 9.416 0 0 0-4.95 5.34c-.88 2.38-.78 4.96.28 7.27l8.24 17.9a9.523 9.523 0 0 0 8.649 5.54 9.44 9.44 0 0 0 3.96-.87l2.41-1.11 3.78 8.22a17.354 17.354 0 0 0 5.58 6.81 89.803 89.803 0 0 0-16.88 14.11l-24.96-54.27a5.788 5.788 0 0 1 2.81-7.66l3.152-1.45zm73.23-47.351c-6.93-2.56-14.439-2.27-21.16.81l-15.34 7.06c-13.57 6.24-19.68 22.14-13.96 35.811l-2.21 1.02-1.42-3.1c-3.78-8.2-4.13-17.39-.99-25.86 3.13-8.47 9.38-15.22 17.58-18.99l8.54-3.93c4.51-2.07 9.3-3.11 14.12-3.11 3.96 0 7.93.7 11.75 2.12 8.47 3.13 15.22 9.38 18.99 17.58l1.42 3.1-2.211 1.01a27.444 27.444 0 0 0-15.109-13.521zm8.62 29.97a9.535 9.535 0 0 1-4.97 5.37l-30.08 13.83c-4.791 2.2-10.48.1-12.68-4.69l-1.881-4.09c-4.069-8.85-.18-19.36 8.67-23.44l15.34-7.05a17.646 17.646 0 0 1 7.371-1.63c2.069 0 4.149.37 6.139 1.11a17.53 17.53 0 0 1 9.92 9.19l1.891 4.09a9.553 9.553 0 0 1 .28 7.31zm-59.66 42.6l-1.81.84-7.83-17.01 1.82-.84 7.82 17.01zm68.979-78.15a43.186 43.186 0 0 0-12-9.46l8.51-3.92a4.232 4.232 0 0 1 3.24-.12c1.061.39 1.9 1.18 2.381 2.21l3.91 8.51-6.041 2.78zM89.485 211.17c17.54 2.44 31.1 17.54 31.1 35.74v17.891c0 18.42 14.98 33.399 33.4 33.399 18.409 0 33.399-14.979 33.399-33.399 0-9.711 7.9-17.621 17.62-17.621h22.01l14.16 30.791a86.283 86.283 0 0 0-4.64 7.05l-26.5 45.35c-44.49 8.42-85.9 28.17-120.55 57.431V211.17zm120.06 139.86l3.9-6.69 31.38 18.931-3.57 6.18c-2.479 4.31-6.5 7.36-11.32 8.601-4.819 1.239-9.819.489-14.069-2.09-5.53-3.361-8.83-9.23-8.83-15.701a18.224 18.224 0 0 1 2.509-9.231zm107.14-6.69a15.32 15.32 0 0 0 8.809-1.209l3.721-1.711 47.42-21.81a15.302 15.302 0 0 0 6.65-5.899l25.82 3.5-63.211 29.069-43.359 19.94 14.15-21.88zm58.559-36.83a5.296 5.296 0 0 1-2.789 3.011l-51.141 23.52a5.3 5.3 0 0 1-4.1.16 5.341 5.341 0 0 1-3.02-2.79l-22.541-49.01c-1.229-2.68-.049-5.88 2.641-7.12l51.13-23.51c.72-.33 1.479-.5 2.25-.5.62 0 1.25.11 1.86.34 1.35.5 2.42 1.49 3.02 2.79l22.53 49c.601 1.31.66 2.759.16 4.109zm-24.359-65.88c-3.23-.7-6.58-.35-9.63 1.05l-51.14 23.52c-3.131 1.44-5.53 3.81-7.061 6.63l-23.939-.199c6.25-5.881 13.439-10.75 21.229-14.33l60.81-27.971a82.019 82.019 0 0 1 25.141-6.979l-15.41 18.279zm-1.651-24.99c.25-2.96-.26-5.94-1.529-8.7l-3.94-8.56 2.82-1.29a9.45 9.45 0 0 0 4.95-5.34 9.46 9.46 0 0 0-.28-7.27l-8.24-17.91c-2.19-4.76-7.84-6.85-12.61-4.67l-2.819 1.3-.13-.3c-.391-.84-.811-1.66-1.25-2.47l12.109-5.57a5.78 5.78 0 0 1 7.66 2.84l24.96 54.26a91.853 91.853 0 0 0-21.701 3.68zm73.281 3.381l-32.12-5.84c-2.77-.5-5.59-.85-8.38-1.07l-26.95-58.59c-3.42-7.44-11.92-10.95-19.5-8.32l-3.949-8.58a14.126 14.126 0 0 0-7.99-7.41 14.144 14.144 0 0 0-10.891.42l-18.09 8.32c-8.529-1.4-17.279-.24-25.31 3.45l-8.55 3.93c-8.021 3.69-14.601 9.58-19.09 16.97l-18.07 8.31a14.17 14.17 0 0 0-7.4 7.99 14.144 14.144 0 0 0 .42 10.89l3.95 8.59c-6.95 4.03-9.83 12.78-6.399 20.23l8.22 17.87h-17.41c-15.229 0-27.62 12.39-27.62 27.621 0 12.91-10.5 23.399-23.399 23.399-12.91 0-23.4-10.489-23.4-23.399V246.91c0-23.73-18.03-43.32-41.1-45.82v-52.75h122.55c13.26 0 24.05-10.92 24.05-24.34 0-5.36-1.729-10.31-4.64-14.34h21.72c16.67 0 30.229-13.56 30.229-30.22 0-16.67-13.56-30.23-30.229-30.23h-125.36c-16.67 0-30.229 13.561-30.229 30.23 0 7.77 2.95 14.86 7.79 20.22h-15.88V42.4h333.029v177.621zM127.805 99.66c-11.149 0-20.229-9.07-20.229-20.22 0-11.15 9.08-20.23 20.229-20.23h125.36c11.15 0 20.229 9.08 20.229 20.23s-9.079 20.22-20.229 20.22h-53.48v10h12.351c7.75 0 14.05 6.43 14.05 14.34s-6.3 14.34-14.05 14.34H89.485v-28.68h62.88v-10h-24.56zM89.485 469.6v-68.52c32.39-29.27 71.489-49.55 113.76-59.09l-2.34 3.99a28.394 28.394 0 0 0-3.87 14.279c0 9.98 5.09 19.051 13.63 24.25 6.58 3.99 14.3 5.141 21.76 3.221 7.44-1.91 13.66-6.631 17.49-13.28l17.8-30.819 57.93 125.969H89.485zm241.22-12.93l53.8-24.75 1.53 3.721-53.66 24.68-1.67-3.651zm62.48 12.93h-56.54l-.09-.199 53.29-24.51 2.271 5.529a29.025 29.025 0 0 1 1.069 19.18zm29.33 0h-19.03c1.621-7.659.92-15.609-2.119-22.979l-22.92-55.659 27.069 53.489c3.74 7.39 9.7 13.38 17 17.149v8zm0-19.84a29.125 29.125 0 0 1-8.069-9.819l-2.621-5.16 10.69-4.92v19.899zm0-30.9l-15.21 6.989-1.811-3.579 17.021-7.82v4.41zm0-15.42l-21.53 9.899-15.81-31.229a9.78 9.78 0 0 0-12.851-4.49c-3.469 1.601-5.709 5.101-5.709 8.9 0 1.27.26 2.56.75 3.729l13.33 32.42-54.17 24.91-9.641-20.96 31.41-14.45-4.17-9.08-31.42 14.45-2.381-5.18 14.471-6.649-4.17-9.091-14.471 6.66-5.379-11.69 73.58-33.84 48.159-22.15v67.841zm0-78.84l-60.28 27.721-65.64 30.189-.96-2.109 63.66-29.27 63.22-29.08v2.549zm0-31.45l-7.89-17.16 7.89 1.48v15.68zm0-25.86l-25.069-4.689 21.069 45.79-33.04-4.48c-.18-1.58-.6-3.16-1.3-4.689l-22.54-49a15.67 15.67 0 0 0-2.1-3.34l20.149-23.891c3 .17 6 .51 8.931 1.03l33.899 6.16v37.109z" class="color1F4697 svgShape"></path><path fill="#0f4c81" d="M167.266 369.235c-8.1 0-14.689 6.589-14.689 14.688s6.59 14.689 14.689 14.689v-10c-2.586 0-4.689-2.104-4.689-4.689s2.104-4.688 4.689-4.688a4.693 4.693 0 0 1 4.688 4.688h10c0-8.099-6.589-14.688-14.688-14.688z" class="color1F4697 svgShape"></path><path fill="#0f4c81" d="M134.296 438.15c.35 1.202.209 2.469-.395 3.566s-1.599 1.895-2.802 2.243c-1.203.35-2.469.209-3.566-.395s-1.895-1.599-2.243-2.801a4.695 4.695 0 0 1 3.195-5.811l-2.787-9.604a14.588 14.588 0 0 0-8.775 7.026 14.59 14.59 0 0 0-1.236 11.176 14.587 14.587 0 0 0 7.027 8.774 14.607 14.607 0 0 0 11.174 1.236 14.586 14.586 0 0 0 8.775-7.027 14.589 14.589 0 0 0 1.236-11.175l-9.603 2.792z" class="color1F4697 svgShape"></path><path fill="#0f4c81" d="M245.168 425.453l-1.871 9.822a4.663 4.663 0 0 1 3 1.971c.704 1.035.963 2.283.729 3.514s-.935 2.296-1.97 3a4.673 4.673 0 0 1-3.515.729 4.695 4.695 0 0 1-3.729-5.483l-9.823-1.872c-1.516 7.957 3.725 15.662 11.681 17.179.927.177 1.856.264 2.78.264 2.916 0 5.764-.87 8.228-2.546a14.592 14.592 0 0 0 6.171-9.398 14.59 14.59 0 0 0-2.283-11.008 14.595 14.595 0 0 0-9.398-6.172z" class="color1F4697 svgShape"></path><path fill="#0f4c81" d="M297.203 101.768h9.047v9.046h-9.047z" class="color1F4697 svgShape"></path><path fill="#0f4c81" d="M315.594 74.915h9.047v9.046h-9.047z" class="color1F4697 svgShape"></path><path fill="#0f4c81" d="M357.946 106.292h9.047v9.046h-9.047z" class="color1F4697 svgShape"></path><path fill="#0f4c81" d="M389.486 140.95h9.047v9.047h-9.047z" class="color1F4697 svgShape"></path><path fill="#0f4c81" d="M197.507 283.25h9.047v9.047h-9.047z" class="color1F4697 svgShape"></path><path fill="#0f4c81" d="M172.431 209.591h9.047v9.047h-9.047z" class="color1F4697 svgShape"></path><path fill="#0f4c81" d="M144.317 251.473h9.047v9.047h-9.047z" class="color1F4697 svgShape"></path><path fill="#0f4c81" d="M395.041 65.868h9.047v9.046h-9.047z" class="color1F4697 svgShape"></path><metadata><rdf:rdf xmlns:rdf="http://www.w3.org/1999/02/22-rdf-syntax-ns#" xmlns:rdfs="http://www.w3.org/2000/01/rdf-schema#" xmlns:dc="http://purl.org/dc/elements/1.1/"><rdf:description about="https://iconscout.com/legal#licenses" dc:title="astronaut,space,spacesuit,galaxy,star" dc:description="astronaut,space,spacesuit,galaxy,star" dc:publisher="Iconscout" dc:date="2018-07-14" dc:format="image/svg+xml" dc:language="en"><dc:creator><rdf:bag><rdf:li>Chanut Is Industries</rdf:li></rdf:bag></dc:creator></rdf:description></rdf:rdf></metadata></svg></g></svg>