<svg id="SvgjsSvg1032" width="288" height="288" xmlns="http://www.w3.org/2000/svg" version="1.1" xmlns:xlink="http://www.w3.org/1999/xlink" xmlns:svgjs="http://svgjs.com/svgjs"><defs id="SvgjsDefs1033"></defs><g id="SvgjsG1034" transform="matrix(0.916700005531311,0,0,0.916700005531311,11.995199203491211,11.995199203491211)"><!--?xml version="1.0" encoding="UTF-8"?--><svg xmlns="http://www.w3.org/2000/svg" xmlns:xlink="http://www.w3.org/1999/xlink" version="1.1" id="Space_x5F_Rover" x="0px" y="0px" width="288" height="288" viewBox="0 0 512 512" xml:space="preserve"><path fill="#ffffff" d="M237.038 136.777c-27.18 26.349-63.004 40.86-100.872 40.86-16.031 0-31.697-2.585-46.676-7.685v193.344c3.939-.202 7.994.192 11.977.584 4.786.471 9.351.902 13.279.301a37.266 37.266 0 0 1-4.751-18.24c0-20.684 16.826-37.51 37.509-37.51a37.297 37.297 0 0 1 21.572 6.852v-81.926h20.985l4.795 61.619h39.986v13.455h32.673v-25.499l-7.271-5.178-5.051 8.659-8.638-5.039 15.63-26.792 8.637 5.039-5.519 9.46 12.211 8.695v34.068a37.356 37.356 0 0 1 4.409-1.706v-60.431l8.021-17.551c-9.962-5.171-18.578-11.556-24.376-18.095-7.121-8.029-9.396-15.744-6.406-21.723 2.989-5.979 10.528-8.785 21.222-7.909 7.846.645 16.963 3.194 26.087 7.25l2.87-5.738c-4.551-5.632-3.733-13.919 1.861-18.542 5.638-4.656 14.008-3.857 18.661 1.775 4.654 5.634 3.858 14.005-1.775 18.659a13.155 13.155 0 0 1-9.698 2.977c-.096-.01-.188-.03-.284-.041l-2.691 5.383c18.895 10.558 33.819 26.319 27.859 38.241h-.001c-2.63 5.26-8.78 8.066-17.504 8.066-1.192 0-2.432-.052-3.718-.158-6.969-.572-14.941-2.648-23.031-5.946l-7.097 15.528v56.575c.398-.013.796-.03 1.197-.03 20.683 0 37.509 16.826 37.509 37.51 0 .397-.018.791-.03 1.188 3.55-.332 7.415-1.422 11.446-2.572 7.029-2.007 14.296-4.081 21.354-2.388 7.438 1.778 13.117 7.097 18.609 12.241 4.246 3.978 8.256 7.734 12.379 9.121 4.478 1.508 10.147.95 16.15.359 3.98-.392 8.034-.785 11.971-.584V42.4h-141.74c-2.364 35.858-17.774 69.215-43.73 94.377zm-74.716 170.089a37.956 37.956 0 0 0-14.818-2.979 38.204 38.204 0 0 0-24.813 9.155l-6.499-7.6a48.001 48.001 0 0 1 6.412-4.616V249.48h7.594v-36.121h10v36.121h5.118v-15.31h10v15.311h6.893v46.701c1.348.432 2.683.915 3.996 1.469l-3.883 9.215zm82.484-152.111a162.217 162.217 0 0 1-25.799 18.68l-5.038-8.639a152.12 152.12 0 0 0 33.138-26.115l7.218 6.921a163.158 163.158 0 0 1-9.519 9.153zm152.306-81.063h9.047v9.047h-9.047v-9.047zm-13.45 84.625h9.047v9.047h-9.047v-9.047zm-17.23-50.943h9.047v9.047h-9.047v-9.047zm-4.524 72.988h9.047v9.047h-9.047v-9.047zm-17.109-88.485h9.046v9.047h-9.046v-9.047zm-9.741 43.582h9.047v9.047h-9.047v-9.047zm-38.272-73.42c-4.074 23.136-12.973 44.676-26.449 64.021l-8.205-5.716c12.64-18.145 20.985-38.345 24.807-60.039l9.847 1.734z" class="colorB8D2FF svgShape"></path><path fill="#ffffff" d="M147.504 355.615c5.334 0 9.674-4.34 9.674-9.674s-4.34-9.674-9.674-9.674-9.674 4.34-9.674 9.674 4.34 9.674 9.674 9.674z" class="colorB8D2FF svgShape"></path><path fill="#ffffff" d="M89.49 469.6h36.433c4.94-12.665 10.068-14.299 18.475-16.002 5.081-1.03 12.039-2.439 22.724-8.473 3.287-1.856 6.82-5.152 10.562-8.643 6.838-6.381 15.349-14.32 27.307-18.1 7.185-2.27 15.119-1.624 23.52-.941 7.441.605 15.137 1.23 22.604-.19 2.917-.556 5.954-1.72 9.096-3.164-3.596-1.521-7.081-3.258-10.509-4.972-6.937-3.469-13.489-6.744-19.825-7.521-7.847-.96-16.097.94-24.073 2.779-7.273 1.679-14.796 3.41-22.063 2.969-8.759-.533-16.783-3.364-24.544-6.104-7.345-2.591-14.281-5.028-20.535-4.919-8.583.169-16.796 3.595-24.737 6.907-6.676 2.784-12.98 5.414-19.541 6.271a60.255 60.255 0 0 1-4.891.439V469.6zm47.165-53.373h9.047v9.047h-9.047v-9.047zm-29.87 23.494h9.047v9.046h-9.047v-9.046z" class="colorB8D2FF svgShape"></path><path fill="#ffffff" d="M293.122 355.615c5.334 0 9.674-4.34 9.674-9.674s-4.34-9.674-9.674-9.674-9.674 4.34-9.674 9.674 4.34 9.674 9.674 9.674z" class="colorB8D2FF svgShape"></path><path fill="#ffffff" d="M225.523 112.553c2.231.877 4.761-.225 5.638-2.456s-.225-4.761-2.456-5.638a4.352 4.352 0 0 0-5.638 2.456 4.354 4.354 0 0 0 2.456 5.638z" class="colorB8D2FF svgShape"></path><path fill="#ffffff" d="M93.675 134.37a3.898 3.898 0 0 0 1.109-5.396 3.888 3.888 0 0 0-5.294-1.158v6.608c1.256.771 2.896.798 4.185-.054z" class="colorB8D2FF svgShape"></path><path fill="#ffffff" d="M123.438 74.345a6.455 6.455 0 0 0 1.833-8.931 6.446 6.446 0 0 0-5.392-2.896 6.41 6.41 0 0 0-3.539 1.063 6.397 6.397 0 0 0-2.766 4.086 6.398 6.398 0 0 0 .933 4.844 6.455 6.455 0 0 0 8.931 1.834z" class="colorB8D2FF svgShape"></path><path fill="#0f4c81" d="M79.49 32.4v447.2h353.02V32.4H79.49zm41.315 340.601c.184-.062.368-.136.552-.204 6.762 6.586 15.986 10.653 26.147 10.653 16.511 0 30.554-10.728 35.552-25.575h29.231v-10h-27.323a37.425 37.425 0 0 0-1.221-11.608h73.141a37.42 37.42 0 0 0-1.221 11.608h-15.927v10h17.835c4.998 14.848 19.041 25.575 35.552 25.575 16.747 0 30.962-11.034 35.768-26.212 5.364-.064 10.703-1.582 15.902-3.066 6.053-1.728 11.771-3.359 16.279-2.278 4.865 1.163 9.352 5.366 14.103 9.815 4.839 4.532 9.842 9.219 16.024 11.301 6.514 2.191 13.532 1.5 20.32.832 3.91-.384 7.687-.754 10.991-.522v32.355c-5.214-.923-10.473-2.742-15.604-4.526-7.459-2.593-15.169-5.273-22.936-5.273l-.301.002c-9.272.082-17.718 3.234-25.884 6.282-6.543 2.442-12.724 4.748-18.44 5.05-7.2.388-14.666-1.485-21.884-3.291-7.761-1.941-15.786-3.951-23.498-3.1-7.755.854-14.798 3.813-21.196 6.971-6.335-1.51-12.562-4.601-18.595-7.617-7.391-3.695-15.032-7.516-23.081-8.504-9.595-1.177-18.717.928-27.537 2.961-6.883 1.588-13.378 3.086-19.207 2.73-7.361-.447-14.714-3.041-21.824-5.551-7.862-2.773-15.996-5.632-24.058-5.487-10.485.206-19.999 4.175-28.393 7.676-6.043 2.521-11.75 4.901-16.995 5.587-1.155.152-2.351.26-3.587.334V373.31c3.306-.232 7.084.139 10.998.523 6.788.667 13.807 1.357 20.317-.832zm-.81-27.06c0-15.169 12.341-27.51 27.509-27.51 15.169 0 27.51 12.341 27.51 27.51 0 15.168-12.341 27.509-27.51 27.509-15.168 0-27.509-12.341-27.509-27.509zm59.081-20.213v-82.37h1.733l4.017 51.619.026.344 2.408 30.947h-7.839c-.111-.183-.23-.361-.345-.54zm16.559-20.751h29.208V326.268h-27.552l-.949-12.205-.707-9.086zm65.569 21.291h-26.361v-7.836h32.815a37.726 37.726 0 0 0-6.454 7.836zm31.918-7.836c15.168 0 27.509 12.341 27.509 27.51 0 15.168-12.341 27.509-27.509 27.509-15.169 0-27.51-12.341-27.51-27.509 0-15.17 12.341-27.51 27.51-27.51zm129.388 97.379V469.6H136.769c2.286-4.697 4.308-5.127 9.615-6.201 5.412-1.098 13.59-2.754 25.654-9.566 4.322-2.44 8.277-6.131 12.466-10.038 6.42-5.989 13.695-12.777 23.499-15.876 5.313-1.679 12.299-1.11 19.695-.51 7.728.629 16.487 1.342 25.285-.334 6.579-1.253 12.719-4.424 19.219-7.781 7.278-3.76 14.806-7.647 22.856-8.535 5.931-.65 12.753 1.055 19.976 2.861 7.933 1.984 16.138 4.031 24.838 3.576 7.249-.383 14.448-3.069 21.409-5.668 7.356-2.745 14.964-5.584 22.478-5.65.071-.002.143-.002.214-.002 6.075 0 12.671 2.293 19.648 4.719 6.077 2.112 12.319 4.276 18.889 5.216zm-328.129-6.313c6.561-.857 12.865-3.487 19.541-6.271 7.941-3.313 16.154-6.738 24.737-6.907 6.254-.109 13.19 2.328 20.535 4.919 7.761 2.739 15.785 5.57 24.544 6.104 7.267.441 14.789-1.29 22.063-2.969 7.977-1.839 16.227-3.739 24.073-2.779 6.336.777 12.889 4.053 19.825 7.521 3.428 1.714 6.913 3.45 10.509 4.972-3.142 1.444-6.179 2.608-9.096 3.164-7.467 1.421-15.162.796-22.604.19-8.4-.683-16.335-1.328-23.52.941-11.958 3.779-20.469 11.719-27.307 18.1-3.741 3.49-7.274 6.786-10.562 8.643-10.685 6.033-17.643 7.442-22.724 8.473-8.406 1.703-13.534 3.337-18.475 16.002H89.49v-59.662a61.154 61.154 0 0 0 4.891-.441zm328.129-46.191c-3.937-.201-7.99.192-11.971.584-6.003.591-11.673 1.148-16.15-.359-4.123-1.387-8.133-5.144-12.379-9.121-5.492-5.145-11.171-10.463-18.609-12.241-7.058-1.693-14.324.381-21.354 2.388-4.031 1.15-7.896 2.24-11.446 2.572.013-.396.03-.79.03-1.188 0-20.684-16.826-37.51-37.509-37.51-.401 0-.799.018-1.197.03v-56.575l7.097-15.528c8.09 3.298 16.063 5.374 23.031 5.946 1.286.106 2.525.158 3.718.158 8.724 0 14.874-2.807 17.504-8.066h.001c5.96-11.922-8.965-27.684-27.859-38.241l2.691-5.383c.096.011.188.031.284.041a13.157 13.157 0 0 0 9.698-2.977c5.634-4.654 6.43-13.025 1.775-18.659-4.653-5.633-13.023-6.432-18.661-1.775-5.595 4.623-6.412 12.91-1.861 18.542l-2.87 5.738c-9.124-4.056-18.241-6.605-26.087-7.25-10.693-.876-18.232 1.93-21.222 7.909-2.99 5.979-.715 13.693 6.406 21.723 5.798 6.539 14.414 12.924 24.376 18.095l-8.021 17.551v60.431a37.289 37.289 0 0 0-4.409 1.706V277.78l-12.211-8.695 5.519-9.46-8.637-5.039-15.63 26.792 8.638 5.039 5.051-8.659 7.271 5.178v25.499h-32.673V294.98h-39.986l-4.795-61.619h-20.985v81.926a37.297 37.297 0 0 0-21.572-6.852c-20.683 0-37.509 16.826-37.509 37.51a37.255 37.255 0 0 0 4.751 18.24c-3.929.602-8.493.17-13.279-.301-3.982-.392-8.037-.786-11.977-.584V169.953c14.979 5.1 30.645 7.685 46.676 7.685 37.868 0 73.692-14.512 100.872-40.86 25.956-25.162 41.366-58.52 43.729-94.377H422.51v320.906zM304.622 217.742l6.32-12.64c18.126 10.172 25.059 21.479 23.389 24.822-1.802 3.601-16.993 4.768-38.417-5.945-9.482-4.74-17.602-10.618-22.862-16.551-4.528-5.106-5.746-9.011-4.943-10.616.677-1.354 3.53-2.541 8.497-2.541.915 0 1.903.04 2.961.127 6.643.546 14.469 2.748 22.425 6.246l-6.313 12.626 8.943 4.472zm12.952-42.632a3.236 3.236 0 0 1 2.07-.745c.938 0 1.869.402 2.512 1.181a3.258 3.258 0 0 1-.436 4.581 3.239 3.239 0 0 1-2.382.731 3.237 3.237 0 0 1-2.2-1.167 3.258 3.258 0 0 1 .436-4.581zM91.567 144.997c2.635 0 5.288-.742 7.619-2.283 6.395-4.22 8.164-12.854 3.944-19.248-3.068-4.649-8.469-6.838-13.641-6.077V42.4h181.256c-1.939 27.647-12.021 52.841-27.869 73.262l-.004-.002-.28.36h.001a134.033 134.033 0 0 1-6.932 8.166v-.001c-4.98 2.861-11.062 3.146-16.264.761-8.905-4.086-12.83-14.651-8.75-23.552l-9.09-4.168c-6.378 13.911-.246 30.424 13.671 36.81a27.616 27.616 0 0 0 7.774 2.248c-23.437 19.621-53.706 31.354-86.838 31.354-16.083 0-31.768-2.789-46.676-8.292v-14.522c.69.102 1.383.173 2.079.173zm-2.077-10.573v-6.608a3.89 3.89 0 0 1 5.294 1.158 3.897 3.897 0 0 1-1.109 5.396c-1.289.852-2.929.825-4.185.054z" class="color1F4499 svgShape"></path><path fill="#0f4c81" d="M375.479 439.721h9.047v9.046h-9.047z" class="color1F4499 svgShape"></path><path fill="#0f4c81" d="M210.981 372.313h9.047v9.047h-9.047z" class="color1F4499 svgShape"></path><path fill="#0f4c81" d="M294.43 426.544h9.047v9.047h-9.047z" class="color1F4499 svgShape"></path><path fill="#0f4c81" d="M136.655 416.227h9.047v9.047h-9.047z" class="color1F4499 svgShape"></path><path fill="#0f4c81" d="M106.785 439.721h9.047v9.046h-9.047z" class="color1F4499 svgShape"></path><path fill="#0f4c81" d="M261.88 446.081h9.047v9.047h-9.047z" class="color1F4499 svgShape"></path><path fill="#0f4c81" d="M339.415 375.919h9.047v9.046h-9.047z" class="color1F4499 svgShape"></path><path fill="#0f4c81" d="M344.799 91.877h9.046v9.047h-9.046z" class="color1F4499 svgShape"></path><path fill="#0f4c81" d="M383.662 158.317h9.047v9.047h-9.047z" class="color1F4499 svgShape"></path><path fill="#0f4c81" d="M366.432 107.374h9.047v9.047h-9.047z" class="color1F4499 svgShape"></path><path fill="#0f4c81" d="M335.058 135.459h9.047v9.047h-9.047z" class="color1F4499 svgShape"></path><path fill="#0f4c81" d="M361.908 180.362h9.047v9.047h-9.047z" class="color1F4499 svgShape"></path><path fill="#0f4c81" d="M397.112 73.692h9.047v9.047h-9.047z" class="color1F4499 svgShape"></path><path fill="#0f4c81" d="M147.504 365.615c10.849 0 19.674-8.826 19.674-19.674 0-10.849-8.825-19.674-19.674-19.674-10.848 0-19.674 8.825-19.674 19.674 0 10.848 8.826 19.674 19.674 19.674zm0-29.347c5.334 0 9.674 4.34 9.674 9.674s-4.34 9.674-9.674 9.674-9.674-4.34-9.674-9.674 4.34-9.674 9.674-9.674z" class="color1F4499 svgShape"></path><path fill="#0f4c81" d="M293.122 365.615c10.849 0 19.674-8.826 19.674-19.674 0-10.849-8.825-19.674-19.674-19.674s-19.674 8.825-19.674 19.674c0 10.848 8.825 19.674 19.674 19.674zm0-29.347c5.334 0 9.674 4.34 9.674 9.674s-4.34 9.674-9.674 9.674-9.674-4.34-9.674-9.674 4.34-9.674 9.674-9.674z" class="color1F4499 svgShape"></path><path fill="#0f4c81" d="M162.208 249.48h-6.893v-15.31h-10v15.311h-5.118V213.36h-10v36.121h-7.594v51.346a48.09 48.09 0 0 0-6.412 4.616l6.499 7.6a38.206 38.206 0 0 1 24.813-9.155 37.97 37.97 0 0 1 14.818 2.979l3.882-9.216a47.755 47.755 0 0 0-3.996-1.469V249.48zm-10 44.635a48.22 48.22 0 0 0-19.604 2.137V259.48h19.604v34.635z" class="color1F4499 svgShape"></path><path fill="#0f4c81" d="M270.337 126.06c13.477-19.345 22.375-40.885 26.449-64.021l-9.848-1.734c-3.821 21.694-12.167 41.895-24.807 60.039l8.206 5.716z" class="color1F4499 svgShape"></path><path fill="#0f4c81" d="M238.174 147.271a152.058 152.058 0 0 1-24.205 17.525l5.038 8.639a162.217 162.217 0 0 0 35.318-27.833l-7.218-6.921a153.753 153.753 0 0 1-8.933 8.59z" class="color1F4499 svgShape"></path><path fill="#0f4c81" d="M116.582 85.074a16.56 16.56 0 0 0 3.341.341c3.184 0 6.301-.929 9.02-2.722h.001c7.569-4.992 9.667-15.213 4.676-22.784-4.992-7.57-15.213-9.668-22.784-4.676a16.34 16.34 0 0 0-7.057 10.424 16.33 16.33 0 0 0 2.381 12.36 16.334 16.334 0 0 0 10.422 7.057zm-3.008-17.406a6.397 6.397 0 0 1 2.766-4.086 6.403 6.403 0 0 1 3.539-1.063 6.448 6.448 0 0 1 5.392 2.896 6.455 6.455 0 0 1-1.833 8.931 6.454 6.454 0 0 1-8.931-1.833 6.41 6.41 0 0 1-.933-4.845z" class="color1F4499 svgShape"></path><path fill="#0f4c81" d="M119.942 101.015c5.598 0 11.122-1.48 16.086-4.376 15.26-8.899 20.436-28.555 11.536-43.815l-8.639 5.038c6.121 10.497 2.562 24.018-7.936 30.139a21.882 21.882 0 0 1-16.712 2.274 21.89 21.89 0 0 1-13.426-10.209l-8.639 5.038c4.311 7.392 11.242 12.663 19.519 14.842a32.255 32.255 0 0 0 8.211 1.069z" class="color1F4499 svgShape"></path><path fill="#0f4c81" d="M213.761 103.257c-2.895 7.363.741 15.709 8.104 18.603 1.718.676 3.488.995 5.231.995 5.729 0 11.152-3.454 13.371-9.1a14.256 14.256 0 0 0-.199-10.979 14.256 14.256 0 0 0-7.905-7.623c-7.364-2.895-15.709.742-18.602 8.104zm9.306 3.658a4.352 4.352 0 0 1 5.638-2.456c2.231.877 3.333 3.406 2.456 5.638s-3.406 3.333-5.638 2.456-3.333-3.407-2.456-5.638z" class="color1F4499 svgShape"></path><path fill="#0f4c81" d="M205.278 79.405c.761.109 1.521.164 2.275.164 3.357 0 6.613-1.076 9.351-3.123 3.354-2.506 5.53-6.169 6.129-10.313s-.452-8.272-2.958-11.626l-8.01 5.987c.907 1.214 1.287 2.709 1.07 4.209s-1.004 2.825-2.219 3.732a5.629 5.629 0 0 1-4.208 1.071 5.637 5.637 0 0 1-3.733-2.219 5.68 5.68 0 0 1 1.147-7.941l-5.987-8.01a15.57 15.57 0 0 0-6.128 10.313c-.6 4.145.451 8.273 2.958 11.626a15.57 15.57 0 0 0 10.313 6.13z" class="color1F4499 svgShape"></path><path fill="#0f4c81" d="M139.438 138.331a15.65 15.65 0 0 0 .642 12.038 15.65 15.65 0 0 0 8.966 8.059c1.716.606 3.489.907 5.256.907a15.69 15.69 0 0 0 6.782-1.549l-4.313-9.021a5.709 5.709 0 0 1-4.395.233 5.712 5.712 0 0 1-3.273-2.942c-.662-1.386-.746-2.946-.234-4.395s1.557-2.61 2.942-3.273 2.946-.746 4.396-.234a5.714 5.714 0 0 1 3.272 2.942l9.022-4.313a15.649 15.649 0 0 0-8.966-8.06 15.655 15.655 0 0 0-12.038.642 15.66 15.66 0 0 0-8.059 8.966z" class="color1F4499 svgShape"></path><metadata><rdf:rdf xmlns:rdf="http://www.w3.org/1999/02/22-rdf-syntax-ns#" xmlns:rdfs="http://www.w3.org/2000/01/rdf-schema#" xmlns:dc="http://purl.org/dc/elements/1.1/"><rdf:description about="https://iconscout.com/legal#licenses" dc:title="space,rover,research,moon,vehicle,radar" dc:description="space,rover,research,moon,vehicle,radar" dc:publisher="Iconscout" dc:date="2018-07-14" dc:format="image/svg+xml" dc:language="en"><dc:creator><rdf:bag><rdf:li>Chanut Is Industries</rdf:li></rdf:bag></dc:creator></rdf:description></rdf:rdf></metadata></svg></g></svg>