<svg id="SvgjsSvg1001" width="288" height="288" xmlns="http://www.w3.org/2000/svg" version="1.1" xmlns:xlink="http://www.w3.org/1999/xlink" xmlns:svgjs="http://svgjs.com/svgjs"><defs id="SvgjsDefs1002"></defs><g id="SvgjsG1008" transform="matrix(0.916700005531311,0,0,0.916700005531311,11.995222091674805,11.995199203491211)"><!--?xml version="1.0" encoding="UTF-8"?--><svg xmlns="http://www.w3.org/2000/svg" xmlns:xlink="http://www.w3.org/1999/xlink" version="1.1" id="Space_x5F_Exploration" x="0px" y="0px" width="288" height="288" viewBox="0 0 512 512" xml:space="preserve"><path fill="#ffffff" d="M135.48 342.959c-4.443 0-8.059 3.615-8.059 8.059s3.615 8.059 8.059 8.059 8.059-3.615 8.059-8.059-3.615-8.059-8.059-8.059z" class="colorB8D2FF svgShape"></path><path fill="#ffffff" d="M222.425 183.132c-12.212-12.213-17.396-29.597-13.87-46.503l.668-3.205 3.205-.669c16.908-3.526 34.291 1.659 46.503 13.871l10.247 10.246a159.753 159.753 0 0 0 6.149-9.289l-4.089-2.596a157.226 157.226 0 0 0 14.044-27.96c-7.506-.036-13.602-6.15-13.602-13.664 0-7.535 6.131-13.666 13.668-13.666 2.672 0 5.16.782 7.27 2.114a158.937 158.937 0 0 0 3.172-31.531c0-5.979-.352-11.972-1.015-17.88h-52.911c-.029.032-.062.061-.091.094a8.636 8.636 0 0 0-2.143 6.3 8.641 8.641 0 0 0 2.946 5.977 8.652 8.652 0 0 0 6.308 2.141 8.65 8.65 0 0 0 5.976-2.948l7.519 6.594a18.59 18.59 0 0 1-12.839 6.333 19.49 19.49 0 0 1-1.253.041 18.56 18.56 0 0 1-12.304-4.642 18.578 18.578 0 0 1-6.332-12.846 18.668 18.668 0 0 1 .892-7.043H89.49v70.044a17.829 17.829 0 0 1 4.269-1.444c4.64-.92 9.36.023 13.291 2.654a17.588 17.588 0 0 1 7.522 11.275 17.594 17.594 0 0 1-2.654 13.291 17.59 17.59 0 0 1-11.275 7.521l-1.943-9.81c2.02-.4 3.763-1.563 4.908-3.274s1.556-3.766 1.155-5.785-1.563-3.763-3.274-4.908a7.658 7.658 0 0 0-5.786-1.155 7.652 7.652 0 0 0-4.907 3.274 7.65 7.65 0 0 0-1.155 5.785l-.149.029v81.235c15.479 4.921 31.615 7.416 48.02 7.416 29.241 0 57.805-8.032 82.602-23.229l3.022 4.932a160.422 160.422 0 0 0 9.778-6.634l-10.489-10.486zm-98.458-101.19c-7.536 0-13.667-6.131-13.667-13.666 0-7.536 6.131-13.667 13.667-13.667s13.667 6.131 13.667 13.667-6.131 13.666-13.667 13.666zm29.481 111.899c-8.353 0-15.148-6.796-15.148-15.148s6.796-15.148 15.148-15.148 15.148 6.796 15.148 15.148-6.795 15.148-15.148 15.148zm42.711-93.074c-3.662-2.159-8.396-.935-10.555 2.728-2.157 3.662-.934 8.397 2.729 10.556l-5.076 8.615c-8.413-4.957-11.225-15.834-6.269-24.247 4.958-8.412 15.836-11.224 24.247-6.268 8.412 4.956 11.225 15.833 6.269 24.246l-8.616-5.076c2.157-3.663.933-8.397-2.729-10.554z" class="colorB8D2FF svgShape"></path><path fill="#ffffff" d="M310.611 417.92s22.27 15 12.313 37c0 0-24.29.333-27.624 20.666h132.334V350.107s-20-9.188-29 3.146-5 24.667-5 24.667-9 6.329-5 14.164c0 0-11-1.164-14.667 6.169s-2.012 13.796-2.012 13.796-21.988 15.582-44.321-11.44c0 0-8.045 5.645-17.022-5.022l-6.978 6.758c0-.001 12.621 9.908 6.977 15.575z" class="colorB8D2FF svgShape"></path><path fill="#ffffff" d="M314.313 372.475l-17.438-6.462-50.057-50.057-22.363 22.364 50.06 50.059 6.438 17.462 6.208 6.208 16.767-16.768 16.597-16.596-6.212-6.21zm-76.915-28.511l-5.098-5.099 5.098-5.098 5.099 5.098-5.099 5.099zm9.944-9.943l-5.099-5.099 5.099-5.099 5.099 5.099-5.099 5.099zm8.764 26.108l12.646-12.647 7.072 7.071-12.647 12.646-7.071-7.07zm15.719 16.016l-7.072-7.071 12.647-12.647 7.071 7.072-12.646 12.646z" class="colorB8D2FF svgShape"></path><path fill="#ffffff" d="M325.47 353.709l-7.071-7.07 8.837-8.838-39.192-.545-10.688-4.905 25.045 25.045 17.438 6.461 4.007 4.006 20.02-20.019-6.265-6.266z" class="colorB8D2FF svgShape"></path><path fill="#ffffff" d="M343.112 366.066a3.003 3.003 0 0 0 4.242 0l1.684-1.683a3.004 3.004 0 0 0 0-4.243l-1.664-1.663-5.926 5.926 1.664 1.663z" class="colorB8D2FF svgShape"></path><path fill="#ffffff" d="M201.976 293.477a40.847 40.847 0 0 0 5.671 26.392l20.721-20.722a40.857 40.857 0 0 0-26.392-5.67z" class="colorB8D2FF svgShape"></path><path fill="#ffffff" d="M265.893 393.898l-24.303-24.302 4.439 9.674.537 38.617 7.282-7.282 7.071 7.072-10.858 10.858 6.556 6.557 19.723-19.723-4.01-4.01z" class="colorB8D2FF svgShape"></path><path fill="#ffffff" d="M272.88 432.973l-5.926 5.926 1.662 1.663a3.004 3.004 0 0 0 4.244 0l1.683-1.684c.566-.567.878-1.319.878-2.121s-.312-1.554-.878-2.121l-1.663-1.663z" class="colorB8D2FF svgShape"></path><path fill="#ffffff" d="M413.005 211.055l.674 48.533 8.832 8.832v-53.099l-13.948-13.946z" class="colorB8D2FF svgShape"></path><path fill="#ffffff" d="M391.433 170.102l31.078 31.077v-44.728l-8.715-8.714-22.363 22.365zm12.943 5.643l-5.098-5.099 5.098-5.099 5.099 5.099-5.099 5.099zm15.041-15.041l-5.098 5.098-5.099-5.098 5.099-5.099 5.098 5.099z" class="colorB8D2FF svgShape"></path><path fill="#ffffff" d="M368.954 125.261a40.9 40.9 0 0 0-.314 5.05c0 7.524 2.131 14.935 6 21.322l20.699-20.699a40.775 40.775 0 0 0-26.385-5.673z" class="colorB8D2FF svgShape"></path><path fill="#ffffff" d="M339.36 238.321l-5.476 5.476 3.099 3.098a1.38 1.38 0 0 0 1.945 0l3.529-3.529a1.38 1.38 0 0 0 0-1.947l-3.097-3.098z" class="colorB8D2FF svgShape"></path><path fill="#ffffff" d="M335.653 212.371l4.008 4.007 20.02-20.02-6.557-6.557-12.52 12.52-7.072-7.071 8.944-8.943-38.618-.536-10.687-4.906 25.045 25.045z" class="colorB8D2FF svgShape"></path><path fill="#ffffff" d="M358.927 214.582a3.005 3.005 0 0 0 4.243-.001l1.683-1.684a3.002 3.002 0 0 0 0-4.242l-1.663-1.663-5.927 5.926 1.664 1.664z" class="colorB8D2FF svgShape"></path><path transform="matrix(0.707 0.7072 -0.7072 0.707 189.0795 -122.7122)" fill="#ffffff" d="M240.171 151.025h4.932v31.626h-4.932z" class="colorB8D2FF svgShape"></path><path fill="#ffffff" d="M281.708 242.413l-24.304-24.303 4.44 9.674.537 38.616 7.282-7.281 7.07 7.072-10.858 10.858 6.558 6.556 16.261-16.261 3.461-3.46-4.009-4.01z" class="colorB8D2FF svgShape"></path><path fill="#ffffff" d="M319.424 258.258l-5.476 5.475 3.098 3.098c.537.537 1.41.537 1.945 0l3.53-3.529a1.377 1.377 0 0 0 0-1.945l-3.097-3.099z" class="colorB8D2FF svgShape"></path><path fill="#ffffff" d="M288.694 281.486l-5.926 5.926 1.663 1.664a3.005 3.005 0 0 0 4.243 0l1.683-1.684a3.002 3.002 0 0 0 0-4.242l-1.663-1.664z" class="colorB8D2FF svgShape"></path><path fill="#0f4c81" d="M295.659 32.4H79.49v447.2h353.021V32.4H295.659zm126.852 233.389l-5.474-5.474 5.474-5.473v10.947zm0-25.089l-8.97 8.97-.536-38.615-4.441-9.68 13.947 13.946V240.7zm0-39.521l-31.078-31.077 22.363-22.364 8.715 8.714v44.727zm-19.274-64l3.488 3.487-22.364 22.364-3.487-3.488 22.363-22.363zm-28.597 14.454c-3.869-6.388-6-13.798-6-21.322a40.9 40.9 0 0 1 .314-5.05 40.782 40.782 0 0 1 26.385 5.673l-20.699 20.699zm47.871-9.324l-12.415-12.414a52.485 52.485 0 0 0-3.869-3.492c-11.979-9.749-27.521-13.531-42.638-10.377l-3.205.669-.668 3.206a51.126 51.126 0 0 0-1.076 10.41c0 13.632 5.308 26.447 14.945 36.085l14.648 14.648 14.803 32.262.314 22.683c-6.463-1.494-13.529.251-18.555 5.276a19.783 19.783 0 0 0-5.723 12.167l-.18-.18a17.815 17.815 0 0 1-12.68 5.258 17.817 17.817 0 0 1-12.68-5.258l-7.07 7.071c5.278 5.279 12.293 8.187 19.75 8.187a27.719 27.719 0 0 0 14.878-4.295 19.8 19.8 0 0 0 3.704 5.157l7.07-7.071c-3.85-3.85-3.85-10.115 0-13.965 3.145-3.145 7.896-3.718 11.631-1.728l.202 14.512 18.812 18.812v63.586a26.005 26.005 0 0 0-22.104 1.383c-6.13 3.343-10.591 8.872-12.563 15.568-1.535 5.215-1.409 10.649.296 15.691a14.563 14.563 0 0 0-5.147 12.502c-4.23.576-8.314 2.465-11.559 5.709-4.099 4.1-6.049 9.531-5.891 14.914a19.958 19.958 0 0 1-10.977 3.267c-5.369 0-10.422-2.095-14.225-5.898l-7.072 7.071c5.693 5.692 13.256 8.827 21.297 8.827 4.914 0 9.648-1.177 13.889-3.388a20.132 20.132 0 0 0 2.979 3.832l7.071-7.071c-3.993-3.993-3.993-10.489 0-14.481 2.679-2.681 6.485-3.553 9.907-2.635.082.065.155.139.238.203l.089-.115a10.153 10.153 0 0 1 4.248 2.547l7.07-7.072a20.094 20.094 0 0 0-6.192-4.207 4.612 4.612 0 0 1-.906-2.181 4.643 4.643 0 0 1 .929-3.455 4.646 4.646 0 0 1 3.099-1.786 4.64 4.64 0 0 1 3.455.929l6.095-7.928a14.548 14.548 0 0 0-9.005-3.029 15.994 15.994 0 0 1-.096-9.421 16.042 16.042 0 0 1 7.762-9.615 16.04 16.04 0 0 1 17.313 1.199V469.6H301.942a19.032 19.032 0 0 1 2.805-3.584c3.591-3.591 8.365-5.568 13.445-5.568s9.855 1.978 13.446 5.568l7.071-7.07a28.91 28.91 0 0 0-10.17-6.598 25.652 25.652 0 0 0 2.146-10.299c0-6.871-2.679-13.334-7.543-18.197l-7.07 7.071c5.293 5.294 6.008 13.446 2.166 19.525l-.047-.001c-7.75 0-15.037 3.018-20.516 8.498a28.8 28.8 0 0 0-6.771 10.654H89.49V221.598c15.53 4.616 31.651 6.952 48.02 6.952 31.087 0 61.457-8.542 87.827-24.703l-2.203-3.595-3.022-4.932c-24.797 15.197-53.36 23.229-82.602 23.229-16.404 0-32.54-2.495-48.02-7.416v-81.235l.149-.029c-.4-2.02.01-4.074 1.155-5.785a7.657 7.657 0 0 1 4.907-3.274 7.665 7.665 0 0 1 5.786 1.155c1.711 1.146 2.874 2.889 3.274 4.908s-.01 4.074-1.155 5.785-2.889 2.874-4.908 3.274l1.943 9.81a17.593 17.593 0 0 0 11.275-7.521 17.594 17.594 0 0 0 2.654-13.291 17.591 17.591 0 0 0-7.522-11.275 17.589 17.589 0 0 0-13.291-2.654 17.829 17.829 0 0 0-4.269 1.444V42.4h141.053a18.688 18.688 0 0 0-.892 7.043 18.58 18.58 0 0 0 6.332 12.846 18.559 18.559 0 0 0 12.304 4.642c.416 0 .834-.014 1.253-.041a18.59 18.59 0 0 0 12.839-6.333l-7.519-6.594a8.645 8.645 0 0 1-5.976 2.948 8.649 8.649 0 0 1-6.308-2.141 8.637 8.637 0 0 1-2.946-5.977 8.633 8.633 0 0 1 2.143-6.3c.029-.033.062-.062.091-.094h52.911a160.657 160.657 0 0 1 1.015 17.88c0 10.663-1.085 21.217-3.172 31.531a13.57 13.57 0 0 0-7.27-2.114c-7.537 0-13.668 6.131-13.668 13.666 0 7.514 6.096 13.628 13.602 13.664a157.159 157.159 0 0 1-14.044 27.96l4.089 2.596 4.353 2.765c17.082-26.899 26.11-58.044 26.11-90.067 0-5.974-.317-11.965-.941-17.88h117.662v99.909zm-133.496-38.946a3.67 3.67 0 0 1-3.666 3.667 3.672 3.672 0 0 1-3.668-3.667 3.672 3.672 0 0 1 3.668-3.666 3.67 3.67 0 0 1 3.666 3.666z" class="color1F4499 svgShape"></path><path fill="#0f4c81" d="M207.504 116.396c4.956-8.413 2.144-19.29-6.269-24.246-8.411-4.956-19.289-2.145-24.247 6.268-4.956 8.413-2.145 19.29 6.269 24.247l5.076-8.615c-3.662-2.158-4.886-6.894-2.729-10.556 2.158-3.662 6.893-4.887 10.555-2.728 3.662 2.157 4.886 6.892 2.729 10.554l8.616 5.076z" class="color1F4499 svgShape"></path><path fill="#0f4c81" d="M123.967 54.609c-7.536 0-13.667 6.131-13.667 13.667 0 7.535 6.131 13.666 13.667 13.666s13.667-6.131 13.667-13.666c0-7.536-6.131-13.667-13.667-13.667zm0 17.333a3.672 3.672 0 0 1-3.667-3.666c0-2.022 1.646-3.667 3.667-3.667s3.667 1.645 3.667 3.667a3.67 3.67 0 0 1-3.667 3.666z" class="color1F4499 svgShape"></path><path fill="#0f4c81" d="M153.448 163.544c-8.353 0-15.148 6.796-15.148 15.148s6.796 15.148 15.148 15.148 15.148-6.796 15.148-15.148-6.795-15.148-15.148-15.148zm0 20.297c-2.839 0-5.148-2.31-5.148-5.148s2.31-5.148 5.148-5.148 5.148 2.31 5.148 5.148-2.309 5.148-5.148 5.148z" class="color1F4499 svgShape"></path><path fill="#0f4c81" d="M135.48 332.959c-9.958 0-18.059 8.101-18.059 18.059 0 9.957 8.101 18.059 18.059 18.059s18.059-8.102 18.059-18.059c0-9.958-8.101-18.059-18.059-18.059zm0 26.117c-4.443 0-8.059-3.615-8.059-8.059s3.615-8.059 8.059-8.059 8.059 3.615 8.059 8.059-3.615 8.059-8.059 8.059z" class="color1F4499 svgShape"></path><path fill="#0f4c81" d="M187.411 440.429h9.047v9.047h-9.047z" class="color1F4499 svgShape"></path><path fill="#0f4c81" d="M170.06 400.608h9.047v9.047h-9.047z" class="color1F4499 svgShape"></path><path fill="#0f4c81" d="M149.467 420.697h9.047v9.047h-9.047z" class="color1F4499 svgShape"></path><path fill="#0f4c81" d="M107.823 283.641h9.047v9.047h-9.047z" class="color1F4499 svgShape"></path><path fill="#0f4c81" d="M144.016 255.625h9.047v9.047h-9.047z" class="color1F4499 svgShape"></path><path fill="#0f4c81" d="M325.29 113.32h9.047v9.047h-9.047z" class="color1F4499 svgShape"></path><path fill="#0f4c81" d="M359.136 88.01h9.047v9.047h-9.047z" class="color1F4499 svgShape"></path><path fill="#0f4c81" d="M326.923 68.275h9.047v9.047h-9.047z" class="color1F4499 svgShape"></path><path transform="matrix(-0.707 -0.7072 0.7072 -0.707 165.6124 746.3386)" fill="#0f4c81" d="M233.794 335.26h7.21v7.211h-7.21z" class="color1F4499 svgShape"></path><path transform="matrix(-0.7071 -0.7071 0.7071 -0.7071 189.6553 736.4035)" fill="#0f4c81" d="M243.737 325.318h7.211v7.211h-7.211z" class="color1F4499 svgShape"></path><path fill="#0f4c81" d="M321.924 327.726c-2.265-3.791-1.776-8.78 1.485-12.042 3.85-3.851 10.115-3.851 13.965 0l7.07-7.071a19.8 19.8 0 0 0-4.615-3.429c5.679-10.574 4.066-24.063-4.848-32.977l-7.071 7.07c6.424 6.425 6.928 16.543 1.546 23.567-4.773.224-9.481 2.13-13.119 5.768-5.132 5.132-6.844 12.392-5.178 18.964l-20.865-.291-33.273-15.27-13.904-13.904c-12.212-12.213-29.597-17.4-46.503-13.871l-3.205.668-.668 3.205c-3.527 16.906 1.658 34.291 13.87 46.504l14.645 14.645 14.805 32.259.665 47.821 19.893 19.893 3.265-3.266 1.664 1.664a12.958 12.958 0 0 0 9.191 3.801c3.33 0 6.659-1.268 9.193-3.801l1.684-1.684a12.918 12.918 0 0 0 3.807-9.192c0-3.473-1.352-6.737-3.807-9.192l-1.664-1.664 3.461-3.46 3.75 3.751 3.901-3.902 3.098 3.098c2.218 2.219 5.131 3.327 8.044 3.327s5.826-1.108 8.044-3.327l3.53-3.529c4.436-4.436 4.436-11.652-.001-16.088l-3.097-3.098.318-.318 3.098 3.098c2.218 2.217 5.131 3.326 8.044 3.326s5.826-1.109 8.044-3.326l3.529-3.53c2.148-2.148 3.332-5.005 3.332-8.044s-1.184-5.896-3.332-8.044l-3.098-3.098 4.051-4.05-3.75-3.75 3.461-3.461 1.663 1.663a12.959 12.959 0 0 0 9.192 3.801 12.96 12.96 0 0 0 9.192-3.801l1.683-1.683v-.001c5.068-5.069 5.068-13.316 0-18.385l-1.663-1.663 3.563-3.563-19.894-19.893-16.191-.225zm-119.948-34.249a40.868 40.868 0 0 1 26.392 5.67l-20.721 20.722a40.842 40.842 0 0 1-5.671-26.392zm15.409 37.771l-3.488-3.487 22.363-22.363 3.488 3.487-22.363 22.363zm57.158 107.63l-1.683 1.684a3.004 3.004 0 0 1-4.244 0l-1.662-1.663 5.926-5.926 1.663 1.663c.566.567.878 1.319.878 2.121s-.312 1.554-.878 2.121zm-17.926-3.786l-6.557-6.557 10.858-10.858-7.071-7.071-7.281 7.281-.537-38.617-4.439-9.674 24.303 24.303 6.438 17.461 4.01 4.01-19.724 19.722zm50.089-20.306l-3.529 3.53c-.333.332-.713.402-.973.402s-.64-.07-.973-.402l-3.098-3.098 5.475-5.477 3.098 3.098c.334.334.404.713.404.974 0 .26-.07.64-.404.973zm-2.778-19.505l-16.767 16.768-6.208-6.208-6.438-17.462-50.06-50.059 22.363-22.364 50.057 50.057 17.438 6.462 6.211 6.211-16.596 16.595zm22.716-.431l-3.53 3.529c-.333.334-.713.403-.973.403s-.64-.069-.973-.403l-3.098-3.098 5.476-5.475 3.098 3.098c.333.333.402.713.402.973s-.069.64-.402.973zm22.394-34.709a3.004 3.004 0 0 1 0 4.243l-1.684 1.683a3.003 3.003 0 0 1-4.242 0l-1.664-1.663 5.926-5.926 1.664 1.663zm-25.192 7.722l-4.007-4.006-17.438-6.462-25.045-25.045 10.688 4.905 39.192.545-8.837 8.838 7.07 7.07 12.131-12.131 6.266 6.266-20.02 20.02z" class="color1F4499 svgShape"></path><path transform="matrix(0.7071 -0.7071 0.7071 0.7071 -174.7808 292.7455)" fill="#0f4c81" d="M257.023 352.341h17.886v10h-17.886z" class="color1F4499 svgShape"></path><path transform="matrix(-0.7072 -0.7071 0.7071 -0.7072 209.8208 819.4734)" fill="#0f4c81" d="M269.612 357.343h10.001v17.885h-10.001z" class="color1F4499 svgShape"></path><path fill="#0f4c81" d="M360.474 335.498c5.279-5.279 8.186-12.294 8.186-19.751 0-7.458-2.906-14.472-8.186-19.751l-7.072 7.071c3.391 3.39 5.258 7.894 5.258 12.68s-1.867 9.289-5.258 12.679l7.072 7.072z" class="color1F4499 svgShape"></path><path transform="matrix(-0.707 0.7072 -0.7072 -0.707 564.7566 140.7992)" fill="#0f4c81" d="M249.609 183.776h7.21v7.209h-7.21z" class="color1F4499 svgShape"></path><path transform="matrix(0.7071 0.7071 -0.7071 0.7071 202.5441 -134.1097)" fill="#0f4c81" d="M259.551 173.833h7.211v7.21h-7.211z" class="color1F4499 svgShape"></path><path fill="#0f4c81" d="M212.428 132.755l-3.205.669-.668 3.205c-3.526 16.906 1.658 34.29 13.87 46.503l10.487 10.486 4.157 4.158 14.805 32.259.666 47.82 19.893 19.894 3.265-3.265 1.663 1.662c2.535 2.535 5.863 3.802 9.192 3.802s6.658-1.267 9.192-3.802l1.684-1.683c5.068-5.069 5.068-13.315 0-18.384l-1.664-1.664 3.461-3.461 3.75 3.75 3.902-3.901 3.098 3.099a11.341 11.341 0 0 0 8.043 3.326c2.914 0 5.826-1.109 8.045-3.326l3.529-3.53c4.436-4.436 4.436-11.653 0-16.089l-3.098-3.098.318-.318 3.098 3.098a11.339 11.339 0 0 0 8.045 3.327c2.912 0 5.826-1.108 8.043-3.327l3.53-3.529c4.435-4.436 4.435-11.652 0-16.088l-3.098-3.098 4.05-4.05-3.75-3.751 3.461-3.46 1.663 1.663c2.534 2.534 5.863 3.802 9.192 3.802s6.658-1.268 9.193-3.802l1.684-1.684c5.067-5.069 5.067-13.316-.001-18.385l-1.663-1.663 3.563-3.563-19.893-19.893-47.821-.665-33.274-15.271-3.657-3.658-10.247-10.246c-12.212-12.21-29.595-17.395-46.503-13.869zm5.363 9.236a40.845 40.845 0 0 1 26.392 5.671l-20.721 20.721a40.84 40.84 0 0 1-5.671-26.392zm34.284 11.921l3.487 3.488-22.363 22.363-3.487-3.488 22.363-22.363zm38.282 133.481l-1.683 1.684a3.005 3.005 0 0 1-4.243 0l-1.663-1.664 5.926-5.926 1.663 1.664a3.002 3.002 0 0 1 0 4.242zm-1.663-20.049l-16.262 16.262-6.558-6.557 10.858-10.857-7.07-7.072-7.282 7.281-.537-38.616-4.439-9.674 24.304 24.303 6.438 17.461 4.01 4.01-3.462 3.459zm33.827-4.043l-3.53 3.529a1.375 1.375 0 0 1-1.945 0l-3.098-3.098 5.476-5.475 3.098 3.098a1.378 1.378 0 0 1-.001 1.946zm19.937-19.936l-3.529 3.529a1.38 1.38 0 0 1-1.945 0l-3.099-3.098 5.476-5.476 3.098 3.097a1.382 1.382 0 0 1-.001 1.948zm22.395-34.71a3.002 3.002 0 0 1 0 4.242l-1.683 1.684a3.005 3.005 0 0 1-4.243.001l-1.664-1.664 5.927-5.926 1.663 1.663zm-60.995-22.884l38.617.536-8.943 8.943 7.072 7.071 12.52-12.521 6.557 6.558-20.02 20.02-4.008-4.007-17.438-6.461-25.045-25.045 10.688 4.906zm-40.784-20.86l49.616 49.616 17.438 6.461 6.21 6.211-12.825 12.826-4.09 4.09-11.317 11.316-5.131 5.131-6.207-6.207-6.438-17.461-49.473-49.473-.588-.587 22.363-22.363.442.44z" class="color1F4499 svgShape"></path><path transform="matrix(0.7071 0.7071 -0.7071 0.7071 228.0935 -138.9554)" fill="#0f4c81" d="M276.781 196.913h10v17.886h-10z" class="color1F4499 svgShape"></path><path transform="matrix(-0.7071 0.7071 -0.7071 -0.7071 647.6779 161.3236)" fill="#0f4c81" d="M281.485 209.8h17.885v10h-17.885z" class="color1F4499 svgShape"></path><path fill="#0f4c81" d="M411.456 284.113l-7.07-7.072c-6.992 6.992-18.368 6.992-25.359 0l-7.071 7.072c5.446 5.445 12.599 8.167 19.751 8.167s14.304-2.722 19.749-8.167z" class="color1F4499 svgShape"></path><path transform="matrix(-0.707 -0.7072 0.7072 -0.707 569.6096 577.265)" fill="#0f4c81" d="M400.772 167.041h7.21v7.211h-7.21z" class="color1F4499 svgShape"></path><path transform="matrix(-0.7071 0.7071 -0.7071 -0.7071 820.922 -18.6298)" fill="#0f4c81" d="M410.715 157.099h7.209v7.21h-7.209z" class="color1F4499 svgShape"></path><metadata><rdf:rdf xmlns:rdf="http://www.w3.org/1999/02/22-rdf-syntax-ns#" xmlns:rdfs="http://www.w3.org/2000/01/rdf-schema#" xmlns:dc="http://purl.org/dc/elements/1.1/"><rdf:description about="https://iconscout.com/legal#licenses" dc:title="space,exploration,solar,system,spaceship,rocket" dc:description="space,exploration,solar,system,spaceship,rocket" dc:publisher="Iconscout" dc:date="2018-07-14" dc:format="image/svg+xml" dc:language="en"><dc:creator><rdf:bag><rdf:li>Chanut Is Industries</rdf:li></rdf:bag></dc:creator></rdf:description></rdf:rdf></metadata></svg></g></svg>