<svg id="SvgjsSvg1001" width="288" height="288" xmlns="http://www.w3.org/2000/svg" version="1.1" xmlns:xlink="http://www.w3.org/1999/xlink" xmlns:svgjs="http://svgjs.com/svgjs"><defs id="SvgjsDefs1002"></defs><g id="SvgjsG1008" transform="matrix(0.916700005531311,0,0,0.916700005531311,11.995176315307617,11.995199203491211)"><!--?xml version="1.0" encoding="UTF-8"?--><svg xmlns="http://www.w3.org/2000/svg" xmlns:xlink="http://www.w3.org/1999/xlink" version="1.1" id="UFO" x="0px" y="0px" width="288" height="288" viewBox="0 0 512 512" xml:space="preserve"><circle fill="#ffffff" cx="257.38" cy="372.641" r="19.787" class="colorB8D2FF svgShape"></circle><path fill="#ffffff" d="M84.484 37.289v323.243s41.385-34.934 98.135-40.934l25.401-128.774c-17.067-1.267-32.753-3.192-46.134-5.718-27.103-5.116-37.437-11.142-41.207-16.447-5.563-4.163-8.369-8.753-8.369-13.753 0-11.615 15.103-21.028 44.889-27.979a271.874 271.874 0 0 1 11.01-2.315c16.851-31.483 51.657-51.618 89.861-51.618 4.939 0 9.868.333 14.708.992l.022-.105 4.789.874.013.002c11.909 2.172 23.421 6.429 33.758 12.429 1.033.6 2.059 1.21 3.067 1.845a99.265 99.265 0 0 1 4.663 3.118l3.957 2.812-.073.108c10.479 8.25 19.082 18.454 25.135 29.848 3.251.635 6.413 1.303 9.449 2.011 29.786 6.95 44.889 16.363 44.889 27.979 0 5-2.807 9.59-8.369 13.753-3.771 5.305-14.104 11.331-41.207 16.447-13.563 2.56-29.494 4.502-46.831 5.769l24.8 127.891s71.445 16.379 96.112 36.355V37.289H84.484zm294.844 66.143c-9.925 0-18-8.075-18-18s8.075-18 18-18 18 8.075 18 18-8.075 18-18 18z" class="colorB8D2FF svgShape"></path><path fill="#ffffff" d="M181.75 153.469c5.222 0 9.649-3.463 11.108-8.213-7.388.778-14.4 1.694-20.952 2.742 2.069 3.299 5.738 5.471 9.844 5.471z" class="colorB8D2FF svgShape"></path><path fill="#ffffff" d="M247.513 142.174c1.919 3.796 5.858 6.425 10.367 6.425 4.501 0 8.438-2.623 10.359-6.412a709.603 709.603 0 0 0-10.859-.088c-3.311 0-6.597.029-9.867.075z" class="colorB8D2FF svgShape"></path><path fill="#ffffff" d="M332.31 153.469c4.159 0 7.856-2.214 9.911-5.572-6.583-1.04-13.624-1.947-21.038-2.717 1.435 4.788 5.879 8.289 11.127 8.289z" class="colorB8D2FF svgShape"></path><path fill="#0f4c81" d="M125.126 377.711a3.593 3.593 0 0 1-3.53-3.648 3.594 3.594 0 0 1 3.65-3.531l.167-9.998c-7.502-.119-13.69 5.867-13.816 13.361-.125 7.492 5.869 13.689 13.362 13.816h.23c7.389 0 13.461-5.947 13.586-13.361l-9.999-.168c-.033 1.978-1.698 3.58-3.65 3.529z" class="color1F4499 svgShape"></path><path fill="#0f4c81" d="M233.044 437.781c.574.77.815 1.715.678 2.664s-.636 1.787-1.404 2.361a3.594 3.594 0 0 1-5.025-.725 3.594 3.594 0 0 1 .727-5.025l-5.987-8.01c-6.002 4.486-7.235 13.02-2.749 19.021 2.666 3.566 6.759 5.449 10.902 5.449 2.831 0 5.684-.879 8.12-2.701a13.494 13.494 0 0 0 5.314-8.941 13.504 13.504 0 0 0-2.565-10.08l-8.011 5.987z" class="color1F4499 svgShape"></path><path fill="#0f4c81" d="M386.395 390.996a3.595 3.595 0 0 1-1.724-4.775 3.581 3.581 0 0 1 2.031-1.852 3.572 3.572 0 0 1 2.745.127l4.25-9.051a13.498 13.498 0 0 0-10.39-.482 13.498 13.498 0 0 0-7.688 7.008c-3.186 6.783-.259 14.893 6.524 18.078a13.52 13.52 0 0 0 5.756 1.287c5.107 0 10.012-2.891 12.321-7.813l-9.051-4.25a3.589 3.589 0 0 1-4.774 1.723z" class="color1F4499 svgShape"></path><path transform="matrix(-0.5 -0.866 0.866 -0.5 5.7002 701.1756)" fill="#0f4c81" d="M200.728 344.419h9.046v9.047h-9.046z" class="color1F4499 svgShape"></path><path transform="matrix(-0.5 -0.866 0.866 -0.5 158.1183 783.0388)" fill="#0f4c81" d="M300.592 341.349h9.046v9.047h-9.046z" class="color1F4499 svgShape"></path><path transform="matrix(-0.574 0.8189 -0.8189 -0.574 675.8105 307.6281)" fill="#0f4c81" d="M253.357 325.094h9.047v9.046h-9.047z" class="color1F4499 svgShape"></path><path fill="#0f4c81" d="M281.402 362.398c-.544-.428-1.348-1.064-1.577-1.328-.1-.396-.162-1.33-.205-1.965-.166-2.467-.417-6.193-3.395-8.656-2.978-2.461-6.687-2.006-9.14-1.705-.617.076-1.529.182-1.939.17-.385-.227-1.124-.865-1.629-1.301-1.948-1.684-4.625-3.992-8.354-3.637-3.739.355-5.927 3.123-7.524 5.143-.429.543-1.065 1.348-1.328 1.576-.397.1-1.331.162-1.964.205-2.467.166-6.195.416-8.656 3.393v.002c-2.461 2.977-2.007 6.686-1.706 9.141.075.615.186 1.518.169 1.939-.226.383-.865 1.123-1.3 1.627-1.684 1.949-3.991 4.619-3.636 8.357.354 3.736 3.122 5.924 5.142 7.521.542.43 1.347 1.066 1.577 1.328.099.398.162 1.332.205 1.965.166 2.467.417 6.195 3.394 8.656 2.976 2.461 6.685 2.006 9.14 1.705.616-.074 1.521-.182 1.939-.168.384.225 1.125.863 1.628 1.299 1.813 1.568 4.25 3.674 7.591 3.674.25 0 .505-.012.765-.037 3.738-.354 5.927-3.121 7.524-5.143.429-.541 1.064-1.348 1.327-1.576.396-.1 1.33-.162 1.964-.205 2.467-.166 6.194-.416 8.656-3.393 2.461-2.979 2.007-6.686 1.706-9.141-.076-.615-.186-1.518-.169-1.939.225-.385.864-1.125 1.301-1.629 1.684-1.949 3.99-4.617 3.636-8.357-.356-3.735-3.123-5.923-5.142-7.521zm-6.06 9.34c-1.179 1.363-2.646 3.061-3.317 5.25-.656 2.139-.399 4.229-.174 6.074.045.365.102.826.139 1.242-.416.041-.878.072-1.246.098-1.855.125-3.956.266-5.933 1.313-2.024 1.07-3.415 2.83-4.532 4.244-.198.25-.44.557-.676.84-.284-.234-.579-.49-.82-.697-1.363-1.18-3.061-2.645-5.251-3.318-1.02-.313-2.029-.418-3.005-.418-1.071 0-2.103.127-3.067.244-.367.045-.826.102-1.242.139-.042-.414-.073-.877-.098-1.246-.125-1.854-.266-3.955-1.312-5.932-1.072-2.025-2.831-3.416-4.245-4.533a37.01 37.01 0 0 1-.839-.676c.234-.283.489-.578.698-.82 1.178-1.363 2.645-3.061 3.317-5.25.656-2.139.399-4.229.173-6.072a38.926 38.926 0 0 1-.138-1.242c.415-.043.877-.074 1.246-.098 1.854-.125 3.956-.268 5.932-1.313 2.024-1.072 3.416-2.832 4.534-4.244.198-.25.44-.557.675-.84.284.232.58.488.821.697 1.363 1.178 3.061 2.645 5.249 3.316 2.139.656 4.229.4 6.074.174.366-.045.826-.102 1.242-.139.042.416.073.879.098 1.246.125 1.855.267 3.957 1.313 5.932 1.071 2.025 2.831 3.416 4.245 4.535.25.197.556.439.839.674-.236.283-.492.58-.7.82z" class="color1F4499 svgShape"></path><path fill="#0f4c81" d="M394.079 168.659c5.563-4.163 8.369-8.753 8.369-13.753 0-11.615-15.103-21.028-44.889-27.979a270.056 270.056 0 0 0-9.449-2.011c-6.053-11.394-14.656-21.597-25.135-29.848l.073-.108-3.957-2.812a98.49 98.49 0 0 0-4.663-3.118 102.888 102.888 0 0 0-3.067-1.845c-10.337-6-21.849-10.257-33.758-12.429l-.013-.002-4.789-.874-.022.105c-4.84-.659-9.769-.992-14.708-.992-38.205 0-73.011 20.135-89.861 51.618a271.874 271.874 0 0 0-11.01 2.315c-29.786 6.95-44.889 16.363-44.889 27.979 0 5 2.806 9.59 8.369 13.753 3.77 5.305 14.104 11.331 41.207 16.447 13.381 2.525 29.067 4.451 46.134 5.718 15.528 1.153 32.197 1.763 49.359 1.763 16.905 0 33.331-.592 48.661-1.712 17.337-1.266 33.269-3.208 46.831-5.769 27.103-5.115 37.437-11.141 41.207-16.446zM281.791 85.895c.886.222 1.769.456 2.646.703.278.079.558.155.835.236 1.051.306 2.099.625 3.138.966.143.046.283.098.426.145a96.056 96.056 0 0 1 3.585 1.277c.991.375 1.977.761 2.953 1.168l.126.051c1.01.423 2.008.869 3.001 1.325.271.125.542.253.813.38.849.4 1.691.812 2.526 1.236.156.08.315.156.472.237a92.215 92.215 0 0 1 2.858 1.543c.243.136.483.275.725.414.777.446 1.548.902 2.311 1.369l.414.253a16.764 16.764 0 0 1-10.566 3.737c-8.712 0-15.897-6.662-16.729-15.159l.466.119zm-23.72-2.901c4.428 0 8.841.298 13.179.88-.001.084-.006.168-.006.253 0 14.782 12.026 26.808 26.809 26.808a26.738 26.738 0 0 0 18.943-7.85c7.107 5.629 13.237 12.25 18.125 19.57-22.921-3.531-49.719-5.431-77.741-5.431-18.941 0-37.326.867-54.332 2.519a54.233 54.233 0 0 1 5.538-5.761l-6.67-7.45a63.809 63.809 0 0 0-12.155 14.703 394.83 394.83 0 0 0-8.583 1.192c16.273-24.265 45.267-39.433 76.893-39.433zm-98.598 53.672c26.094-6.088 60.864-9.441 97.907-9.441 37.041 0 71.813 3.353 97.907 9.441 26.941 6.286 35.735 13.411 36.991 17.285-4.903-4.762-15.782-9.912-39.406-14.372-25.556-4.824-59.469-7.48-95.492-7.48-36.024 0-69.937 2.657-95.493 7.48-23.624 4.459-34.503 9.61-39.406 14.372 1.256-3.874 10.049-10.999 36.992-17.285zm182.748 11.231c-2.055 3.357-5.752 5.572-9.911 5.572-5.248 0-9.691-3.501-11.127-8.289 7.414.77 14.455 1.677 21.038 2.717zm-73.982-5.71c-1.922 3.789-5.858 6.412-10.359 6.412-4.509 0-8.448-2.628-10.367-6.425 3.27-.045 6.556-.075 9.867-.075 3.645 0 7.264.033 10.859.088zm-75.381 3.068c-1.459 4.75-5.886 8.213-11.108 8.213-4.106 0-7.775-2.171-9.844-5.472 6.552-1.046 13.564-1.962 20.952-2.741zm-33.385 27.89c-15.695-3.662-25.229-7.608-30.706-11.032.737-1.223 5.58-6.921 32.904-12.307 3.201 8.055 11.077 13.663 20.079 13.663 11.102 0 20.272-8.413 21.481-19.197 10.705-.904 22.036-1.536 33.751-1.876 2.426 9.284 10.915 16.203 20.898 16.203 9.967 0 18.451-6.905 20.889-16.171 11.107.338 21.86.939 32.054 1.787 1.182 10.813 10.366 19.255 21.487 19.255 9.071 0 16.969-5.66 20.133-13.788 27.886 5.42 32.806 11.198 33.55 12.432-5.477 3.424-15.011 7.37-30.705 11.032-15.316 3.574-33.636 6.196-53.635 7.76a7.08 7.08 0 0 0 .254-1.813c0-6.033-6.904-9.844-21.728-11.994l-1.436 9.896c4.515.655 7.712 1.423 9.889 2.114-5.402 1.683-16.02 3.478-31.252 3.478-15.28 0-25.917-1.806-31.302-3.494 5.385-1.688 16.022-3.494 31.302-3.494 2.281 0 4.566.043 6.793.129l.383-9.993a188.69 188.69 0 0 0-7.176-.136c-10.901 0-21.2.923-29 2.599-6.666 1.433-15.527 4.12-15.527 10.895 0 .644.103 1.24.254 1.813-20-1.565-38.318-4.187-53.634-7.761z" class="color1F4499 svgShape"></path><path fill="#0f4c81" d="M234.694 99.788a53.799 53.799 0 0 1 17.775-1.883l.606-9.981a63.792 63.792 0 0 0-21.073 2.234 63.7 63.7 0 0 0-22.166 11.211l6.155 7.881a53.739 53.739 0 0 1 18.703-9.462z" class="color1F4499 svgShape"></path><path fill="#0f4c81" d="M252.379 215.25h10v44.5h-10z" class="color1F4499 svgShape"></path><path fill="#0f4c81" d="M252.379 274.25h10v22.5h-10z" class="color1F4499 svgShape"></path><path transform="matrix(-0.9959 0.0904 -0.0904 -0.9959 586.8674 461.2253)" fill="#0f4c81" d="M277.991 231.471h10v24.858h-10z" class="color1F4499 svgShape"></path><path transform="matrix(-0.0904 -0.9959 0.9959 -0.0904 25.3746 600.8433)" fill="#0f4c81" d="M263.119 283.834h47.901v10h-47.901z" class="color1F4499 svgShape"></path><path transform="matrix(0.9959 0.0904 -0.0904 0.9959 23.8852 -20.1443)" fill="#0f4c81" d="M229.247 241.086h10v24.858h-10z" class="color1F4499 svgShape"></path><path transform="matrix(-0.9959 -0.0904 0.0904 -0.9959 432.4047 616.4878)" fill="#0f4c81" d="M225.168 274.497h10V322.4h-10z" class="color1F4499 svgShape"></path><path transform="matrix(-0.9763 -0.2163 0.2163 -0.9763 299.8182 495.4305)" fill="#0f4c81" d="M172.014 218.883h10v24.858h-10z" class="color1F4499 svgShape"></path><path transform="matrix(-0.9763 -0.2164 0.2164 -0.9763 270.9583 580.3913)" fill="#0f4c81" d="M162.253 251.41h10.001v47.903h-10.001z" class="color1F4499 svgShape"></path><path fill="#0f4c81" d="M379.328 67.432c-9.925 0-18 8.075-18 18s8.075 18 18 18 18-8.075 18-18-8.075-18-18-18zm0 26c-4.411 0-8-3.589-8-8s3.589-8 8-8 8 3.589 8 8-3.589 8-8 8z" class="color1F4499 svgShape"></path><path transform="matrix(0.9744 -0.2248 0.2248 0.9744 -43.3298 82.0171)" fill="#0f4c81" d="M333.507 218.859h10v24.858h-10z" class="color1F4499 svgShape"></path><path transform="matrix(-0.2248 -0.9744 0.9744 -0.2248 158.8006 676.8457)" fill="#0f4c81" d="M324.697 270.252H372.6v10.001h-47.903z" class="color1F4499 svgShape"></path><path fill="#0f4c81" d="M120.565 75.746h9.047v9.047h-9.047z" class="color1F4499 svgShape"></path><path fill="#0f4c81" d="M164.92 58.385h9.047v9.047h-9.047z" class="color1F4499 svgShape"></path><path fill="#0f4c81" d="M402.448 219.216h9.047v9.046h-9.047z" class="color1F4499 svgShape"></path><path fill="#0f4c81" d="M107.072 244.458h9.047v9.047h-9.047z" class="color1F4499 svgShape"></path><path fill="#0f4c81" d="M134.251 266.117h9.047v9.047h-9.047z" class="color1F4499 svgShape"></path><path fill="#0f4c81" d="M374.331 236.162h9.047v9.047h-9.047z" class="color1F4499 svgShape"></path><path fill="#0f4c81" d="M114.098 288.283h9.047v9.047h-9.047z" class="color1F4499 svgShape"></path><path fill="#0f4c81" d="M365.851 200.464h9.047v9.046h-9.047z" class="color1F4499 svgShape"></path><path fill="#0f4c81" d="M149.629 95.141h9.047v9.046h-9.047z" class="color1F4499 svgShape"></path><path fill="#0f4c81" d="M79.484 32.4v447.2h353.031V32.4H79.484zm10 437.2V360.924c21.449-15.494 52.317-27.887 87.824-35.293l-15.394 80.305 9.821 1.883 38.296-199.778-9.821-1.883-20.868 108.86c-35.451 6.961-66.841 18.795-89.858 33.791V42.4h333.031v304.655c-22.827-14.287-52.656-25.266-87.096-32.02l-20.871-108.878-9.82 1.883 38.296 199.778 9.82-1.883-15.395-80.307c34.334 7.135 63.55 18.605 85.065 33.381V469.6H89.484z" class="color1F4499 svgShape"></path><metadata><rdf:rdf xmlns:rdf="http://www.w3.org/1999/02/22-rdf-syntax-ns#" xmlns:rdfs="http://www.w3.org/2000/01/rdf-schema#" xmlns:dc="http://purl.org/dc/elements/1.1/"><rdf:description about="https://iconscout.com/legal#licenses" dc:title="ufo,space,alien,plant,galaxy" dc:description="ufo,space,alien,plant,galaxy" dc:publisher="Iconscout" dc:date="2018-07-14" dc:format="image/svg+xml" dc:language="en"><dc:creator><rdf:bag><rdf:li>Chanut Is Industries</rdf:li></rdf:bag></dc:creator></rdf:description></rdf:rdf></metadata></svg></g></svg>